<svg width="23" height="33" viewBox="0 0 23 33" fill="none" xmlns="http://www.w3.org/2000/svg">
<path d="M2.16224 0.0494298C2.36228 -0.0170515 2.5773 -0.000281452 2.78513 0.00870252C7.75626 0.00510893 12.728 0.000317434 17.6985 0.0116971C17.9087 -0.00327615 18.1261 0.0548201 18.2717 0.214735C19.7594 1.69829 21.246 3.18364 22.7337 4.66719C22.8859 4.80614 22.9607 5.01217 22.9481 5.21701C22.9439 12.9839 22.9428 20.7503 22.9398 28.5172C22.9673 28.8047 22.7265 29.0892 22.4331 29.085C20.4165 29.0892 18.3999 29.0784 16.3833 29.0814C16.282 29.0874 16.1832 29.0628 16.0964 29.0131C16.3234 28.6801 16.5719 28.3633 16.8073 28.0363C16.9031 27.8997 17.0361 27.7572 17.2188 27.7716C18.6179 27.768 20.017 27.7769 21.4161 27.771C21.5736 27.8021 21.6545 27.6356 21.6323 27.5026C21.6317 20.4323 21.6311 13.3619 21.6323 6.29089C21.6419 6.17949 21.6161 6.0058 21.4694 6.01538C20.1356 6.00041 18.8005 6.01538 17.4661 6.0082C17.2469 6.01538 17.0319 5.88302 16.9528 5.67699C16.8995 5.50928 16.9127 5.3308 16.9115 5.15771C16.9133 4.1593 16.9103 3.16088 16.9109 2.16246C16.9091 1.89534 16.9229 1.62761 16.8888 1.36169C16.645 1.29461 16.3916 1.31497 16.1425 1.31437C12.1099 1.31437 8.07728 1.31377 4.04528 1.31437C3.77755 1.31677 3.50624 1.29401 3.24271 1.3533C3.17144 1.57551 3.193 1.80969 3.1924 2.03968C3.193 4.7151 3.1912 7.39113 3.193 10.0666C3.19839 10.1881 3.18222 10.3385 3.05405 10.393C2.84861 10.4367 2.63539 10.4073 2.42697 10.4157C2.22932 10.4091 1.98855 10.4624 1.85858 10.2714C1.849 7.02758 1.85618 3.78436 1.85499 0.540553C1.84061 0.332125 1.97777 0.136874 2.16224 0.0494298Z" fill="#E32501"/>
<path d="M0.590291 11.5317C6.23582 11.5233 11.8813 11.5299 17.5263 11.5287C17.8389 11.5029 18.0929 11.8006 18.0749 12.1024C18.0755 14.5592 18.0785 17.0167 18.0731 19.4729C18.0827 19.7957 17.7826 20.0556 17.4658 20.0227C11.873 20.0215 6.27954 20.0239 0.686719 20.0215C0.386055 20.0401 0.0955741 19.7801 0.12013 19.4717C0.119531 16.9957 0.115937 14.5191 0.117734 12.0431C0.104558 11.7826 0.331552 11.5412 0.590291 11.5317ZM1.96184 13.2554C1.96783 14.9378 1.95585 16.6202 1.96783 18.302C2.4925 18.299 3.01716 18.3014 3.54182 18.3008C3.54781 17.7216 3.54122 17.143 3.54542 16.5639C4.07188 16.5597 4.60373 16.5884 5.123 16.4836C5.73151 16.3477 6.28672 15.8523 6.36578 15.2151C6.38255 14.8605 6.4137 14.482 6.2466 14.1556C6.01661 13.6788 5.52848 13.3446 5.00381 13.2883C4.32582 13.2248 3.64364 13.2715 2.96505 13.235C2.63085 13.2692 2.29545 13.2093 1.96184 13.2554ZM7.32527 13.347C7.32168 14.8899 7.32587 16.4321 7.32347 17.975C7.32407 18.0618 7.33605 18.1492 7.34803 18.2361C8.10748 18.3313 8.89148 18.3876 9.64613 18.2271C10.1924 18.1091 10.7182 17.8228 11.044 17.3587C11.5178 16.6968 11.6148 15.8272 11.4783 15.0414C11.3716 14.4413 11.0135 13.8855 10.4834 13.5752C10.3331 13.4943 10.178 13.3829 9.9989 13.4027C10.0444 13.3722 10.0774 13.3314 10.063 13.2739L10.0211 13.359C9.14123 13.123 8.21349 13.2015 7.32527 13.347ZM12.5096 13.2536C12.5114 14.9366 12.506 16.619 12.5126 18.3014C13.0163 18.3008 13.5206 18.3014 14.0249 18.3008C14.0303 17.6599 14.0261 17.0191 14.0279 16.3776C14.6813 16.3704 15.3348 16.3776 15.9888 16.374C15.9924 15.9823 15.9918 15.5906 15.9894 15.1995C15.336 15.1965 14.6819 15.2025 14.0279 15.1959C14.0273 14.9749 14.0273 14.7545 14.0285 14.5341C14.7616 14.5275 15.4947 14.5353 16.2278 14.5299C16.2296 14.1047 16.2278 13.68 16.229 13.2554C14.9892 13.247 13.7494 13.2518 12.5096 13.2536Z" fill="#E32501"/>
<path d="M3.53906 14.5125C3.82415 14.4574 4.11763 14.482 4.40512 14.5035C4.58899 14.5119 4.78843 14.6143 4.83155 14.8066C4.89384 15.0168 4.73393 15.2348 4.5279 15.2792C4.20447 15.3421 3.87147 15.3151 3.54385 15.3181C3.54385 15.0492 3.54685 14.7809 3.53906 14.5125Z" fill="#E32501"/>
<path d="M8.79537 14.4914C9.11879 14.4752 9.47994 14.5117 9.72551 14.7471C9.98005 14.9903 10.0405 15.3616 10.0501 15.6976C10.0328 16.0665 9.97526 16.4726 9.70454 16.7481C9.47096 16.9895 9.11879 17.0428 8.79836 17.044C8.78878 16.1935 8.79477 15.3424 8.79537 14.4914Z" fill="#E32501"/>
<path d="M1.86358 21.255C1.94563 21.2005 2.02049 21.1125 2.1295 21.1233C2.38944 21.1173 2.64937 21.1185 2.90931 21.1227C3.05545 21.1083 3.20638 21.2305 3.18901 21.3838C3.1962 23.4226 3.18961 25.4607 3.192 27.4995C3.18242 27.6181 3.24471 27.787 3.39085 27.7708C4.78756 27.7786 6.18486 27.766 7.58217 27.772C7.89661 27.7696 8.02059 28.1104 8.19547 28.3134C8.347 28.568 8.62012 28.7662 8.66324 29.0729C6.58435 29.092 4.50546 29.0801 2.42717 29.0872C2.10914 29.1238 1.81566 28.8309 1.85279 28.5129C1.86058 26.0938 1.83902 23.6741 1.86358 21.255Z" fill="#E32501"/>
<path d="M10.0102 21.5911C10.1048 21.3408 10.3611 21.1503 10.6343 21.1683C11.8327 21.1671 13.0312 21.1659 14.2296 21.1689C14.5668 21.1599 14.8633 21.4683 14.8603 21.8019C14.8669 23.0807 14.8561 24.36 14.8651 25.6387C14.8537 25.7471 14.9633 25.8381 15.0663 25.8369C15.6832 25.8495 16.3013 25.8292 16.9182 25.8453C17.044 25.8447 17.2051 25.9226 17.1991 26.0675C17.2117 26.2682 17.0434 26.4119 16.9422 26.5664C15.5635 28.4201 14.1895 30.2774 12.8114 32.1317C12.6862 32.3216 12.4316 32.3934 12.2232 32.3054C12.0495 32.2048 11.9465 32.0257 11.8279 31.8706C10.4684 30.036 9.10579 28.2033 7.74681 26.3682C7.63421 26.2406 7.59468 26.0711 7.67554 25.9166C7.77975 25.8783 7.88576 25.8351 7.99896 25.8399C8.55776 25.8375 9.11717 25.8423 9.67597 25.8399C9.77 25.8411 9.85864 25.8058 9.94788 25.7806C9.98801 24.6564 9.95387 23.5299 9.96525 22.4051C9.97424 22.1338 9.93351 21.8552 10.0102 21.5911Z" fill="#E32501"/>
</svg>
