<svg width="16" height="16" viewBox="0 0 16 16" fill="none" xmlns="http://www.w3.org/2000/svg">
<path fill-rule="evenodd" clip-rule="evenodd" d="M0.666626 7.99984C0.666626 3.94975 3.94987 0.666504 7.99996 0.666504C12.05 0.666504 15.3333 3.94975 15.3333 7.99984C15.3333 12.0499 12.05 15.3332 7.99996 15.3332C3.94987 15.3332 0.666626 12.0499 0.666626 7.99984Z" fill="#08AD36"/>
<path fill-rule="evenodd" clip-rule="evenodd" d="M11.5404 5.36182C11.8008 5.62217 11.8008 6.04428 11.5404 6.30463L7.40235 10.638C7.142 10.8983 6.71989 10.8983 6.45954 10.638L4.45954 8.63796C4.19919 8.37761 4.19919 7.9555 4.45954 7.69515C4.71989 7.4348 5.142 7.4348 5.40235 7.69515L6.93095 9.22375L10.5976 5.36182C10.858 5.10147 11.2801 5.10147 11.5404 5.36182Z" fill="white"/>
</svg>
