<svg width="20" height="27" viewBox="0 0 20 27" fill="none" xmlns="http://www.w3.org/2000/svg">
<path d="M1.25 27H18.75C19.4392 27 20 26.4322 20 25.7344V8.01562C20 8.00128 19.9933 7.98947 19.9925 7.97597C19.9908 7.95656 19.9858 7.93969 19.9817 7.92112C19.9686 7.86251 19.943 7.8075 19.9067 7.75997C19.9008 7.75237 19.9017 7.74309 19.8958 7.7355L13.2292 0.14175C13.2267 0.139219 13.2233 0.139219 13.2208 0.136688C13.17 0.082865 13.1058 0.0438235 13.035 0.023625C13.0192 0.0185625 13.005 0.016875 12.9883 0.0143438C12.9642 0.010125 12.9417 0 12.9167 0H1.25C0.560833 0 0 0.567844 0 1.26562V25.7344C0 26.4322 0.560833 27 1.25 27ZM13.3333 1.53141L18.6558 7.59375H13.75C13.5667 7.59375 13.3333 7.23938 13.3333 6.96094V1.53141ZM0.833333 1.26562C0.833333 1.15374 0.877232 1.04643 0.955372 0.967314C1.03351 0.888197 1.13949 0.84375 1.25 0.84375H12.5V6.96094C12.5 7.64353 13.0458 8.4375 13.75 8.4375H19.1667V25.7344C19.1667 25.8463 19.1228 25.9536 19.0446 26.0327C18.9665 26.1118 18.8605 26.1562 18.75 26.1562H1.25C1.01667 26.1562 0.833333 25.9706 0.833333 25.7344V1.26562Z" fill="#58595B"/>
<path d="M4.58268 11.8125H15.416C15.5265 11.8125 15.6325 11.7681 15.7106 11.6889C15.7888 11.6098 15.8327 11.5025 15.8327 11.3906C15.8327 11.2787 15.7888 11.1714 15.7106 11.0923C15.6325 11.0132 15.5265 10.9688 15.416 10.9688H4.58268C4.47218 10.9688 4.36619 11.0132 4.28805 11.0923C4.20991 11.1714 4.16602 11.2787 4.16602 11.3906C4.16602 11.5025 4.20991 11.6098 4.28805 11.6889C4.36619 11.7681 4.47218 11.8125 4.58268 11.8125Z" fill="#58595B"/>
<path d="M4.58268 15.1875H15.416C15.5265 15.1875 15.6325 15.1431 15.7106 15.0639C15.7888 14.9848 15.8327 14.8775 15.8327 14.7656C15.8327 14.6537 15.7888 14.5464 15.7106 14.4673C15.6325 14.3882 15.5265 14.3438 15.416 14.3438H4.58268C4.47218 14.3438 4.36619 14.3882 4.28805 14.4673C4.20991 14.5464 4.16602 14.6537 4.16602 14.7656C4.16602 14.8775 4.20991 14.9848 4.28805 15.0639C4.36619 15.1431 4.47218 15.1875 4.58268 15.1875Z" fill="#58595B"/>
<path d="M4.58268 8.4375H9.58268C9.69319 8.4375 9.79917 8.39305 9.87731 8.31394C9.95545 8.23482 9.99935 8.12751 9.99935 8.01562C9.99935 7.90374 9.95545 7.79643 9.87731 7.71731C9.79917 7.6382 9.69319 7.59375 9.58268 7.59375H4.58268C4.47218 7.59375 4.36619 7.6382 4.28805 7.71731C4.20991 7.79643 4.16602 7.90374 4.16602 8.01562C4.16602 8.12751 4.20991 8.23482 4.28805 8.31394C4.36619 8.39305 4.47218 8.4375 4.58268 8.4375Z" fill="#58595B"/>
<path d="M4.58268 18.5625H15.416C15.5265 18.5625 15.6325 18.5181 15.7106 18.4389C15.7888 18.3598 15.8327 18.2525 15.8327 18.1406C15.8327 18.0287 15.7888 17.9214 15.7106 17.8423C15.6325 17.7632 15.5265 17.7188 15.416 17.7188H4.58268C4.47218 17.7188 4.36619 17.7632 4.28805 17.8423C4.20991 17.9214 4.16602 18.0287 4.16602 18.1406C4.16602 18.2525 4.20991 18.3598 4.28805 18.4389C4.36619 18.5181 4.47218 18.5625 4.58268 18.5625Z" fill="#58595B"/>
<path d="M4.58268 21.9375H15.416C15.5265 21.9375 15.6325 21.8931 15.7106 21.8139C15.7888 21.7348 15.8327 21.6275 15.8327 21.5156C15.8327 21.4037 15.7888 21.2964 15.7106 21.2173C15.6325 21.1382 15.5265 21.0938 15.416 21.0938H4.58268C4.47218 21.0938 4.36619 21.1382 4.28805 21.2173C4.20991 21.2964 4.16602 21.4037 4.16602 21.5156C4.16602 21.6275 4.20991 21.7348 4.28805 21.8139C4.36619 21.8931 4.47218 21.9375 4.58268 21.9375Z" fill="#58595B"/>
</svg>
