<svg width="10" height="14" viewBox="0 0 10 14" fill="none" xmlns="http://www.w3.org/2000/svg">
<path d="M0.444482 13.228C0.890006 13.5281 1.61265 13.5085 2.02194 13.1734C4.30072 11.3566 6.57311 9.5347 8.84763 7.71449C9.33259 7.36153 9.32833 6.69142 8.84337 6.33931C6.62427 4.56173 4.39878 2.78755 2.18288 1.00826C1.942 0.797682 1.62651 0.622055 1.25559 0.617792C0.666178 0.58369 0.101279 0.951995 0.0160106 1.41834C-0.0511378 1.73209 0.0970152 2.05862 0.383728 2.27517C2.36514 3.86007 4.34762 5.44412 6.32903 7.02988C4.33163 8.62843 2.32784 10.2227 0.335765 11.8255C-0.151328 12.2024 -0.0905742 12.9006 0.444482 13.228Z" fill="#313131"/>
</svg>
