<?xml version="1.0" encoding="UTF-8"?> <svg xmlns="http://www.w3.org/2000/svg" width="267" height="37"><g fill="#FFF" fill-rule="evenodd"><path d="M14.114 21.802a.815.815 0 01-.229.568.737.737 0 01-.547.248H.775c-.516 0-.775-.274-.775-.816V3.674c0-.543.259-.817.775-.817h12.42a.72.72 0 01.545.248c.153.166.23.355.23.569v.523a.822.822 0 01-.23.57.72.72 0 01-.545.247H2.07v6.265h9.772c.518 0 .777.273.777.818v.464a.875.875 0 01-.23.584.706.706 0 01-.547.262H2.07v7.056h11.268c.19 0 .366.084.53.26.165.176.246.359.246.553v.526M32.035 12.766c0-5.17-2.345-7.752-7.041-7.752h-5.345v15.449h4.427c3.928 0 6.41-1.451 7.442-4.347.346-.97.517-2.087.517-3.35zm2.13 0c0 3.148-.949 5.607-2.845 7.373-1.784 1.654-4.208 2.48-7.274 2.48H18.3a.76.76 0 01-.56-.249.78.78 0 01-.248-.568V3.674c0-.214.083-.403.248-.569a.753.753 0 01.56-.248h6.724c2.933 0 5.222.905 6.869 2.712 1.513 1.67 2.271 4.07 2.271 7.197zM50.096 4.197c0 .545-.268.817-.805.817H39.233v6.265h8.507c.516 0 .775.273.775.818v.464c0 .563-.259.846-.775.846h-8.507v8.395c0 .542-.259.816-.778.816h-.517c-.516 0-.775-.274-.775-.816V3.674c0-.543.259-.817.775-.817h11.353c.537 0 .805.274.805.817v.523M3.527 30.675c0 .054-.019.1-.058.145l-.135.06H.193c-.13 0-.193-.068-.193-.205v-4.527c0-.14.063-.21.193-.21h3.103c.053 0 .1.021.137.065.037.041.057.09.057.145v.128l-.057.14a.17.17 0 01-.137.062H.518v1.568H2.96c.129 0 .194.068.194.203v.118l-.059.145-.135.066H.518v1.764h2.816l.13.063.063.14v.13M8.386 30.675c0 .054-.023.1-.062.145a.178.178 0 01-.135.06H7.98a.177.177 0 01-.158-.087v.007l-2.967-3.912v3.787c0 .054-.019.1-.06.145l-.14.06h-.137c-.053 0-.1-.02-.139-.06a.2.2 0 01-.063-.145v-4.527c0-.055.02-.104.063-.145a.18.18 0 01.14-.064h.2c.049 0 .1.032.159.089v-.006c.383.518.939 1.251 1.666 2.191l.732.947c.217.282.407.536.576.758v-3.77c0-.14.066-.21.2-.21h.137c.053 0 .098.021.135.065.039.041.062.09.062.145v4.527M13.49 26.148l-.018.084.006-.007-1.87 4.533c-.022.08-.084.121-.18.121h-.15c-.095 0-.16-.041-.194-.121l-1.912-4.526-.018-.084c0-.14.066-.21.205-.21h.138c.091 0 .154.04.186.127l1.668 3.933 1.617-3.933c.03-.087.095-.126.186-.126h.136c.136 0 .2.07.2.21M14.577 30.675c0 .137-.068.204-.202.204h-.077c-.169 0-.254-.067-.254-.204v-4.527c0-.14.085-.21.254-.21h.077c.134 0 .202.07.202.21v4.527M18.986 27.31c0-.553-.36-.832-1.083-.832h-1.698v1.742h1.589c.36 0 .64-.073.847-.216a.804.804 0 00.345-.693zm.53-.022c0 .533-.2.929-.609 1.188.37.215.554.58.554 1.099v1.1c0 .054-.023.1-.067.145a.202.202 0 01-.143.06h-.135c-.13 0-.193-.068-.193-.205V29.6c0-.559-.366-.84-1.101-.84h-1.617v1.916c0 .137-.063.204-.192.204h-.137c-.054 0-.1-.02-.14-.06a.204.204 0 01-.062-.144v-4.527a.2.2 0 01.062-.145.181.181 0 01.14-.064h2.012c1.088 0 1.628.452 1.628 1.349zM24.805 28.408c0-.928-.369-1.523-1.107-1.79a2.526 2.526 0 00-.824-.123c-.616 0-1.091.164-1.432.494-.339.331-.508.803-.508 1.42 0 .596.162 1.07.488 1.428l.028.018c.353.356.83.539 1.424.539.6 0 1.069-.181 1.414-.54.347-.354.517-.837.517-1.446zm.547 0c0 .399-.055.744-.166 1.045a2.29 2.29 0 01-.495.808c-.206.206-.471.376-.79.497-.297.114-.641.173-1.027.173-.774 0-1.377-.224-1.814-.667-.44-.444-.659-1.06-.659-1.856 0-.78.222-1.382.668-1.805h-.006c.42-.428 1.026-.641 1.811-.641.766 0 1.365.213 1.802.641.45.444.676 1.046.676 1.805zM30.307 30.675c0 .054-.016.1-.057.145l-.134.06h-.21a.18.18 0 01-.159-.087v.007l-2.966-3.912v3.787c0 .054-.023.1-.06.145l-.14.06h-.137c-.053 0-.1-.02-.139-.06a.201.201 0 01-.062-.145v-4.527c0-.055.02-.104.062-.145a.18.18 0 01.139-.064h.2c.047 0 .103.032.157.089v-.006c.384.518.94 1.251 1.669 2.191l.73.947c.218.282.409.536.575.758v-3.77c0-.14.07-.21.204-.21h.137l.134.065c.04.041.057.09.057.145v4.527M36.438 30.675c0 .054-.02.1-.065.145a.207.207 0 01-.145.06h-.136c-.136 0-.202-.068-.202-.205v-3.5l-1.732 3.597c-.032.072-.092.107-.179.107h-.152c-.079 0-.138-.035-.17-.107l-1.733-3.598v3.501c0 .054-.019.1-.062.145a.211.211 0 01-.145.06h-.139c-.134 0-.197-.068-.197-.205v-4.527c0-.14.063-.21.197-.21h.225c.081 0 .139.037.172.113l1.934 4.02 1.922-4.02a.2.2 0 01.18-.112h.217c.054 0 .1.02.145.064a.19.19 0 01.065.145v4.527M41.025 30.675c0 .054-.018.1-.056.145a.183.183 0 01-.138.06h-3.14c-.127 0-.192-.068-.192-.205v-4.527c0-.14.065-.21.193-.21h3.104c.053 0 .1.021.139.065.036.041.057.09.057.145v.128l-.057.14a.175.175 0 01-.139.062h-2.777v1.568h2.44c.13 0 .192.068.192.203v.118l-.054.145a.176.176 0 01-.138.066h-2.44v1.764h2.812l.135.063.059.14v.13M45.882 30.675c0 .054-.016.1-.056.145a.185.185 0 01-.137.06h-.21a.172.172 0 01-.156-.087v.007l-2.966-3.912v3.787a.2.2 0 01-.062.145l-.14.06h-.139a.188.188 0 01-.138-.06.21.21 0 01-.063-.145v-4.527c0-.055.023-.104.063-.145a.18.18 0 01.138-.064h.203c.048 0 .1.032.158.089v-.006c.384.518.94 1.251 1.667 2.191l.733.947c.215.282.406.536.574.758v-3.77c0-.14.066-.21.2-.21h.138c.053 0 .097.021.137.065a.2.2 0 01.056.145v4.527M50.466 26.276l-.062.14-.138.062h-1.473v4.197c0 .137-.068.204-.201.204h-.137c-.13 0-.194-.067-.194-.204v-4.197h-1.473c-.13 0-.196-.064-.196-.202v-.128c0-.14.066-.21.196-.21h3.478l.138.065c.042.041.062.09.062.145v.128M53.385 28.855l-.868-2.017-.9 2.017h1.768zm1.359 1.83c0 .13-.073.194-.216.194h-.144c-.097 0-.16-.041-.194-.121l-.581-1.37h-2.227l-.606 1.375c-.046.077-.108.116-.178.116h-.166c-.133 0-.2-.064-.2-.194l.028-.096-.006.01 1.99-4.534c.047-.087.11-.126.184-.126h.18c.094 0 .156.039.186.126l1.92 4.524.03.096zM58.668 30.675c0 .137-.07.204-.204.204h-2.828c-.133 0-.197-.067-.197-.204v-4.527c0-.14.064-.21.197-.21h.135c.129 0 .192.07.192.21v4.194h2.501c.054 0 .102.02.14.06l.064.142v.131M4.167 34.488c0 .788-.237 1.403-.71 1.842-.446.414-1.053.62-1.82.62H.204a.186.186 0 01-.14-.061.194.194 0 01-.063-.145v-4.528c0-.054.02-.104.063-.142a.195.195 0 01.14-.065h1.679c.732 0 1.308.226 1.718.679.38.418.567 1.019.567 1.8zm-.533 0c0-1.293-.585-1.937-1.76-1.937H.54v3.86h1.104c.984 0 1.602-.36 1.863-1.085.086-.244.127-.525.127-.838zM8.663 36.744a.198.198 0 01-.058.145l-.134.06h-3.14c-.13 0-.193-.07-.193-.205v-4.528c0-.137.062-.207.192-.207h3.105l.136.065a.193.193 0 01.056.142v.129a.202.202 0 01-.056.143l-.136.063h-2.78v1.565h2.442c.129 0 .193.068.193.204v.114a.224.224 0 01-.056.147l-.137.067H5.654v1.762h2.817l.132.065.06.14v.129M12.682 32.345c0 .136-.07.206-.203.206H9.965v1.565h2.125c.131 0 .194.068.194.204v.114c0 .142-.063.214-.194.214H9.965v2.096c0 .136-.066.205-.194.205h-.13c-.13 0-.193-.07-.193-.205v-4.528c0-.137.063-.207.193-.207h2.838c.133 0 .203.07.203.207v.129M16.881 36.744a.21.21 0 01-.056.145.18.18 0 01-.138.06h-3.138c-.13 0-.194-.07-.194-.205v-4.528c0-.137.064-.207.194-.207h3.103a.18.18 0 01.136.065c.04.038.06.088.06.142v.129a.2.2 0 01-.06.143.182.182 0 01-.136.063h-2.78v1.565h2.445c.128 0 .195.068.195.204v.114a.209.209 0 01-.062.147l-.133.067h-2.445v1.762h2.815l.135.065.06.14v.129M21.738 36.744c0 .057-.019.101-.056.145l-.137.06h-.208a.17.17 0 01-.158-.086v.005l-2.967-3.91v3.786a.21.21 0 01-.061.145.188.188 0 01-.141.06h-.137a.204.204 0 01-.2-.206l.001-4.527c0-.054.02-.104.059-.142.044-.04.088-.065.14-.065h.202c.048 0 .1.031.157.088v-.005c.386.517.94 1.25 1.668 2.192l.73.946c.219.282.41.534.579.758v-3.772c0-.137.066-.207.2-.207h.136l.137.065a.2.2 0 01.056.142v4.528M26.659 35.639c0 .485-.234.847-.696 1.084-.36.184-.76.277-1.2.277-.591 0-1.066-.111-1.414-.335-.46-.291-.69-.74-.69-1.345v-.073c0-.14.067-.206.201-.206h.137c.133 0 .2.066.2.206v.043c0 .782.523 1.174 1.566 1.174.384 0 .692-.064.933-.185.289-.145.432-.362.432-.654 0-.205-.055-.365-.175-.484-.088-.092-.24-.171-.45-.239a2.84 2.84 0 00-.295-.08l-.609-.138c-.56-.125-.947-.25-1.157-.364-.428-.234-.64-.584-.64-1.048 0-.875.61-1.313 1.83-1.313 1.28 0 1.928.509 1.942 1.524 0 .13-.066.195-.203.195h-.135c-.13 0-.196-.06-.203-.181-.028-.554-.3-.877-.818-.962a3.88 3.88 0 00-.583-.035c-.865 0-1.298.257-1.298.772 0 .249.11.438.33.567.14.085.43.166.87.247.801.158 1.337.322 1.61.495.343.224.515.577.515 1.058M31.193 36.744c0 .057-.02.101-.058.145a.173.173 0 01-.137.06H27.86c-.127 0-.195-.07-.195-.205v-4.528c0-.137.068-.207.195-.207h3.102l.135.065a.188.188 0 01.06.142v.129c0 .054-.02.102-.06.143l-.135.063h-2.78v1.565h2.443c.129 0 .193.068.193.204v.114c0 .056-.02.105-.056.147a.173.173 0 01-.137.067h-2.442v1.762h2.815l.133.065.062.14v.129M38.314 32.345c0 .136-.068.206-.2.206H35.6v1.565h2.124c.13 0 .196.068.196.204v.114c0 .142-.065.214-.196.214H35.6v2.096c0 .136-.066.205-.195.205h-.129c-.13 0-.195-.07-.195-.205v-4.528c0-.137.065-.207.195-.207h2.837c.132 0 .2.07.2.207v.129M42.936 35.07c0 .977-.378 1.582-1.131 1.815a2.822 2.822 0 01-.839.115c-.64 0-1.126-.153-1.459-.458-.346-.32-.517-.815-.517-1.487v-2.847c0-.133.067-.199.202-.199h.136c.13 0 .194.066.194.199v2.84c0 .944.482 1.416 1.444 1.416.956 0 1.438-.467 1.438-1.389v-2.867c0-.133.062-.199.2-.199h.135c.13 0 .197.066.197.199v2.863M48.065 36.744c0 .057-.02.101-.058.145l-.137.06h-.208a.175.175 0 01-.161-.086v.005l-2.962-3.91v3.786a.205.205 0 01-.065.145.183.183 0 01-.14.06h-.137a.181.181 0 01-.139-.06.199.199 0 01-.062-.145v-4.528c0-.054.02-.104.062-.142a.19.19 0 01.14-.065h.2c.05 0 .1.031.16.088v-.005c.384.517.937 1.25 1.666 2.192l.73.946c.22.282.408.534.578.758v-3.772c0-.137.069-.207.203-.207h.135l.137.065a.196.196 0 01.058.142v4.528M52.755 34.488c0-1.293-.587-1.937-1.76-1.937h-1.336v3.86h1.105c.982 0 1.604-.36 1.86-1.085a2.53 2.53 0 00.13-.838zm.53 0c0 .788-.238 1.403-.71 1.842-.445.414-1.052.62-1.82.62H49.32l-.14-.061a.203.203 0 01-.06-.145v-4.528c0-.054.02-.104.06-.142l.14-.065H51c.733 0 1.305.226 1.717.679.379.418.568 1.019.568 1.8zM52.229 16.345c.206.486.603.923 1.315 1.115v.003l.013.002c.912.148 1.918 0 3.046-.36 4.869-1.563 12.004-7.184 23.794-10.975h.006l.018-.006.047-.014C76.43 1.22 69.751-1 63.378 1.05c-6.761 2.17-11.077 8.477-11.15 15.295"></path><path d="M51.657 16.554s.304 3.589 3.909 3.323c0 0 4.398-.06 13.452-3.763C79 12.028 85.245 11.929 86.111 12.38l4.52-7.87s-12.64 2.153-22.697 7.757c-10.89 6.064-14.91 8.088-16.277 4.286"></path><path d="M53.174 19.873s2.137 1.771 10.506-1.2c-.777.312 24.02-8.632 40.514-2.292l-10.357 7.48s-4.07-3.835-21.585-2.78c0 0-16.783 1.205-19.078-1.208"></path><path d="M53.545 20.792s1.605 1.43 11.371 1.115c9.761-.313 23.704 1.523 29.733 5.068L84.33 32.574s-3.51-4.096-15.992-6.844c-12.476-2.746-14.794-4.938-14.794-4.938"></path><path d="M53.96 21.826s2.58 2.495 8.703 5.53c6.126 3.031 9.523 7.038 9.888 7.783l9.025-2.106s-7.536-5.345-18.435-7.956c0 0-7.83-2.216-9.18-3.25M54.753 32.999l.087-.003.074-.018.05-.043.02-.083-.017-.072-.044-.04-.062-.02-.07-.004h-.18v.283h.142zm.06-.396c.104 0 .183.022.233.063.05.043.075.107.075.192 0 .08-.021.139-.066.177a.286.286 0 01-.166.066l.253.395h-.148l-.24-.385h-.144v.385h-.137v-.893h.34zm-.62.703a.611.611 0 001.145 0 .681.681 0 00.047-.26.66.66 0 00-.178-.461.613.613 0 00-.686-.135.612.612 0 00-.329.341.704.704 0 000 .515zm-.125-.56a.747.747 0 01.7-.459.74.74 0 01.53.218.75.75 0 01.223.541.768.768 0 01-.222.548.746.746 0 01-.532.218.76.76 0 01-.76-.766.75.75 0 01.061-.3zM135.154 17.178h6.793c1.162 0 2.129-.251 2.872-.746.844-.543 1.25-1.327 1.25-2.4s-.406-1.858-1.242-2.396c-.732-.48-1.692-.722-2.854-.722h-6.819v6.264zm0 9.195h6.83c1.298 0 2.387-.272 3.232-.808.95-.609 1.414-1.49 1.414-2.692 0-1.269-.477-2.175-1.455-2.77-.822-.522-1.926-.785-3.294-.785h-6.727v7.055zm6.538 2.14h-8.063a.614.614 0 01-.607-.62v-18.5c0-.343.272-.62.607-.62h8.396c1.697 0 3.116.406 4.217 1.207 1.303.957 1.96 2.365 1.96 4.188 0 1.72-.741 3.043-2.206 3.95 1.816.88 2.766 2.49 2.766 4.726 0 1.986-.806 3.505-2.398 4.511-1.214.77-2.784 1.158-4.672 1.158zM159.573 28.706c-2.556 0-4.493-.607-5.757-1.803-1.342-1.262-2.027-3.261-2.027-5.94V9.393c0-.343.275-.62.61-.62h.916c.335 0 .61.277.61.62v11.542c0 3.84 1.793 5.628 5.648 5.628 3.852 0 5.647-1.752 5.647-5.517V9.394c0-.344.273-.62.608-.62h.916c.337 0 .609.276.609.62v11.623c0 2.645-.691 4.625-2.056 5.888-1.259 1.194-3.187 1.801-5.724 1.801M178.645 28.706c-2.293 0-4.172-.454-5.586-1.35-1.78-1.157-2.678-2.966-2.678-5.384v-.463c0-.344.272-.622.608-.622h.916c.335 0 .608.278.608.622v.354c0 4.213 3.514 4.7 6.157 4.7 1.443 0 2.655-.236 3.602-.701 1.17-.583 1.742-1.452 1.742-2.663 0-.838-.193-1.445-.59-1.855-.356-.384-.977-.713-1.856-.988-.483-.158-1.657-.448-3.59-.889-2.228-.508-3.71-.973-4.53-1.422-1.668-.958-2.508-2.37-2.508-4.204 0-4.348 3.926-5.26 7.22-5.26 3.43 0 7.538 1.091 7.629 6.285a.616.616 0 01-.609.631h-.915a.614.614 0 01-.608-.585c-.09-1.687-.623-2.799-1.632-3.4-.841-.525-2.138-.788-3.864-.788-5.088 0-5.088 2.345-5.088 3.117 0 1.02.412 1.734 1.294 2.244.632.365 1.769.708 3.376 1.02 3.174.622 5.249 1.276 6.345 2 1.363.878 2.06 2.285 2.06 4.179 0 1.932-.925 3.402-2.746 4.37-1.321.696-2.921 1.052-4.757 1.052M191.218 28.513h-.916a.614.614 0 01-.608-.62v-18.5c0-.343.273-.62.608-.62h.916c.335 0 .609.277.609.62v18.5c0 .343-.274.62-.61.62M196.898 28.513h-.916a.614.614 0 01-.608-.62v-18.5c0-.343.273-.62.608-.62h1.07c.194 0 .377.094.492.256 1.416 1.981 3.563 4.854 6.386 8.538a845.161 845.161 0 015.306 7.07V9.394c0-.344.272-.62.608-.62h.916c.337 0 .61.276.61.62v18.5a.613.613 0 01-.61.62h-.003l-1.087-.006a.6.6 0 01-.48-.246L197.506 12.56v15.333c0 .343-.271.62-.608.62M228.394 28.513h-12.87a.614.614 0 01-.607-.62v-18.5c0-.343.272-.62.608-.62h12.743c.336 0 .608.277.608.62v.901c0 .342-.272.62-.608.62h-11.22v6.264h9.87c.337 0 .61.277.61.619v.9c0 .342-.273.621-.61.621h-9.87v7.055h11.346c.336 0 .61.278.61.621v.9c0 .342-.274.62-.61.62M240.297 28.706c-2.293 0-4.172-.454-5.586-1.35-1.78-1.158-2.68-2.967-2.68-5.384v-.463c0-.344.272-.622.61-.622h.916c.335 0 .609.278.609.622v.354c0 4.213 3.514 4.7 6.156 4.7 1.444 0 2.656-.236 3.602-.701 1.172-.582 1.743-1.452 1.743-2.663 0-.838-.194-1.445-.59-1.855-.358-.384-.978-.713-1.857-.988-.485-.158-1.659-.448-3.59-.889-2.228-.508-3.71-.973-4.531-1.422-1.666-.958-2.507-2.37-2.507-4.204 0-4.348 3.927-5.26 7.22-5.26 3.43 0 7.537 1.091 7.63 6.284a.625.625 0 01-.175.447.598.598 0 01-.433.185h-.916a.612.612 0 01-.608-.585c-.091-1.686-.624-2.799-1.634-3.4-.84-.525-2.137-.788-3.863-.788-5.089 0-5.089 2.345-5.089 3.117 0 1.02.41 1.734 1.295 2.244.633.364 1.769.708 3.375 1.02 3.174.622 5.25 1.276 6.345 2 1.364.878 2.059 2.285 2.059 4.179 0 1.933-.923 3.403-2.744 4.37-1.322.696-2.922 1.052-4.757 1.052M259.09 28.706c-2.292 0-4.172-.454-5.587-1.35-1.779-1.158-2.677-2.966-2.677-5.384v-.463c0-.344.273-.622.61-.622h.913c.336 0 .608.278.608.622v.354c0 4.213 3.516 4.7 6.16 4.7 1.442 0 2.655-.236 3.6-.701 1.172-.582 1.741-1.452 1.741-2.663 0-.838-.192-1.445-.587-1.855-.358-.384-.98-.713-1.856-.988-.489-.16-1.663-.449-3.591-.889-2.226-.507-3.708-.972-4.53-1.422-1.668-.957-2.507-2.37-2.507-4.204 0-4.348 3.924-5.26 7.22-5.26 3.43 0 7.536 1.091 7.628 6.285a.622.622 0 01-.175.446.595.595 0 01-.433.185h-.916a.614.614 0 01-.608-.585c-.09-1.687-.624-2.799-1.633-3.4-.84-.525-2.137-.788-3.862-.788-5.09 0-5.09 2.345-5.09 3.117 0 1.02.412 1.733 1.294 2.244.635.365 1.77.708 3.376 1.02 3.175.622 5.25 1.276 6.344 2 1.365.878 2.06 2.285 2.06 4.179 0 1.932-.924 3.402-2.746 4.37-1.32.696-2.92 1.052-4.755 1.052M118.502 24.429h-1.066a.68.68 0 01-.672-.686V19.36h-4.978a.678.678 0 01-.673-.684v-.997c0-.376.301-.683.673-.683h4.978v-4.291c0-.377.301-.684.672-.684h1.066c.37 0 .672.307.672.684v4.291h5.008c.37 0 .671.307.671.683v.997a.678.678 0 01-.671.684h-5.008v4.382a.68.68 0 01-.672.686"></path></g></svg> 