<svg width="21" height="24" viewBox="0 0 21 24" fill="none" xmlns="http://www.w3.org/2000/svg">
<path d="M0.857143 3.42871C0.629814 3.42871 0.411797 3.51902 0.251051 3.67976C0.090306 3.84051 0 4.05853 0 4.28585V12.0001H1.71429V4.28585C1.71429 4.05853 1.62398 3.84051 1.46323 3.67976C1.30249 3.51902 1.08447 3.42871 0.857143 3.42871Z" fill="#323232"/>
<path d="M18.8571 24.0001H17.1428V21.4287C17.1414 20.2925 16.6895 19.2032 15.886 18.3998C15.0826 17.5963 13.9933 17.1444 12.8571 17.143H7.71423C6.57801 17.1444 5.48871 17.5963 4.68528 18.3998C3.88185 19.2032 3.42988 20.2925 3.42852 21.4287V24.0001H1.71423V21.4287C1.71605 19.838 2.34877 18.3129 3.4736 17.1881C4.59842 16.0632 6.12349 15.4305 7.71423 15.4287H12.8571C14.4478 15.4305 15.9729 16.0632 17.0977 17.1881C18.2226 18.3129 18.8553 19.838 18.8571 21.4287V24.0001Z" fill="#323232"/>
<path d="M0 0V1.71429H4.28571V7.71429C4.28571 9.30558 4.91786 10.8317 6.04307 11.9569C7.16829 13.0821 8.69442 13.7143 10.2857 13.7143C11.877 13.7143 13.4031 13.0821 14.5284 11.9569C15.6536 10.8317 16.2857 9.30558 16.2857 7.71429V1.71429H20.5714V0H0ZM6 1.71429H14.5714V4.28571H6V1.71429ZM10.2857 12C9.14907 12 8.05898 11.5485 7.25526 10.7447C6.45153 9.94102 6 8.85093 6 7.71429V6H14.5714V7.71429C14.5714 8.85093 14.1199 9.94102 13.3162 10.7447C12.5124 11.5485 11.4224 12 10.2857 12Z" fill="#323232"/>
</svg>
