<svg width="18" height="21" viewBox="0 0 18 21" fill="none" xmlns="http://www.w3.org/2000/svg">
<path d="M17 21H15.5V18.9C15.4988 17.9721 15.1033 17.0825 14.4003 16.4264C13.6973 15.7702 12.7442 15.4011 11.75 15.4H7.25C6.2558 15.4011 5.30267 15.7702 4.59966 16.4264C3.89666 17.0825 3.50119 17.9721 3.5 18.9V21H2V18.9C2.00159 17.6009 2.55522 16.3554 3.53944 15.4368C4.52367 14.5182 5.8581 14.0015 7.25 14H11.75C13.1419 14.0015 14.4763 14.5182 15.4606 15.4368C16.4448 16.3554 16.9984 17.6009 17 18.9V21Z" fill="#58595B"/>
<path d="M1 3C0.734784 3 0.48043 3.08429 0.292893 3.23431C0.105357 3.38434 0 3.58783 0 3.8V11H2V3.8C2 3.58783 1.89464 3.38434 1.70711 3.23431C1.51957 3.08429 1.26522 3 1 3Z" fill="#58595B"/>
<path d="M0 0V1.5H3.75V6.75C3.75 8.14239 4.30312 9.47774 5.28769 10.4623C6.27226 11.4469 7.60761 12 9 12C10.3924 12 11.7277 11.4469 12.7123 10.4623C13.6969 9.47774 14.25 8.14239 14.25 6.75V1.5H18V0H0ZM5.25 1.5H12.75V3.75H5.25V1.5ZM9 10.5C8.00544 10.5 7.05161 10.1049 6.34835 9.40165C5.64509 8.69839 5.25 7.74456 5.25 6.75V5.25H12.75V6.75C12.75 7.74456 12.3549 8.69839 11.6517 9.40165C10.9484 10.1049 9.99456 10.5 9 10.5Z" fill="#58595B"/>
</svg>
