<svg width="24" height="24" viewBox="0 0 24 24" fill="none" xmlns="http://www.w3.org/2000/svg">
<path d="M22.7992 17.2294C23.5703 15.6381 23.9801 13.896 23.9993 12.1278C24.0185 10.3596 23.6466 8.60895 22.9102 7.00126C22.1738 5.39357 21.0911 3.96854 19.7397 2.82815C18.3882 1.68776 16.8013 0.860209 15.0927 0.404729C15.0726 0.398347 15.0522 0.392851 15.0316 0.388258C13.1565 -0.100898 11.1908 -0.128261 9.30281 0.308511C7.41482 0.745283 5.66083 1.63317 4.19106 2.89614C4.14008 2.93016 4.09377 2.9707 4.0533 3.01673C2.2277 4.62946 0.936419 6.75982 0.351239 9.12441C-0.23394 11.489 -0.085279 13.9757 0.777447 16.2537C1.64017 18.5318 3.17606 20.4931 5.1808 21.8769C7.18553 23.2606 9.56407 24.0012 12 24C12.0871 24 12.174 23.9986 12.2607 23.9967L12.2651 23.9969L12.2686 23.9966C14.4509 23.9457 16.5781 23.3013 18.4217 22.1325C20.2654 20.9637 21.7558 19.3147 22.7328 17.3627C22.7346 17.36 22.7366 17.3575 22.7382 17.3548C22.7626 17.3151 22.783 17.2731 22.7992 17.2294ZM22.5882 12C22.5894 13.3575 22.3282 14.7024 21.8189 15.9607L16.1201 12.4555C15.9244 12.3348 15.7054 12.2567 15.4774 12.2264L12.7928 11.8645C12.4704 11.8226 12.1429 11.8764 11.8509 12.0194C11.5589 12.1623 11.3155 12.388 11.1508 12.6682H10.0167C9.97251 12.6681 9.92926 12.6555 9.89183 12.632C9.85441 12.6085 9.82431 12.575 9.80494 12.5353L9.35717 11.6106C9.24873 11.3847 9.08989 11.1868 8.89287 11.032C8.69585 10.8772 8.46593 10.7698 8.22082 10.7179L7.17059 10.492L7.81953 8.95154C7.83743 8.90882 7.86757 8.87236 7.90615 8.84673C7.94473 8.82111 7.99003 8.80747 8.03635 8.80754H10.5475C10.826 8.80741 11.0999 8.73678 11.3438 8.60225L12.7841 7.80696C12.895 7.74563 12.9985 7.67182 13.0926 7.58696L16.2585 4.72355C16.5361 4.4744 16.7205 4.13801 16.7811 3.76993C16.8417 3.40185 16.775 3.0241 16.5919 2.69908L16.4113 2.37555C18.2531 3.22157 19.8139 4.5778 20.9086 6.28357C22.0034 7.98934 22.5863 9.97316 22.5882 12ZM14.411 1.68896L15.3593 3.38731C15.3854 3.43375 15.3949 3.48772 15.3862 3.5403C15.3776 3.59288 15.3512 3.64092 15.3115 3.67649L12.1462 6.53919C12.1326 6.55155 12.1176 6.56229 12.1015 6.57119L10.6612 7.36649C10.6264 7.38575 10.5873 7.39587 10.5475 7.3959H8.03647C7.71229 7.39547 7.39523 7.4909 7.12515 7.67019C6.85507 7.84948 6.64404 8.10463 6.51859 8.40354L5.766 10.1901L5.69965 10.176C5.66105 10.1678 5.62515 10.15 5.59528 10.1242C5.56542 10.0984 5.54256 10.0655 5.52882 10.0285L4.17683 6.42037C4.15563 6.36402 4.15694 6.30167 4.18047 6.24625L5.16353 3.92167C6.4236 2.85337 7.91634 2.095 9.52218 1.70729C11.128 1.31957 12.8023 1.3133 14.411 1.68896ZM1.41177 12C1.40956 10.1602 1.88972 8.352 2.80436 6.75566C2.81851 6.80985 2.83539 6.8633 2.85494 6.91578L4.20671 10.524C4.30304 10.7829 4.4632 11.0132 4.67232 11.1937C4.88144 11.3741 5.13276 11.4988 5.40294 11.5562L6.04906 11.6951L6.05282 11.6959L7.92411 12.0981C7.95913 12.1055 7.99198 12.1209 8.02013 12.143C8.04828 12.1651 8.07098 12.1934 8.08647 12.2257L8.53423 13.1505C8.66996 13.4283 8.88074 13.6626 9.14274 13.8269C9.40473 13.9911 9.70747 14.0788 10.0167 14.0799H10.5096L9.4567 16.4426C9.32536 16.7369 9.28331 17.0632 9.33576 17.3812C9.38821 17.6991 9.53286 17.9947 9.75176 18.2312L11.9635 20.6233C11.9885 20.6505 12.0068 20.6831 12.0169 20.7186C12.027 20.7541 12.0287 20.7915 12.0218 20.8278L11.6822 22.5831C8.93142 22.4974 6.32177 21.3452 4.40509 19.3702C2.48842 17.3952 1.41499 14.7522 1.41177 12ZM13.1308 22.5278L13.4078 21.096C13.4564 20.8422 13.4449 20.5805 13.3741 20.332C13.3033 20.0835 13.1752 19.855 13.0001 19.6649L10.7885 17.2728C10.7572 17.239 10.7365 17.1968 10.7289 17.1514C10.7214 17.1059 10.7274 17.0593 10.7461 17.0172L12.2472 13.6494L12.2475 13.6486L12.3579 13.401C12.3787 13.3546 12.4139 13.3162 12.4583 13.2914C12.5027 13.2667 12.5538 13.2569 12.6042 13.2635L15.2893 13.6255C15.3217 13.6298 15.3528 13.6409 15.3806 13.6581L21.1996 17.2372C20.3688 18.6942 19.2043 19.9334 17.8016 20.8531C16.399 21.7728 14.7983 22.3467 13.1308 22.5278Z" fill="#323232"/>
</svg>
