<svg width="29" height="23" viewBox="0 0 29 23" fill="none" xmlns="http://www.w3.org/2000/svg">
<path d="M13.959 1.42788C13.963 0.744249 14.5743 0.140051 15.2521 0.158381C19.1316 0.155665 23.0104 0.155665 26.8899 0.157702C27.5765 0.127831 28.1824 0.744928 28.1938 1.42923C28.1931 4.59754 28.2059 7.76585 28.1945 10.9348C28.1952 11.6266 27.5819 12.2335 26.8986 12.2281C23.7797 12.2288 20.6615 12.2288 17.5432 12.2281C17.3395 12.2301 17.133 12.2098 16.9333 12.2573C16.8513 12.3863 16.7511 12.5024 16.6549 12.6205C15.7572 13.7169 14.852 14.8071 13.9617 15.9096C13.9543 11.0828 13.9576 6.25535 13.959 1.42788ZM17.0012 3.37896C16.8956 3.54868 16.9407 3.74623 17.0362 3.90713C17.1572 3.937 17.2796 3.96822 17.4054 3.96347C19.0657 3.96144 20.7267 3.96347 22.387 3.96279C22.6533 3.9594 22.925 3.98791 23.1859 3.91324C23.2465 3.79715 23.3426 3.67563 23.2989 3.53646C23.2767 3.35792 23.0884 3.25201 22.9237 3.26084C21.1288 3.25608 19.334 3.26219 17.5399 3.25812C17.3556 3.25744 17.1445 3.23572 17.0012 3.37896ZM17.0261 5.81069C16.8271 5.86907 16.71 6.12229 16.8203 6.30695C16.8829 6.4529 17.0557 6.50654 17.203 6.49907C19.9392 6.49907 22.6755 6.50043 25.4118 6.49839C25.6445 6.52554 25.8704 6.29541 25.7978 6.06051C25.7743 5.87722 25.5752 5.78964 25.4118 5.79372C22.7885 5.79032 20.1659 5.7944 17.5426 5.79168C17.3704 5.79372 17.1962 5.78014 17.0261 5.81069ZM17.0274 8.31166C16.6603 8.39381 16.7316 9.00751 17.1122 9.00004C19.8337 9.01905 22.5558 9.00004 25.278 9.00887C25.4367 9.01226 25.6203 9.0109 25.7299 8.87241C25.9222 8.67554 25.7554 8.27976 25.475 8.3008C22.7858 8.29198 20.0959 8.30148 17.406 8.29605C17.2796 8.29809 17.1519 8.28519 17.0274 8.31166Z" fill="#58595B"/>
<path d="M1.88286 7.21036C4.51894 7.12007 7.2189 7.52603 9.59945 8.71339C10.0635 8.96117 10.5382 9.20353 10.9471 9.54026C10.9706 9.54093 11.019 9.54229 11.0432 9.54297C11.7466 9.01141 12.5402 8.60816 13.3572 8.28909C13.3646 8.58168 13.3619 8.87496 13.3586 9.16823C12.7453 9.42417 12.1562 9.74188 11.6088 10.12C11.5187 10.1899 11.3674 10.2395 11.3976 10.3834C11.397 14.1865 11.4003 17.9902 11.3963 21.7939C12.2537 21.2366 13.1945 20.8191 14.1601 20.4925C15.8265 19.9637 17.5736 19.6976 19.3207 19.7057C19.3227 17.4098 19.322 15.1138 19.3213 12.8179C19.5876 12.8226 19.8546 12.8213 20.1216 12.8185C20.1196 15.3793 20.1196 17.9407 20.1223 20.5014C18.1015 20.4532 16.0572 20.6881 14.1427 21.3629C13.6558 21.5265 13.1938 21.7532 12.7217 21.9542C15.4345 21.9643 18.1472 21.9582 20.86 21.9576C20.8586 18.9114 20.8546 15.8647 20.862 12.8185C21.1612 12.8219 21.4611 12.8226 21.7611 12.8172C21.7591 16.2441 21.7725 19.6704 21.7543 23.0967C19.634 23.0845 17.5144 23.0947 15.3941 23.0913C14.5038 23.1008 13.6121 23.0723 12.7231 23.1049C12.3626 23.7606 11.629 24.1904 10.8839 24.1544C10.1825 24.1272 9.52951 23.7036 9.18588 23.0892C6.17792 23.0967 3.16862 23.0838 0.160661 23.0953C0.159988 18.3364 0.159988 13.5775 0.160661 8.81861C0.501603 8.81386 0.842545 8.82133 1.18349 8.8125C1.18685 13.194 1.18752 17.5754 1.18281 21.9569C3.87068 21.9596 6.55854 21.963 9.24573 21.9548C6.97547 20.815 4.39722 20.4464 1.88286 20.5007C1.88017 16.0704 1.88017 11.6407 1.88286 7.21036ZM2.67772 8.42351C2.67772 12.1152 2.67906 15.8069 2.67704 19.498C2.68041 19.57 2.68915 19.6419 2.70125 19.7139C3.84176 19.686 4.97756 19.8293 6.09655 20.037C7.67753 20.3683 9.24169 20.9005 10.6008 21.7973C10.6209 18.0174 10.5994 14.2374 10.6108 10.4574C10.6149 10.3658 10.6135 10.2578 10.5201 10.211C9.98679 9.82674 9.40779 9.51038 8.81064 9.23951C6.89477 8.3692 4.78389 8.03044 2.69453 7.99378C2.68444 8.13702 2.67839 8.28026 2.67772 8.42351Z" fill="#58595B"/>
</svg>
