<svg width="26" height="24" viewBox="0 0 26 24" fill="none" xmlns="http://www.w3.org/2000/svg">
<path d="M20.1143 6.17143V1.07143C20.114 0.787368 20.0035 0.515035 19.8071 0.314174C19.6107 0.113313 19.3444 0.000326107 19.0667 0H6.07619C5.79844 0.000326107 5.53216 0.113313 5.33576 0.314174C5.13937 0.515035 5.02889 0.787368 5.02857 1.07143V6.17143L0 9.84461V24H25.1429V9.84461L20.1143 6.17143ZM22.926 10.3322L20.1143 12.2121V8.27786L22.926 10.3322ZM6.70476 1.71429H18.4381V13.333L15.4437 15.3354L13.0039 14.0416L10.3448 15.3544L6.70476 13.0942V1.71429ZM12.9771 15.9584L23.4667 21.5211V22.2857H1.67619V21.538L12.9771 15.9584ZM1.67619 11.9772L8.54564 16.2429L1.67619 19.6344V11.9772ZM17.1519 16.2415L23.4667 12.0186V19.5901L17.1519 16.2415ZM5.02857 8.27786V12.0536L2.23489 10.3187L5.02857 8.27786Z" fill="#323232"/>
</svg>
