<svg width="142" height="50" viewBox="0 0 142 50" fill="none" xmlns="http://www.w3.org/2000/svg">
<path fill-rule="evenodd" clip-rule="evenodd" d="M19.2225 29.3008C19.223 29.5894 19.1112 29.8668 18.9106 30.0744C18.8171 30.1798 18.7024 30.2644 18.5741 30.3226C18.4457 30.3808 18.3065 30.4113 18.1656 30.4121H1.05551C0.352744 30.4121 0 30.0389 0 29.3008V4.61143C0 3.8719 0.352744 3.49873 1.05551 3.49873H17.9709C18.1116 3.49847 18.2507 3.52851 18.3788 3.58679C18.5068 3.64507 18.6209 3.73023 18.7131 3.83649C18.9215 4.06257 19.0264 4.31998 19.0264 4.61143V5.32373C19.0263 5.61327 18.914 5.89151 18.7131 6.10004C18.6207 6.20605 18.5067 6.29096 18.3786 6.349C18.2505 6.40704 18.1115 6.43686 17.9709 6.43644H2.81923V14.969H16.1281C16.8336 14.969 17.1864 15.3408 17.1864 16.0831V16.715C17.1839 17.0098 17.0723 17.2931 16.8731 17.5104C16.7833 17.6215 16.6698 17.7112 16.5409 17.7729C16.412 17.8346 16.271 17.8669 16.1281 17.8672H2.81923V27.4771H18.1656C18.4244 27.4771 18.6641 27.5915 18.8874 27.8312C19.1122 28.0709 19.2225 28.3202 19.2225 28.5844V29.3008ZM43.6299 16.9942C43.6299 9.95298 40.4361 6.43644 34.0404 6.43644H26.7609V27.4771H32.7902C38.1399 27.4771 41.5202 25.5009 42.9258 21.5567C43.397 20.2357 43.6299 18.7144 43.6299 16.9942ZM46.5308 16.9942C46.5308 21.2816 45.2384 24.6307 42.6561 27.0359C40.2264 29.2885 36.925 30.4135 32.7493 30.4135H24.9236C24.7799 30.413 24.6379 30.3826 24.5065 30.3242C24.3752 30.2658 24.2575 30.1807 24.1609 30.0744C24.0547 29.9753 23.97 29.8556 23.9119 29.7225C23.8538 29.5895 23.8236 29.4459 23.8231 29.3008V4.61143C23.8231 4.31998 23.9362 4.06257 24.1609 3.83649C24.2573 3.7299 24.375 3.64475 24.5064 3.58656C24.6377 3.52838 24.7799 3.49845 24.9236 3.49873H34.0813C38.0759 3.49873 41.1934 4.73129 43.4365 7.19232C45.4971 9.46677 46.5295 12.7354 46.5295 16.9942H46.5308ZM68.228 5.32373C68.228 6.06599 67.863 6.43644 67.1316 6.43644H53.4332V14.969H65.0192C65.722 14.969 66.0747 15.3408 66.0747 16.0831V16.715C66.0747 17.4818 65.722 17.8672 65.0192 17.8672H53.4332V29.3008C53.4332 30.0389 53.0804 30.4121 52.3736 30.4121H51.6695C50.9667 30.4121 50.6139 30.0389 50.6139 29.3008V4.61143C50.6139 3.8719 50.9667 3.49873 51.6695 3.49873H67.1316C67.863 3.49873 68.228 3.8719 68.228 4.61143V5.32373ZM4.80358 41.3853C4.80358 41.4588 4.7777 41.5215 4.72459 41.5828L4.54072 41.6645H0.262855C0.0858025 41.6645 0 41.5719 0 41.3853V35.2198C0 35.0291 0.0858025 34.9338 0.262855 34.9338H4.48897C4.56115 34.9338 4.62516 34.9624 4.67556 35.0223C4.72595 35.0781 4.75319 35.1449 4.75319 35.2198V35.3941L4.67556 35.5848C4.65301 35.6122 4.62446 35.6341 4.59211 35.6488C4.55975 35.6634 4.52446 35.6704 4.48897 35.6692H0.705487V37.8047H4.03136C4.20705 37.8047 4.29557 37.8974 4.29557 38.0812V38.2419L4.21522 38.4394L4.03136 38.5293H0.705487V40.9318H4.54072L4.71778 41.0176L4.80358 41.2082V41.3853ZM11.4213 41.3853C11.4213 41.4588 11.3899 41.5215 11.3368 41.5828C11.3138 41.6088 11.2855 41.6295 11.2538 41.6436C11.2221 41.6577 11.1877 41.6648 11.153 41.6645H10.8683C10.8251 41.6659 10.7824 41.6556 10.7445 41.6347C10.7066 41.6139 10.6751 41.5832 10.6531 41.546V41.5555L6.61224 36.2276V41.3853C6.61224 41.4588 6.58636 41.5215 6.53052 41.5828L6.33985 41.6645H6.15327C6.08108 41.6645 6.01707 41.6373 5.96396 41.5828C5.93699 41.5574 5.91547 41.5268 5.90071 41.4929C5.88596 41.4589 5.87828 41.4223 5.87815 41.3853V35.2198C5.87815 35.1449 5.90539 35.0781 5.96396 35.0223C5.98732 34.9946 6.01653 34.9724 6.0495 34.9573C6.08248 34.9422 6.11838 34.9347 6.15463 34.9351H6.42702C6.49375 34.9351 6.56321 34.9787 6.64357 35.0563V35.0482C7.16519 35.7537 7.92243 36.752 8.91257 38.0322L9.90951 39.322C10.2051 39.706 10.4638 40.052 10.694 40.3543V35.2198C10.694 35.0291 10.7839 34.9338 10.9664 34.9338H11.153C11.2251 34.9338 11.2864 34.9624 11.3368 35.0223C11.3899 35.0781 11.4213 35.1449 11.4213 35.2198V41.3853ZM18.3726 35.2198L18.3481 35.3342L18.3563 35.3246L15.8095 41.4983C15.7795 41.6073 15.6951 41.6631 15.5643 41.6631H15.36C15.2306 41.6631 15.1421 41.6073 15.0958 41.4983L12.4918 35.3342L12.4672 35.2198C12.4672 35.0291 12.5571 34.9338 12.7464 34.9338H12.9344C13.0583 34.9338 13.1441 34.9882 13.1877 35.1067L15.4594 40.4633L17.6617 35.1067C17.7026 34.9882 17.7911 34.9351 17.915 34.9351H18.1002C18.2855 34.9351 18.3726 35.0305 18.3726 35.2211V35.2198ZM19.8531 41.3853C19.8531 41.5719 19.7605 41.6631 19.578 41.6631H19.4731C19.2429 41.6631 19.1272 41.5719 19.1272 41.3853V35.2198C19.1272 35.0291 19.2429 34.9338 19.4731 34.9338H19.578C19.7605 34.9338 19.8531 35.0291 19.8531 35.2198V41.3853ZM25.8579 36.8024C25.8579 36.0492 25.3676 35.6692 24.3829 35.6692H22.0703V38.0417H24.2344C24.7247 38.0417 25.1061 37.9423 25.388 37.7475C25.5394 37.6425 25.6619 37.5009 25.744 37.3359C25.8262 37.1709 25.8653 36.9879 25.8579 36.8037V36.8024ZM26.5797 36.7724C26.5797 37.4983 26.3073 38.0376 25.7503 38.3904C26.2542 38.6832 26.5048 39.1803 26.5048 39.8872V41.3853C26.5048 41.4588 26.4735 41.5215 26.4136 41.5828C26.3881 41.6086 26.3578 41.6291 26.3243 41.6431C26.2909 41.6571 26.255 41.6644 26.2188 41.6645H26.0349C25.8579 41.6645 25.7721 41.5719 25.7721 41.3853V39.9212C25.7721 39.1599 25.2736 38.7772 24.2726 38.7772H22.0703V41.3867C22.0703 41.5732 21.9845 41.6645 21.8088 41.6645H21.6222C21.5487 41.6645 21.486 41.6373 21.4316 41.5828C21.4052 41.5573 21.3842 41.5268 21.3697 41.4932C21.3553 41.4595 21.3476 41.4233 21.3471 41.3867V35.2211C21.3471 35.1842 21.3545 35.1477 21.3691 35.1137C21.3836 35.0798 21.4048 35.0491 21.4316 35.0237C21.455 34.996 21.4842 34.9739 21.5172 34.9588C21.5501 34.9437 21.586 34.9361 21.6222 34.9365H24.3625C25.8443 34.9365 26.5797 35.5521 26.5797 36.7738V36.7724ZM33.783 38.2978C33.783 37.0339 33.2805 36.2235 32.2754 35.8599C31.9131 35.7423 31.5339 35.6857 31.1531 35.6924C30.3142 35.6924 29.6672 35.9157 29.2028 36.3652C28.7411 36.816 28.511 37.4588 28.511 38.2991C28.511 39.1109 28.7316 39.7564 29.1756 40.244L29.2137 40.2685C29.6945 40.7534 30.3441 41.0026 31.1531 41.0026C31.9703 41.0026 32.609 40.7561 33.0789 40.2671C33.5515 39.785 33.783 39.1272 33.783 38.2978ZM34.528 38.2978C34.528 38.8412 34.4531 39.3111 34.3019 39.721C34.1564 40.1308 33.9268 40.5057 33.6278 40.8215C33.3472 41.102 32.9863 41.3335 32.5518 41.4983C32.1473 41.6536 31.6788 41.734 31.1531 41.734C30.099 41.734 29.2777 41.4289 28.6826 40.8255C28.0833 40.2208 27.785 39.3819 27.785 38.2978C27.785 37.2355 28.0874 36.4156 28.6948 35.8395H28.6866C29.2587 35.2565 30.084 34.9665 31.1531 34.9665C32.1964 34.9665 33.0122 35.2565 33.6073 35.8395C34.2202 36.4442 34.528 37.2641 34.528 38.2978ZM41.2765 41.3853C41.2765 41.4588 41.2547 41.5215 41.1988 41.5828L41.0163 41.6645H40.7303C40.687 41.6657 40.6441 41.6553 40.606 41.6345C40.568 41.6137 40.5362 41.5831 40.5138 41.546V41.5555L36.4742 36.2276V41.3853C36.4742 41.4588 36.4429 41.5215 36.3925 41.5828L36.2019 41.6645H36.0153C35.9431 41.6645 35.8791 41.6373 35.826 41.5828C35.7993 41.5573 35.7781 41.5266 35.7636 41.4927C35.749 41.4587 35.7416 41.4222 35.7415 41.3853V35.2198C35.7415 35.1449 35.7688 35.0781 35.826 35.0223C35.8492 34.9948 35.8782 34.9727 35.9109 34.9576C35.9436 34.9425 35.9792 34.9349 36.0153 34.9351H36.2877C36.3517 34.9351 36.4279 34.9787 36.5015 35.0563V35.0482C37.0245 35.7537 37.7817 36.752 38.7746 38.0322L39.7688 39.322C40.0657 39.706 40.3258 40.052 40.5519 40.3543V35.2198C40.5519 35.0291 40.6472 34.9338 40.8297 34.9338H41.0163L41.1988 35.0223C41.2533 35.0781 41.2765 35.1449 41.2765 35.2198V41.3853ZM49.6265 41.3853C49.6265 41.4588 49.5993 41.5215 49.538 41.5828C49.4855 41.6349 49.4145 41.6642 49.3405 41.6645H49.1553C48.9701 41.6645 48.8802 41.5719 48.8802 41.3853V36.6185L46.5213 41.5174C46.4777 41.6155 46.396 41.6631 46.2775 41.6631H46.0705C45.9629 41.6631 45.8826 41.6155 45.839 41.5174L43.4787 36.6171V41.3853C43.4787 41.4588 43.4528 41.5215 43.3943 41.5828C43.3414 41.6344 43.2707 41.6637 43.1968 41.6645H43.0075C42.825 41.6645 42.7392 41.5719 42.7392 41.3853V35.2198C42.7392 35.0291 42.825 34.9338 43.0075 34.9338H43.3139C43.4242 34.9338 43.5032 34.9842 43.5482 35.0877L46.1822 40.5627L48.7998 35.0877C48.8223 35.0418 48.8572 35.0032 48.9005 34.9762C48.9439 34.9493 48.9939 34.935 49.045 34.9351H49.3405C49.4141 34.9351 49.4767 34.9624 49.538 35.0223C49.5662 35.0469 49.5886 35.0772 49.6039 35.1113C49.6192 35.1454 49.6269 35.1824 49.6265 35.2198V41.3853ZM55.8738 41.3853C55.8738 41.4588 55.8493 41.5215 55.7975 41.5828C55.7738 41.6089 55.7447 41.6298 55.7123 41.6439C55.6799 41.6579 55.6449 41.665 55.6096 41.6645H51.3331C51.1601 41.6645 51.0716 41.5719 51.0716 41.3853V35.2198C51.0716 35.0291 51.1601 34.9338 51.3344 34.9338H55.5619C55.6341 34.9338 55.6981 34.9624 55.7512 35.0223C55.8002 35.0781 55.8288 35.1449 55.8288 35.2198V35.3941L55.7512 35.5848C55.728 35.6122 55.699 35.634 55.6662 35.6487C55.6334 35.6633 55.5978 35.6703 55.5619 35.6692H51.7798V37.8047H55.1029C55.28 37.8047 55.3644 37.8974 55.3644 38.0812V38.2419L55.2909 38.4394C55.2683 38.4676 55.2397 38.4903 55.2072 38.5058C55.1746 38.5214 55.139 38.5294 55.1029 38.5293H51.7798V40.9318H55.6096L55.7934 41.0176L55.8738 41.2082V41.3853ZM62.4887 41.3853C62.4887 41.4588 62.467 41.5215 62.4125 41.5828C62.3888 41.6086 62.3599 41.6293 62.3278 41.6433C62.2957 41.6574 62.261 41.6646 62.2259 41.6645H61.9399C61.897 41.6661 61.8545 41.6559 61.8171 41.635C61.7796 41.6141 61.7486 41.5833 61.7274 41.546V41.5555L57.6879 36.2276V41.3853C57.6879 41.4222 57.6805 41.4588 57.666 41.4927C57.6514 41.5267 57.6302 41.5573 57.6034 41.5828L57.4128 41.6645H57.2235C57.1882 41.6646 57.1533 41.6573 57.121 41.6433C57.0886 41.6292 57.0595 41.6086 57.0355 41.5828C56.9823 41.5306 56.9515 41.4598 56.9497 41.3853V35.2198C56.9497 35.1449 56.981 35.0781 57.0355 35.0223C57.0586 34.9949 57.0874 34.9729 57.1198 34.9579C57.1523 34.9428 57.1877 34.9351 57.2235 34.9351H57.4999C57.5653 34.9351 57.6361 34.9787 57.7151 35.0563V35.0482C58.2381 35.7537 58.9954 36.752 59.9855 38.0322L60.9838 39.322C61.2766 39.706 61.5367 40.052 61.7656 40.3543V35.2198C61.7656 35.0291 61.8554 34.9338 62.0379 34.9338H62.2259C62.2981 34.9338 62.358 34.9624 62.4125 35.0223C62.4377 35.0485 62.4575 35.0794 62.4706 35.1133C62.4837 35.1472 62.4899 35.1834 62.4887 35.2198V41.3853ZM68.7319 35.3941L68.6475 35.5848L68.4595 35.6692H66.4534V41.3853C66.4534 41.5719 66.3608 41.6631 66.1796 41.6631H65.993C65.816 41.6631 65.7288 41.5719 65.7288 41.3853V35.6692H63.7227C63.5456 35.6692 63.4557 35.5821 63.4557 35.3941V35.2198C63.4557 35.0291 63.5456 34.9338 63.7227 34.9338H68.4595L68.6475 35.0223C68.7047 35.0781 68.7319 35.1449 68.7319 35.2198V35.3941ZM72.7074 38.9066L71.5252 36.1595L70.2995 38.9066H72.7074ZM74.5583 41.3989C74.5583 41.576 74.4589 41.6631 74.2641 41.6631H74.068C73.9359 41.6631 73.8501 41.6073 73.8038 41.4983L73.0125 39.6325H69.9794L69.1541 41.5052C69.0915 41.61 69.007 41.6631 68.9117 41.6631H68.6856C68.5045 41.6631 68.4132 41.576 68.4132 41.3989L68.4513 41.2682L68.4432 41.2818L71.1534 35.1067C71.2174 34.9882 71.3033 34.9351 71.404 34.9351H71.6492C71.7772 34.9351 71.8616 34.9882 71.9025 35.1067L74.5174 41.2682L74.5583 41.3989ZM79.9026 41.3853C79.9026 41.5719 79.8072 41.6631 79.6247 41.6631H75.7732C75.592 41.6631 75.5049 41.5719 75.5049 41.3853V35.2198C75.5049 35.0291 75.592 34.9338 75.7732 34.9338H75.957C76.1327 34.9338 76.2185 35.0291 76.2185 35.2198V40.9318H79.6247C79.6983 40.9318 79.7636 40.959 79.8154 41.0135L79.9026 41.2069V41.3853ZM4.94931 46.5784C4.94931 44.8174 4.15257 43.9403 2.55228 43.9403H0.73545V49.1974H2.23904C3.57919 49.1974 4.42087 48.7071 4.77634 47.7197C4.89347 47.3874 4.94931 47.0047 4.94931 46.5784ZM5.67522 46.5784C5.67522 47.6516 5.35244 48.4892 4.70824 49.0871C4.10082 49.6509 3.27412 49.9315 2.2295 49.9315H0.277837C0.241985 49.9319 0.20645 49.9248 0.173581 49.9104C0.140712 49.8961 0.111257 49.875 0.0871645 49.8484C0.0598002 49.8234 0.0380175 49.7928 0.0232342 49.7588C0.00845096 49.7248 0.000998502 49.688 0.00136194 49.6509V43.4841C0.00136194 43.4105 0.0286008 43.3424 0.0871645 43.2907C0.111249 43.2637 0.140582 43.242 0.173369 43.2267C0.206155 43.2115 0.241703 43.2031 0.277837 43.2021H2.56454C3.56149 43.2021 4.34597 43.5099 4.90436 44.1269C5.4219 44.6962 5.67659 45.5147 5.67659 46.5784H5.67522ZM11.7985 49.6509C11.7994 49.6875 11.7929 49.7239 11.7793 49.7578C11.7657 49.7918 11.7454 49.8226 11.7195 49.8484L11.537 49.9301H7.26053C7.08347 49.9301 6.99767 49.8348 6.99767 49.6509V43.4841C6.99767 43.2975 7.08211 43.2021 7.25916 43.2021H11.488L11.6732 43.2907C11.6984 43.316 11.7182 43.3462 11.7313 43.3795C11.7444 43.4128 11.7506 43.4483 11.7495 43.4841V43.6598C11.7507 43.7322 11.7233 43.8022 11.6732 43.8545L11.488 43.9403H7.7018V46.0718H11.0277C11.2034 46.0718 11.2905 46.1644 11.2905 46.3496V46.5048C11.2901 46.5786 11.263 46.6497 11.2143 46.7051L11.0277 46.7963H7.70044V49.1961H11.537L11.7168 49.2846L11.7985 49.4753V49.6509ZM17.2722 43.6598C17.2722 43.845 17.1768 43.9403 16.9957 43.9403H13.5718V46.0718H16.4659C16.6443 46.0718 16.7301 46.1644 16.7301 46.3496V46.5048C16.7301 46.6982 16.6443 46.7963 16.4659 46.7963H13.5718V49.6509C13.5718 49.8362 13.4819 49.9301 13.3076 49.9301H13.1305C12.9535 49.9301 12.8677 49.8348 12.8677 49.6509V43.4841C12.8677 43.2975 12.9535 43.2021 13.1305 43.2021H16.9957C17.1768 43.2021 17.2722 43.2975 17.2722 43.4841V43.6598ZM22.991 49.6509C22.9918 49.7241 22.9645 49.7948 22.9147 49.8484C22.8911 49.8748 22.8621 49.8958 22.8297 49.9099C22.7973 49.924 22.7621 49.9309 22.7268 49.9301H18.453C18.2759 49.9301 18.1888 49.8348 18.1888 49.6509V43.4841C18.1888 43.2975 18.2759 43.2021 18.453 43.2021H22.6791C22.7145 43.2026 22.7495 43.2108 22.7814 43.2261C22.8134 43.2414 22.8417 43.2634 22.8643 43.2907C22.9188 43.3424 22.946 43.4105 22.946 43.4841V43.6598C22.9461 43.696 22.9389 43.7319 22.9248 43.7654C22.9108 43.7988 22.8902 43.8291 22.8643 43.8545C22.8413 43.8811 22.8129 43.9026 22.781 43.9174C22.749 43.9322 22.7143 43.94 22.6791 43.9403H18.8929V46.0718H22.2229C22.3972 46.0718 22.4884 46.1644 22.4884 46.3496V46.5048C22.4879 46.5801 22.4575 46.6521 22.404 46.7051L22.2229 46.7963H18.8929V49.1961H22.7268L22.9106 49.2846L22.9923 49.4753V49.6509H22.991ZM29.606 49.6509C29.606 49.7286 29.5801 49.7885 29.5297 49.8484L29.3431 49.9301H29.0598C29.0166 49.9327 28.9735 49.9231 28.9355 49.9024C28.8974 49.8817 28.866 49.8507 28.8446 49.813V49.8198L24.8037 44.4946V49.6509C24.8027 49.725 24.7729 49.7958 24.7207 49.8484C24.6962 49.8748 24.6664 49.8957 24.6333 49.9097C24.6003 49.9238 24.5646 49.9308 24.5286 49.9301H24.342C24.2688 49.9287 24.1991 49.8984 24.1481 49.8459C24.0971 49.7934 24.0689 49.7228 24.0696 49.6496L24.071 43.4841C24.071 43.4105 24.0982 43.3424 24.1514 43.2907C24.2113 43.2362 24.2712 43.2021 24.342 43.2021H24.6172C24.6825 43.2021 24.7533 43.2444 24.831 43.322V43.3152C25.3567 44.0193 26.1112 45.0176 27.1027 46.3006L28.0969 47.589C28.3952 47.973 28.6553 48.3162 28.8855 48.6213V43.4841C28.8855 43.2975 28.9754 43.2021 29.1579 43.2021H29.3431L29.5297 43.2907C29.5797 43.3425 29.6071 43.412 29.606 43.4841V49.6509ZM36.3081 48.146C36.3081 48.8065 35.9894 49.2996 35.3602 49.6223C34.8699 49.8729 34.3251 49.9996 33.7258 49.9996C32.9209 49.9996 32.274 49.8484 31.8 49.5434C31.1736 49.147 30.8603 48.5355 30.8603 47.7115V47.6121C30.8603 47.4214 30.9516 47.3316 31.1341 47.3316H31.3206C31.5018 47.3316 31.593 47.4214 31.593 47.6121V47.6707C31.593 48.7357 32.3053 49.2696 33.7258 49.2696C34.2488 49.2696 34.6683 49.1824 34.9965 49.0176C35.3901 48.8202 35.5849 48.5246 35.5849 48.1269C35.5849 47.8477 35.51 47.6298 35.3465 47.4677C35.2267 47.3424 35.0197 47.2349 34.7337 47.1422C34.6018 47.0987 34.4677 47.0624 34.3319 47.0333L33.5025 46.8453C32.7398 46.6751 32.2127 46.5049 31.9267 46.3496C31.3438 46.0309 31.0551 45.5542 31.0551 44.9223C31.0551 43.7306 31.8858 43.134 33.5474 43.134C35.2907 43.134 36.1732 43.8273 36.1923 45.2096C36.1923 45.3867 36.1024 45.4752 35.9158 45.4752H35.732C35.5549 45.4752 35.465 45.3935 35.4555 45.2287C35.4174 44.4742 35.0469 44.0343 34.3414 43.9185C34.0783 43.8827 33.8129 43.8668 33.5474 43.8708C32.3693 43.8708 31.7796 44.2209 31.7796 44.9223C31.7796 45.2614 31.9294 45.5188 32.2291 45.6945C32.4197 45.8103 32.8147 45.9206 33.414 46.0309C34.5049 46.2461 35.2349 46.4694 35.6067 46.7051C36.0738 47.0101 36.3081 47.4909 36.3081 48.146ZM42.4831 49.6509C42.4831 49.7286 42.4559 49.7885 42.4041 49.8484C42.3811 49.8751 42.3524 49.8963 42.3201 49.9105C42.2878 49.9246 42.2528 49.9314 42.2176 49.9301H37.9438C37.7708 49.9301 37.6782 49.8348 37.6782 49.6509V43.4841C37.6782 43.2975 37.7708 43.2021 37.9438 43.2021H42.1685L42.3524 43.2907C42.3789 43.3153 42.3999 43.3453 42.414 43.3786C42.4281 43.4119 42.4349 43.4479 42.4341 43.4841V43.6598C42.4341 43.7333 42.4069 43.7987 42.3524 43.8545L42.1685 43.9403H38.3823V46.0718H41.7096C41.8852 46.0718 41.9724 46.1644 41.9724 46.3496V46.5048C41.9724 46.5811 41.9452 46.6479 41.8961 46.7051C41.8741 46.7335 41.8458 46.7565 41.8134 46.7724C41.7811 46.7882 41.7456 46.7964 41.7096 46.7963H38.3837V49.1961H42.2176L42.3987 49.2846L42.4831 49.4753V49.6509ZM52.1815 43.6598C52.1815 43.845 52.0889 43.9403 51.9092 43.9403H48.4852V46.0718H51.378C51.5551 46.0718 51.6449 46.1644 51.6449 46.3496V46.5048C51.6449 46.6982 51.5564 46.7963 51.378 46.7963H48.4852V49.6509C48.4852 49.8362 48.3953 49.9301 48.2197 49.9301H48.044C47.8669 49.9301 47.7784 49.8348 47.7784 49.6509V43.4841C47.7784 43.2975 47.8669 43.2021 48.044 43.2021H51.9078C52.0876 43.2021 52.1802 43.2975 52.1802 43.4841V43.6598H52.1815ZM58.4765 47.371C58.4765 48.7017 57.9616 49.5256 56.9361 49.843C56.5653 49.9524 56.18 50.0052 55.7934 49.9996C54.9218 49.9996 54.2599 49.7912 53.8063 49.3758C53.3351 48.94 53.1022 48.2658 53.1022 47.3506V43.4732C53.1022 43.292 53.1935 43.2021 53.3773 43.2021H53.5626C53.7396 43.2021 53.8268 43.292 53.8268 43.4732V47.3411C53.8268 48.6268 54.4832 49.2696 55.7934 49.2696C57.0954 49.2696 57.7519 48.6336 57.7519 47.3779V43.4732C57.7519 43.292 57.8363 43.2021 58.0243 43.2021H58.2082C58.3852 43.2021 58.4765 43.292 58.4765 43.4732V47.3724V47.371ZM65.4619 49.6509C65.4619 49.7286 65.4346 49.7885 65.3829 49.8484L65.1963 49.9301H64.913C64.8692 49.9327 64.8256 49.9231 64.7869 49.9024C64.7482 49.8818 64.716 49.8508 64.6937 49.813V49.8198L60.6597 44.4946V49.6509C60.6588 49.6881 60.6505 49.7247 60.6353 49.7586C60.6201 49.7925 60.5983 49.8231 60.5711 49.8484C60.5471 49.8749 60.5176 49.896 60.4847 49.9101C60.4518 49.9242 60.4162 49.931 60.3805 49.9301H60.1939C60.1583 49.931 60.1229 49.9241 60.0903 49.91C60.0576 49.8959 60.0283 49.8749 60.0046 49.8484C59.9778 49.823 59.9565 49.7924 59.9419 49.7584C59.9274 49.7244 59.92 49.6879 59.9201 49.6509V43.4841C59.9201 43.4105 59.9474 43.3424 60.0046 43.2907C60.0284 43.2634 60.0577 43.2414 60.0905 43.2262C60.1233 43.2109 60.159 43.2027 60.1952 43.2021H60.4676C60.5357 43.2021 60.6038 43.2444 60.6855 43.322V43.3152C61.2085 44.0193 61.9617 45.0176 62.9545 46.3006L63.9487 47.589C64.2484 47.973 64.5044 48.3162 64.736 48.6213V43.4841C64.736 43.2975 64.8299 43.2021 65.0124 43.2021H65.1963L65.3829 43.2907C65.4084 43.3159 65.4285 43.3461 65.4421 43.3793C65.4557 43.4125 65.4624 43.4482 65.4619 43.4841V49.6509ZM71.8494 46.5784C71.8494 44.8174 71.0499 43.9403 69.4524 43.9403H67.6328V49.1974H69.1378C70.4752 49.1974 71.3223 48.7071 71.671 47.7197C71.7938 47.3519 71.8536 46.9661 71.848 46.5784H71.8494ZM72.5712 46.5784C72.5712 47.6516 72.2471 48.4892 71.6042 49.0871C70.9982 49.6509 70.1715 49.9315 69.1255 49.9315H67.1711L66.9804 49.8484C66.9544 49.8226 66.9338 49.7918 66.9197 49.7579C66.9057 49.724 66.8986 49.6876 66.8987 49.6509V43.4841C66.8987 43.4105 66.926 43.3424 66.9804 43.2907L67.1711 43.2021H69.4592C70.4575 43.2021 71.2365 43.5099 71.7976 44.1269C72.3138 44.6962 72.5712 45.5147 72.5712 46.5784ZM71.133 21.8686C71.4136 22.5305 71.9543 23.1257 72.924 23.3872V23.3913L72.9417 23.394C74.1838 23.5956 75.5539 23.394 77.0902 22.9037C83.7215 20.775 93.4389 13.1195 109.496 7.95637H109.504L109.529 7.9482L109.593 7.92913C104.093 1.26922 94.997 -1.7543 86.3173 1.03769C77.1092 3.99311 71.2311 12.5829 71.1316 21.8686" fill="#2D637F"/>
<path fill-rule="evenodd" clip-rule="evenodd" d="M70.3545 22.1533C70.3545 22.1533 70.7685 27.0413 75.6783 26.679C75.6783 26.679 81.6682 26.5973 93.9992 21.554C107.594 15.9891 116.099 15.8543 117.279 16.4685L123.435 5.75C123.435 5.75 106.22 8.68227 92.5229 16.3146C77.6913 24.5734 72.2163 27.33 70.3545 22.1519" fill="#2D637F"/>
<path fill-rule="evenodd" clip-rule="evenodd" d="M72.4199 26.6734C72.4199 26.6734 75.3304 29.0854 86.7285 25.0391C85.6703 25.464 119.442 13.2828 141.906 21.9175L127.801 32.1048C127.801 32.1048 122.258 26.8818 98.4031 28.3186C98.4031 28.3186 75.5456 29.9598 72.4199 26.6734Z" fill="#2D637F"/>
<path fill-rule="evenodd" clip-rule="evenodd" d="M72.9252 27.9253C72.9252 27.9253 75.1111 29.8729 88.4119 29.4439C101.706 29.0176 120.695 31.5181 128.907 36.3462L114.853 43.9717C114.853 43.9717 110.072 38.3932 93.0724 34.6506C76.0808 30.9107 72.9238 27.9253 72.9238 27.9253" fill="#2D637F"/>
<path fill-rule="evenodd" clip-rule="evenodd" d="M73.4902 29.3337C73.4902 29.3337 77.0041 32.7318 85.3432 36.8653C93.6865 40.9934 98.313 46.4507 98.8102 47.4653L111.102 44.5971C111.102 44.5971 100.838 37.3175 85.9942 33.7614C85.9942 33.7614 75.3302 30.7434 73.4916 29.3351L73.4902 29.3337ZM74.5703 44.5507L74.6887 44.5467L74.7895 44.5221L74.8576 44.4636L74.8849 44.3505L74.8617 44.2525L74.8018 44.198L74.7173 44.1708L74.622 44.1653H74.3769V44.5507H74.5703ZM74.652 44.0114C74.7936 44.0114 74.9012 44.0414 74.9693 44.0972C75.0374 44.1558 75.0715 44.2429 75.0715 44.3587C75.0715 44.4677 75.0429 44.548 74.9816 44.5998C74.9177 44.6531 74.8385 44.6846 74.7555 44.6897L75.1001 45.2276H74.8985L74.5716 44.7033H74.3755V45.2276H74.1889V44.0114H74.652ZM73.8076 44.9689C73.8668 45.1278 73.9733 45.2649 74.1126 45.3617C74.252 45.4584 74.4176 45.5103 74.5873 45.5103C74.7569 45.5103 74.9226 45.4584 75.0619 45.3617C75.2013 45.2649 75.3077 45.1278 75.367 44.9689C75.4112 44.8561 75.433 44.7358 75.431 44.6148C75.4346 44.382 75.3476 44.1569 75.1886 43.9869C75.0702 43.8647 74.9172 43.7816 74.7502 43.7487C74.5832 43.7159 74.4102 43.7348 74.2543 43.803C74.1525 43.8468 74.0604 43.9104 73.9835 43.9901C73.9065 44.0699 73.8463 44.1642 73.8062 44.2675C73.7176 44.4929 73.719 44.7435 73.8076 44.9689ZM73.6373 44.2062C73.7156 44.0187 73.8483 43.8589 74.0182 43.7475C74.1881 43.6361 74.3875 43.5781 74.5907 43.581C74.7247 43.5801 74.8576 43.6058 74.9815 43.6568C75.1055 43.7078 75.218 43.783 75.3125 43.8779C75.4099 43.9741 75.487 44.0889 75.5392 44.2155C75.5914 44.3421 75.6176 44.4779 75.6162 44.6148C75.6176 44.753 75.5917 44.8901 75.5398 45.0182C75.4879 45.1463 75.4111 45.2628 75.3139 45.3611C75.2188 45.4561 75.1057 45.5312 74.9814 45.5822C74.857 45.6331 74.7237 45.6589 74.5893 45.658C74.4527 45.658 74.3174 45.631 74.1913 45.5784C74.0652 45.5259 73.9507 45.4489 73.8545 45.352C73.7583 45.255 73.6822 45.1399 73.6307 45.0134C73.5791 44.8869 73.5532 44.7514 73.5542 44.6148C73.5536 44.4743 73.5818 44.3352 73.6373 44.2062Z" fill="#2D637F"/>
</svg>
