<?xml version="1.0" encoding="utf-8"?>
<!-- Generator: Adobe Illustrator 26.0.0, SVG Export Plug-In . SVG Version: 6.00 Build 0)  -->
<svg version="1.1" id="Layer_1" xmlns="http://www.w3.org/2000/svg" xmlns:xlink="http://www.w3.org/1999/xlink" x="0px" y="0px"
	 viewBox="0 0 404.7 50" style="enable-background:new 0 0 404.7 50;" xml:space="preserve">
<style type="text/css">
	.st0{fill:none;stroke:#325B6F;stroke-width:0.5;}
	.st1{fill:#2D637F;}
	.st2{fill-rule:evenodd;clip-rule:evenodd;fill:#2D637F;}
</style>
<line class="st0" x1="152.5" y1="3.3" x2="152.5" y2="50.3"/>
<g>
	<path class="st1" d="M176.2,14.8h1c0.4,0.1,0.8,0,1.2,0.1c1.7,0.2,3.3,0.8,4.6,1.9c0.7,0.6,1.3,1.2,1.7,2c0.2,0.2,0.2,0.5,0,0.8
		c-0.2,0.2-0.4,0.4-0.6,0.6c-0.2,0.2-0.5,0.4-0.8,0.4c-0.4,0-0.6-0.3-0.8-0.6c-0.9-1.4-2.4-2.3-4-2.6c-1.6-0.3-3.3-0.2-4.8,0.3
		c-1.6,0.6-2.9,1.7-3.7,3.2c-0.9,1.6-1.2,3.5-1.2,5.3c0,1.9,0.5,3.9,1.7,5.5c0.9,1.2,2.1,2.1,3.5,2.4c1.3,0.3,2.7,0.4,4,0.2
		c1.8-0.3,3.4-1.3,4.4-2.8c0.2-0.3,0.6-0.5,1-0.3c0.3,0.2,0.6,0.4,0.9,0.6c0.2,0.2,0.4,0.4,0.4,0.7s-0.3,0.6-0.4,0.8
		c-1.1,1.4-2.6,2.6-4.3,3.1c-0.9,0.3-1.9,0.4-2.9,0.5H176c-0.1,0-0.2,0-0.3,0c-1.8-0.1-3.7-0.6-5.1-1.7c-1.7-1.2-2.9-3-3.5-4.9
		c-0.4-1.3-0.6-2.7-0.6-4.1c0-1.8,0.2-3.5,0.9-5.2c0.6-1.4,1.5-2.7,2.6-3.7c1.6-1.4,3.8-2.2,5.9-2.3C176,14.8,176.1,14.8,176.2,14.8
		z"/>
	<path class="st1" d="M310,14.8h0.9c1.6,0.1,3.3,0.4,4.7,1.3c1.2,0.7,2.1,1.6,2.8,2.8c0.2,0.3,0.1,0.8-0.3,1s-0.8,0.7-1.3,0.6
		c-0.4,0-0.5-0.4-0.7-0.7c-0.8-1.2-2.1-2-3.6-2.3c-1.6-0.3-3.2-0.3-4.8,0.1c-1.6,0.5-3,1.6-3.9,3c-0.9,1.3-1.2,2.9-1.3,4.5
		c-0.1,1,0,2.1,0.2,3.1c0.3,1.6,1,3.1,2.2,4.3c1.1,1.2,2.7,1.8,4.3,1.9c1.4,0.1,2.9,0,4.2-0.6c1.1-0.5,2-1.3,2.7-2.2
		c0.2-0.2,0.3-0.5,0.6-0.5c0.4-0.1,0.6,0.2,0.9,0.4c0.3,0.2,0.6,0.4,0.7,0.7c0,0.2,0,0.4-0.1,0.6c-1,1.5-2.3,2.7-4,3.3
		c-1.1,0.5-2.3,0.7-3.5,0.8h-1.2c-1.1-0.1-2.2-0.2-3.3-0.6c-1.6-0.6-3-1.6-4-2.9c-1-1.3-1.6-2.9-1.9-4.5c-0.3-1.9-0.3-3.9,0-5.8
		c0.3-1.5,0.8-2.9,1.7-4.1c0.8-1.2,1.9-2.2,3.1-2.9C306.6,15.2,308.3,14.9,310,14.8z"/>
	<path class="st1" d="M391.6,14.8h1c1.6,0.1,3.2,0.3,4.5,1.1c1.2,0.7,2.2,1.8,2.6,3.1c0.3,0.9,0.4,1.8,0.5,2.7
		c0,0.4-0.3,0.7-0.6,0.7c-0.4,0-0.7,0-1.1,0s-0.7-0.3-0.7-0.7c-0.1-0.8-0.2-1.6-0.5-2.3c-0.2-0.5-0.5-0.9-1-1.2
		c-0.7-0.5-1.5-0.7-2.3-0.9c-1.1-0.2-2.2-0.2-3.3-0.1c-0.9,0.1-1.8,0.3-2.6,0.8c-0.7,0.4-1.1,1.1-1.3,1.8c-0.2,0.9,0,1.9,0.6,2.6
		c0.6,0.6,1.5,0.9,2.3,1.2c1.7,0.5,3.4,0.7,5,1.2c1.4,0.4,2.9,0.8,4,1.8c1.2,1,1.8,2.7,1.8,4.2c0.1,1.6-0.6,3.2-1.8,4.1
		c-1.3,1-2.9,1.6-4.5,1.8c-0.3,0.1-0.7,0-1,0.1H392c-1.1-0.1-2.2-0.2-3.2-0.5c-1.4-0.4-2.8-1.2-3.6-2.5c-1-1.4-1.3-3.2-1.3-4.9
		c0-0.2,0.1-0.5,0.3-0.6c0.2-0.2,0.5-0.1,0.8-0.1s0.6-0.1,0.9,0.1c0.2,0.1,0.3,0.3,0.3,0.5c0,0.8,0,1.6,0.3,2.4
		c0.2,0.7,0.6,1.3,1.1,1.8c0.6,0.6,1.4,0.9,2.3,1.1c0.9,0.2,1.8,0.3,2.7,0.3c0.9,0,1.9-0.1,2.8-0.4c0.8-0.2,1.5-0.6,2.1-1.2
		c0.5-0.5,0.7-1.3,0.7-2s-0.1-1.4-0.5-1.9c-0.5-0.6-1.3-0.9-2-1.2c-2.5-0.8-5.2-1.2-7.7-2.1c-1.3-0.5-2.4-1.4-3-2.6
		c-0.6-1.1-0.6-2.5-0.4-3.7s0.9-2.4,1.9-3.1C387.9,15.1,389.8,14.9,391.6,14.8z"/>
	<path class="st1" d="M401.1,14.8h0.2c0.4,0,0.8,0.4,0.9,0.8c0,0.3,0,0.6-0.1,0.8c-0.3,0.5-1.1,0.6-1.5,0.3c-0.5-0.3-0.6-1-0.3-1.4
		C400.5,15,400.8,14.8,401.1,14.8z M401,15c-0.7,0.2-0.8,1.3-0.2,1.6c0.5,0.3,1.1,0,1.2-0.6C402.2,15.4,401.6,14.8,401,15z"/>
	<path class="st1" d="M189.1,15c0.4-0.1,0.7,0,1.1,0c0.4,0,0.8,0.3,0.7,0.8c0,6.2,0,12.3,0,18.5c3.6,0,7.2,0,10.8,0
		c0.3,0,0.7,0.3,0.7,0.6c0,0.4,0,0.8,0,1.2s-0.4,0.6-0.7,0.6c-4.1,0-8.3,0-12.4,0c-0.4,0-0.7-0.3-0.7-0.7c0-6.8,0-13.6,0-20.3
		C188.5,15.3,188.8,15,189.1,15z"/>
	<path class="st1" d="M205.4,15c0.4,0,0.8,0,1.2,0c0.3,0.1,0.6,0.4,0.6,0.7c0,6.7,0,13.4,0,20.2c0,0.3-0.1,0.5-0.3,0.6
		c-0.3,0.2-0.6,0.1-1,0.1c-0.3,0-0.7,0-0.9-0.2s-0.2-0.5-0.2-0.8c0-6.7,0-13.3,0-20C204.7,15.3,205.1,15,205.4,15z"/>
	<path class="st1" d="M211.2,15.1c0.3-0.3,0.8-0.2,1.2-0.2s0.9,0,1.2,0.4c2.6,5.8,5.2,11.6,7.7,17.4c2.6-5.7,5.1-11.5,7.7-17.2
		c0.1-0.2,0.2-0.4,0.5-0.5c0.4-0.1,0.8-0.1,1.2-0.1c0.3,0,0.6,0,0.8,0.3c0.2,0.2,0.1,0.5,0.1,0.8c0,6.6,0,13.3,0,19.9
		c0,0.4-0.3,0.6-0.7,0.7c-0.3,0-0.7,0-1,0s-0.6-0.3-0.7-0.6c0-0.3,0-0.5,0-0.8c0-4.8,0-9.5,0-14.3c-2.3,5.1-4.6,10.2-6.9,15.4
		c-0.2,0.3-0.5,0.4-0.8,0.3c-0.4,0-0.9,0.1-1.3-0.2c-0.4-0.8-0.7-1.6-1.1-2.4c-1.3-2.8-2.5-5.7-3.8-8.5c-0.7-1.6-1.4-3.1-2.1-4.7
		c0,5.1,0,10.1,0,15.2c0,0.3-0.4,0.6-0.7,0.6s-0.7,0-1,0c-0.4,0-0.7-0.4-0.7-0.8c0-6.6,0-13.2,0-19.8
		C211,15.7,210.9,15.4,211.2,15.1z"/>
	<path class="st1" d="M242.4,15.4c0.1-0.3,0.5-0.5,0.8-0.5c0.5,0,1-0.1,1.4,0.2c0.1,0.1,0.1,0.3,0.2,0.4c2.7,6.7,5.3,13.3,8,20
		c0.1,0.3,0.1,0.7-0.2,0.9s-0.7,0.2-1,0.2s-0.6,0.1-0.9-0.1c-0.2-0.1-0.3-0.3-0.3-0.4c-0.8-2-1.6-4-2.4-6c-3,0-6,0-8.9,0
		c-0.8,2-1.7,4.1-2.5,6.1c-0.1,0.4-0.6,0.5-1,0.4c-0.4,0-0.9,0.1-1.2-0.1c-0.3-0.2-0.3-0.6-0.2-0.9
		C236.9,28.9,239.7,22.2,242.4,15.4z M240.1,27.7c2.3,0,4.7,0,7,0c-1.1-2.9-2.3-5.7-3.4-8.6C242.5,22,241.2,24.8,240.1,27.7z"/>
	<path class="st1" d="M253.8,15.5c0.1-0.4,0.5-0.6,0.8-0.5c4.9,0,9.8,0,14.7,0c0.4,0,0.7,0.2,0.8,0.6c0,0.4,0,0.8,0,1.3
		c-0.1,0.3-0.3,0.6-0.7,0.6c-2.1,0-4.2,0-6.3,0c0,6.2,0,12.4,0,18.6c0,0.3-0.3,0.6-0.6,0.7c-0.3,0.1-0.6,0-0.9,0s-0.6,0-0.8-0.3
		c-0.2-0.3-0.2-0.6-0.2-0.9c0-6,0-12,0-18.1c-2.1,0-4.2,0-6.3,0c-0.3,0-0.7-0.3-0.7-0.6C253.8,16.3,253.8,15.9,253.8,15.5z"/>
	<path class="st1" d="M272.7,15.3c0.1-0.2,0.4-0.3,0.7-0.3c4.4,0,8.8,0,13.2,0c0.3,0,0.6,0.1,0.8,0.4c0.1,0.2,0.1,0.5,0.1,0.8
		s0.1,0.7-0.1,1c-0.1,0.1-0.3,0.3-0.5,0.3c-3.9,0-7.9,0-11.8,0c0,2.2,0,4.5,0,6.7c3.4,0,6.9,0,10.3,0c0.2,0,0.5,0.1,0.6,0.3
		c0.2,0.2,0.1,0.5,0.1,0.8s0,0.5,0,0.8c-0.1,0.3-0.4,0.5-0.7,0.5c-3.4,0-6.8,0-10.3,0c0,2.5,0,5.1,0,7.6c4,0,7.9,0,11.9,0
		c0.4,0,0.7,0.3,0.7,0.7c0,0.3,0,0.6,0,1c0,0.3-0.2,0.6-0.5,0.7c-0.2,0.1-0.4,0-0.6,0c-4.4,0-8.8,0-13.1,0c-0.4,0-0.8-0.4-0.7-0.8
		c0-6.6,0-13.2,0-19.8C272.6,15.8,272.5,15.5,272.7,15.3z"/>
	<path class="st1" d="M345.3,15.2c0.2-0.2,0.5-0.3,0.8-0.3c2.2,0,4.3,0,6.5,0c1.2,0,2.4,0,3.7,0.2h0.1c1.2,0.2,2.4,0.7,3.3,1.5
		c0.8,0.8,1.3,1.8,1.4,2.9c0.1,0.3,0.1,0.5,0.1,0.8c0.1,1.3-0.1,2.6-0.7,3.7c-0.4,0.8-1.1,1.5-1.8,2c1.3,0.9,2.1,2.4,2.2,4
		c0.1,0.9,0,1.9,0,2.8c0,1,0,2.1,0,3.1c0,0.2-0.1,0.5-0.3,0.6c-0.3,0.1-0.6,0.1-0.9,0.1c-0.2,0-0.5,0-0.7,0
		c-0.3-0.1-0.5-0.4-0.5-0.7c0-1.6,0-3.3,0-4.9c0-0.8-0.1-1.6-0.6-2.2c-0.4-0.6-1.1-0.9-1.8-1.1c-0.6-0.2-1.2-0.3-1.9-0.2
		c-2.3,0-4.5,0-6.8,0c0,2.7,0,5.4,0,8.1c0,0.3,0,0.6-0.1,0.8c-0.2,0.3-0.5,0.3-0.8,0.3s-0.6,0-0.9,0c-0.3-0.1-0.6-0.3-0.6-0.7
		c0-6.7,0-13.3,0-20C345.2,15.7,345.1,15.4,345.3,15.2z M347.6,17.4c0,2.5,0,5,0,7.6c2.1,0,4.3,0,6.4,0c0.6,0,1.2-0.1,1.8-0.2
		c1-0.2,2-0.8,2.6-1.7c0.4-0.6,0.5-1.4,0.5-2.1s-0.1-1.5-0.6-2.1c-0.3-0.5-0.8-0.8-1.2-1c-0.9-0.4-2-0.5-3-0.5
		C352,17.4,349.8,17.4,347.6,17.4z"/>
	<path class="st1" d="M365.2,15.2c0.2-0.2,0.5-0.2,0.8-0.2c2.3,0,4.6,0,6.9,0c1.8,0,3.7,0,5.3,0.9c0.9,0.5,1.8,1.3,2.2,2.3
		c0.3,0.7,0.5,1.4,0.6,2.2c0.1,1,0.1,1.9-0.2,2.9c-0.3,1.1-0.9,2-1.7,2.7c-1.3,1.1-3.1,1.7-4.8,1.7c-1,0.1-2,0-3.1,0
		c-1.3,0-2.6,0-3.9,0c0,2.8,0,5.5,0,8.3c0,0.4-0.4,0.7-0.8,0.7c-0.5,0-1,0.1-1.4-0.2c-0.3-0.3-0.2-0.8-0.2-1.2c0-6.3,0-12.6,0-18.9
		C365,16,364.9,15.5,365.2,15.2z M367.4,17.4c0,2.6,0,5.2,0,7.8c2.2,0,4.3,0,6.5,0c0.3,0,0.6,0,0.8,0c1-0.1,2-0.4,2.8-1.1
		c0.8-0.6,1.2-1.7,1.2-2.7c0-1.1-0.2-2.2-1-2.9c-0.8-0.7-1.9-1-2.9-1c-0.3-0.1-0.6,0-0.9,0C371.7,17.4,369.6,17.4,367.4,17.4z"/>
	<path class="st1" d="M326.6,16.2c1.6-0.8,3.4-1.2,5.2-1.1c1.8,0,3.6,0.3,5.2,1.1c1,0.6,2,1.3,2.7,2.3c1.1,1.3,1.7,3,2,4.7
		c0.3,1.8,0.3,3.7,0,5.5c-0.3,1.5-0.8,3-1.7,4.3c-0.8,1.1-1.9,2.1-3.1,2.7c-1.4,0.8-2.9,1.1-4.5,1.2h-1.2c-0.4-0.1-0.9-0.1-1.3-0.1
		c-1.5-0.2-3-0.8-4.3-1.7c-1.4-1.1-2.5-2.6-3.1-4.2c-0.6-1.6-0.8-3.3-0.8-4.9c-0.1-2.4,0.4-4.8,1.8-6.8
		C324.2,17.9,325.3,16.9,326.6,16.2z M330.2,17.6c-1.7,0.2-3.3,1-4.4,2.4c-1,1.2-1.5,2.8-1.7,4.4c-0.2,1.9-0.1,4,0.7,5.8
		c0.6,1.4,1.7,2.7,3,3.4c1.6,0.8,3.4,1,5.2,0.8c0.8-0.1,1.6-0.3,2.3-0.6c1.2-0.5,2.2-1.5,2.8-2.6c0.9-1.5,1.2-3.2,1.3-4.9
		c0-0.3,0-0.6,0-0.9c0-1.1-0.2-2.1-0.5-3.2c-0.4-1.2-1.1-2.2-2-3c-1.3-1.1-3-1.6-4.7-1.6c-0.2-0.1-0.5,0-0.7,0
		C331.1,17.5,330.6,17.5,330.2,17.6z"/>
	<path class="st1" d="M400.8,15.2c0.3,0,0.7-0.1,0.9,0.2c0,0.2,0,0.5-0.3,0.5c0.1,0.2,0.2,0.4,0.3,0.6c-0.4,0.1-0.4-0.5-0.7-0.5
		c0,0.2,0,0.4,0,0.5c-0.1,0-0.2,0-0.2,0C400.8,16.1,400.8,15.6,400.8,15.2z M401.1,15.4c0,0.1,0,0.2,0,0.4c0.2,0,0.5,0,0.5-0.2
		l-0.1-0.1C401.3,15.4,401.2,15.4,401.1,15.4z"/>
</g>
<path class="st2" d="M70.4,22.2c0,0,0.4,4.9,5.3,4.5c0,0,6-0.1,18.3-5.1c13.6-5.6,22.1-5.7,23.3-5.1l6.2-10.7
	c0,0-17.2,2.9-30.9,10.6C77.7,24.6,72.2,27.3,70.4,22.2"/>
<path class="st2" d="M72.4,26.7c0,0,2.9,2.4,14.3-1.6c-1.1,0.4,32.7-11.8,55.2-3.1l-14.1,10.2c0,0-5.5-5.2-29.4-3.8
	C98.4,28.3,75.5,30,72.4,26.7"/>
<path class="st2" d="M72.9,27.9c0,0,2.2,1.9,15.5,1.5c13.3-0.4,32.3,2.1,40.5,6.9L114.9,44c0,0-4.8-5.6-21.8-9.3
	C76.1,30.9,72.9,27.9,72.9,27.9"/>
<path class="st2" d="M73.5,29.3c0,0,3.5,3.4,11.9,7.5c8.3,4.1,13,9.6,13.5,10.6l12.3-2.9c0,0-10.3-7.3-25.1-10.8
	C86,33.8,75.3,30.8,73.5,29.3L73.5,29.3z M74.6,44.6l0.1,0l0.1,0l0.1-0.1l0-0.1l0-0.1l-0.1-0.1l-0.1,0l-0.1,0h-0.2v0.4H74.6z
	 M74.7,44c0.1,0,0.2,0,0.3,0.1c0.1,0.1,0.1,0.1,0.1,0.3c0,0.1,0,0.2-0.1,0.2c-0.1,0.1-0.1,0.1-0.2,0.1l0.3,0.5h-0.2l-0.3-0.5h-0.2
	v0.5h-0.2V44H74.7z M73.8,45c0.1,0.2,0.2,0.3,0.3,0.4c0.1,0.1,0.3,0.1,0.5,0.1c0.2,0,0.3-0.1,0.5-0.1c0.1-0.1,0.2-0.2,0.3-0.4
	c0-0.1,0.1-0.2,0.1-0.4c0-0.2-0.1-0.5-0.2-0.6c-0.1-0.1-0.3-0.2-0.4-0.2c-0.2,0-0.3,0-0.5,0.1c-0.1,0-0.2,0.1-0.3,0.2
	c-0.1,0.1-0.1,0.2-0.2,0.3C73.7,44.5,73.7,44.8,73.8,45z M73.6,44.2c0.1-0.2,0.2-0.3,0.4-0.5c0.2-0.1,0.4-0.2,0.6-0.2
	c0.1,0,0.3,0,0.4,0.1c0.1,0.1,0.2,0.1,0.3,0.2c0.1,0.1,0.2,0.2,0.2,0.3s0.1,0.3,0.1,0.4c0,0.1,0,0.3-0.1,0.4
	c-0.1,0.1-0.1,0.2-0.2,0.3c-0.1,0.1-0.2,0.2-0.3,0.2c-0.1,0.1-0.3,0.1-0.4,0.1c-0.1,0-0.3,0-0.4-0.1c-0.1-0.1-0.2-0.1-0.3-0.2
	c-0.1-0.1-0.2-0.2-0.2-0.3c-0.1-0.1-0.1-0.3-0.1-0.4C73.6,44.5,73.6,44.3,73.6,44.2z"/>
<path class="st2" d="M19.2,29.3c0,0.3-0.1,0.6-0.3,0.8c-0.1,0.1-0.2,0.2-0.3,0.2c-0.1,0.1-0.3,0.1-0.4,0.1H1.1C0.4,30.4,0,30,0,29.3
	V4.6c0-0.7,0.4-1.1,1.1-1.1H18c0.1,0,0.3,0,0.4,0.1c0.1,0.1,0.2,0.1,0.3,0.2C18.9,4.1,19,4.3,19,4.6v0.7c0,0.3-0.1,0.6-0.3,0.8
	c-0.1,0.1-0.2,0.2-0.3,0.2c-0.1,0.1-0.3,0.1-0.4,0.1H2.8V15h13.3c0.7,0,1.1,0.4,1.1,1.1v0.6c0,0.3-0.1,0.6-0.3,0.8
	c-0.1,0.1-0.2,0.2-0.3,0.3c-0.1,0.1-0.3,0.1-0.4,0.1H2.8v9.6h15.3c0.3,0,0.5,0.1,0.7,0.4c0.2,0.2,0.3,0.5,0.3,0.8V29.3L19.2,29.3z
	 M43.6,17c0-7-3.2-10.6-9.6-10.6h-7.3v21h6c5.3,0,8.7-2,10.1-5.9C43.4,20.2,43.6,18.7,43.6,17z M46.5,17c0,4.3-1.3,7.6-3.9,10
	c-2.4,2.3-5.7,3.4-9.9,3.4h-7.8c-0.1,0-0.3,0-0.4-0.1c-0.1-0.1-0.2-0.1-0.3-0.2c-0.1-0.1-0.2-0.2-0.2-0.4c-0.1-0.1-0.1-0.3-0.1-0.4
	V4.6c0-0.3,0.1-0.5,0.3-0.8c0.1-0.1,0.2-0.2,0.3-0.2c0.1-0.1,0.3-0.1,0.4-0.1h9.2c4,0,7.1,1.2,9.4,3.7C45.5,9.5,46.5,12.7,46.5,17
	L46.5,17z M68.2,5.3c0,0.7-0.4,1.1-1.1,1.1H53.4V15H65c0.7,0,1.1,0.4,1.1,1.1v0.6c0,0.8-0.4,1.2-1.1,1.2H53.4v11.4
	c0,0.7-0.4,1.1-1.1,1.1h-0.7c-0.7,0-1.1-0.4-1.1-1.1V4.6c0-0.7,0.4-1.1,1.1-1.1h15.5c0.7,0,1.1,0.4,1.1,1.1V5.3z M4.8,41.4
	c0,0.1,0,0.1-0.1,0.2l-0.2,0.1H0.3c-0.2,0-0.3-0.1-0.3-0.3v-6.2c0-0.2,0.1-0.3,0.3-0.3h4.2c0.1,0,0.1,0,0.2,0.1
	c0.1,0.1,0.1,0.1,0.1,0.2v0.2l-0.1,0.2c0,0-0.1,0-0.1,0.1c0,0-0.1,0-0.1,0H0.7v2.1H4c0.2,0,0.3,0.1,0.3,0.3v0.2l-0.1,0.2L4,38.5H0.7
	v2.4h3.8L4.7,41l0.1,0.2V41.4L4.8,41.4z M11.4,41.4c0,0.1,0,0.1-0.1,0.2c0,0-0.1,0-0.1,0.1c0,0-0.1,0-0.1,0h-0.3c0,0-0.1,0-0.1,0
	c0,0-0.1-0.1-0.1-0.1v0l-4-5.3v5.2c0,0.1,0,0.1-0.1,0.2l-0.2,0.1H6.2c-0.1,0-0.1,0-0.2-0.1c0,0,0-0.1-0.1-0.1c0,0,0-0.1,0-0.1v-6.2
	c0-0.1,0-0.1,0.1-0.2C6,35,6,35,6,35c0,0,0.1,0,0.1,0h0.3c0.1,0,0.1,0,0.2,0.1v0c0.5,0.7,1.3,1.7,2.3,3l1,1.3c0.3,0.4,0.6,0.7,0.8,1
	v-5.1c0-0.2,0.1-0.3,0.3-0.3h0.2c0.1,0,0.1,0,0.2,0.1c0.1,0.1,0.1,0.1,0.1,0.2V41.4L11.4,41.4z M18.4,35.2l0,0.1l0,0l-2.5,6.2
	c0,0.1-0.1,0.2-0.2,0.2h-0.2c-0.1,0-0.2-0.1-0.3-0.2l-2.6-6.2l0-0.1c0-0.2,0.1-0.3,0.3-0.3h0.2c0.1,0,0.2,0.1,0.3,0.2l2.3,5.4
	l2.2-5.4c0-0.1,0.1-0.2,0.3-0.2h0.2C18.3,34.9,18.4,35,18.4,35.2L18.4,35.2z M19.9,41.4c0,0.2-0.1,0.3-0.3,0.3h-0.1
	c-0.2,0-0.3-0.1-0.3-0.3v-6.2c0-0.2,0.1-0.3,0.3-0.3h0.1c0.2,0,0.3,0.1,0.3,0.3V41.4z M25.9,36.8c0-0.8-0.5-1.1-1.5-1.1h-2.3v2.4
	h2.2c0.5,0,0.9-0.1,1.2-0.3c0.2-0.1,0.3-0.2,0.4-0.4C25.8,37.2,25.9,37,25.9,36.8L25.9,36.8z M26.6,36.8c0,0.7-0.3,1.3-0.8,1.6
	c0.5,0.3,0.8,0.8,0.8,1.5v1.5c0,0.1,0,0.1-0.1,0.2c0,0-0.1,0-0.1,0.1c0,0-0.1,0-0.1,0H26c-0.2,0-0.3-0.1-0.3-0.3v-1.5
	c0-0.8-0.5-1.1-1.5-1.1h-2.2v2.6c0,0.2-0.1,0.3-0.3,0.3h-0.2c-0.1,0-0.1,0-0.2-0.1c0,0,0-0.1-0.1-0.1c0,0,0-0.1,0-0.1v-6.2
	c0,0,0-0.1,0-0.1c0,0,0-0.1,0.1-0.1c0,0,0.1,0,0.1-0.1c0,0,0.1,0,0.1,0h2.7C25.8,34.9,26.6,35.6,26.6,36.8L26.6,36.8z M33.8,38.3
	c0-1.3-0.5-2.1-1.5-2.4c-0.4-0.1-0.7-0.2-1.1-0.2c-0.8,0-1.5,0.2-2,0.7c-0.5,0.5-0.7,1.1-0.7,1.9c0,0.8,0.2,1.5,0.7,1.9l0,0
	c0.5,0.5,1.1,0.7,1.9,0.7c0.8,0,1.5-0.2,1.9-0.7C33.6,39.8,33.8,39.1,33.8,38.3z M34.5,38.3c0,0.5-0.1,1-0.2,1.4
	c-0.1,0.4-0.4,0.8-0.7,1.1c-0.3,0.3-0.6,0.5-1.1,0.7c-0.4,0.2-0.9,0.2-1.4,0.2c-1.1,0-1.9-0.3-2.5-0.9c-0.6-0.6-0.9-1.4-0.9-2.5
	c0-1.1,0.3-1.9,0.9-2.5h0c0.6-0.6,1.4-0.9,2.5-0.9c1,0,1.9,0.3,2.5,0.9C34.2,36.5,34.5,37.3,34.5,38.3L34.5,38.3z M41.3,41.4
	c0,0.1,0,0.1-0.1,0.2L41,41.7h-0.3c0,0-0.1,0-0.1,0c0,0-0.1-0.1-0.1-0.1v0l-4-5.3v5.2c0,0.1,0,0.1-0.1,0.2l-0.2,0.1H36
	c-0.1,0-0.1,0-0.2-0.1c0,0,0-0.1-0.1-0.1c0,0,0-0.1,0-0.1v-6.2c0-0.1,0-0.1,0.1-0.2c0,0,0.1,0,0.1-0.1s0.1,0,0.1,0h0.3
	c0.1,0,0.1,0,0.2,0.1v0c0.5,0.7,1.3,1.7,2.3,3l1,1.3c0.3,0.4,0.6,0.7,0.8,1v-5.1c0-0.2,0.1-0.3,0.3-0.3H41l0.2,0.1
	c0.1,0.1,0.1,0.1,0.1,0.2V41.4L41.3,41.4z M49.6,41.4c0,0.1,0,0.1-0.1,0.2c-0.1,0.1-0.1,0.1-0.2,0.1h-0.2c-0.2,0-0.3-0.1-0.3-0.3
	v-4.8l-2.4,4.9c0,0.1-0.1,0.1-0.2,0.1h-0.2c-0.1,0-0.2,0-0.2-0.1l-2.4-4.9v4.8c0,0.1,0,0.1-0.1,0.2c-0.1,0.1-0.1,0.1-0.2,0.1H43
	c-0.2,0-0.3-0.1-0.3-0.3v-6.2c0-0.2,0.1-0.3,0.3-0.3h0.3c0.1,0,0.2,0.1,0.2,0.2l2.6,5.5l2.6-5.5c0,0,0.1-0.1,0.1-0.1
	c0,0,0.1,0,0.1,0h0.3c0.1,0,0.1,0,0.2,0.1c0,0,0.1,0.1,0.1,0.1s0,0.1,0,0.1V41.4L49.6,41.4z M55.9,41.4c0,0.1,0,0.1-0.1,0.2
	c0,0-0.1,0-0.1,0.1c0,0-0.1,0-0.1,0h-4.3c-0.2,0-0.3-0.1-0.3-0.3v-6.2c0-0.2,0.1-0.3,0.3-0.3h4.2c0.1,0,0.1,0,0.2,0.1
	c0,0.1,0.1,0.1,0.1,0.2v0.2l-0.1,0.2c0,0-0.1,0-0.1,0.1c0,0-0.1,0-0.1,0h-3.8v2.1h3.3c0.2,0,0.3,0.1,0.3,0.3v0.2l-0.1,0.2
	c0,0-0.1,0.1-0.1,0.1c0,0-0.1,0-0.1,0h-3.3v2.4h3.8l0.2,0.1l0.1,0.2V41.4L55.9,41.4z M62.5,41.4c0,0.1,0,0.1-0.1,0.2
	c0,0-0.1,0-0.1,0.1c0,0-0.1,0-0.1,0h-0.3c0,0-0.1,0-0.1,0c0,0-0.1-0.1-0.1-0.1v0l-4-5.3v5.2c0,0,0,0.1,0,0.1c0,0,0,0.1-0.1,0.1
	l-0.2,0.1h-0.2c0,0-0.1,0-0.1,0c0,0-0.1,0-0.1-0.1c-0.1-0.1-0.1-0.1-0.1-0.2v-6.2c0-0.1,0-0.1,0.1-0.2c0,0,0.1,0,0.1-0.1
	c0,0,0.1,0,0.1,0h0.3c0.1,0,0.1,0,0.2,0.1v0c0.5,0.7,1.3,1.7,2.3,3l1,1.3c0.3,0.4,0.6,0.7,0.8,1v-5.1c0-0.2,0.1-0.3,0.3-0.3h0.2
	c0.1,0,0.1,0,0.2,0.1c0,0,0,0.1,0.1,0.1s0,0.1,0,0.1V41.4L62.5,41.4z M68.7,35.4l-0.1,0.2l-0.2,0.1h-2v5.7c0,0.2-0.1,0.3-0.3,0.3H66
	c-0.2,0-0.3-0.1-0.3-0.3v-5.7h-2c-0.2,0-0.3-0.1-0.3-0.3v-0.2c0-0.2,0.1-0.3,0.3-0.3h4.7l0.2,0.1c0.1,0.1,0.1,0.1,0.1,0.2V35.4z
	 M72.7,38.9l-1.2-2.7l-1.2,2.7H72.7z M74.6,41.4c0,0.2-0.1,0.3-0.3,0.3h-0.2c-0.1,0-0.2-0.1-0.3-0.2L73,39.6h-3l-0.8,1.9
	c-0.1,0.1-0.1,0.2-0.2,0.2h-0.2c-0.2,0-0.3-0.1-0.3-0.3l0-0.1l0,0l2.7-6.2c0.1-0.1,0.1-0.2,0.3-0.2h0.2c0.1,0,0.2,0.1,0.3,0.2
	l2.6,6.2L74.6,41.4L74.6,41.4z M79.9,41.4c0,0.2-0.1,0.3-0.3,0.3h-3.9c-0.2,0-0.3-0.1-0.3-0.3v-6.2c0-0.2,0.1-0.3,0.3-0.3H76
	c0.2,0,0.3,0.1,0.3,0.3v5.7h3.4c0.1,0,0.1,0,0.2,0.1l0.1,0.2V41.4L79.9,41.4z M4.9,46.6c0-1.8-0.8-2.6-2.4-2.6H0.7v5.3h1.5
	c1.3,0,2.2-0.5,2.5-1.5C4.9,47.4,4.9,47,4.9,46.6L4.9,46.6z M5.7,46.6c0,1.1-0.3,1.9-1,2.5c-0.6,0.6-1.4,0.8-2.5,0.8h-2
	c0,0-0.1,0-0.1,0c0,0-0.1,0-0.1-0.1c0,0,0-0.1-0.1-0.1c0,0,0-0.1,0-0.1v-6.2c0-0.1,0-0.1,0.1-0.2c0,0,0.1,0,0.1-0.1c0,0,0.1,0,0.1,0
	h2.3c1,0,1.8,0.3,2.3,0.9C5.4,44.7,5.7,45.5,5.7,46.6L5.7,46.6z M11.8,49.7c0,0,0,0.1,0,0.1c0,0,0,0.1-0.1,0.1l-0.2,0.1H7.3
	c-0.2,0-0.3-0.1-0.3-0.3v-6.2c0-0.2,0.1-0.3,0.3-0.3h4.2l0.2,0.1c0,0,0,0.1,0.1,0.1c0,0,0,0.1,0,0.1v0.2c0,0.1,0,0.1-0.1,0.2
	l-0.2,0.1H7.7v2.1H11c0.2,0,0.3,0.1,0.3,0.3v0.2c0,0.1,0,0.1-0.1,0.2L11,46.8H7.7v2.4h3.8l0.2,0.1l0.1,0.2V49.7z M17.3,43.7
	c0,0.2-0.1,0.3-0.3,0.3h-3.4v2.1h2.9c0.2,0,0.3,0.1,0.3,0.3v0.2c0,0.2-0.1,0.3-0.3,0.3h-2.9v2.9c0,0.2-0.1,0.3-0.3,0.3h-0.2
	c-0.2,0-0.3-0.1-0.3-0.3v-6.2c0-0.2,0.1-0.3,0.3-0.3H17c0.2,0,0.3,0.1,0.3,0.3V43.7L17.3,43.7z M23,49.7c0,0.1,0,0.1-0.1,0.2
	c0,0-0.1,0-0.1,0.1s-0.1,0-0.1,0h-4.3c-0.2,0-0.3-0.1-0.3-0.3v-6.2c0-0.2,0.1-0.3,0.3-0.3h4.2c0,0,0.1,0,0.1,0c0,0,0.1,0,0.1,0.1
	c0.1,0.1,0.1,0.1,0.1,0.2v0.2c0,0,0,0.1,0,0.1c0,0,0,0.1-0.1,0.1c0,0-0.1,0-0.1,0.1c0,0-0.1,0-0.1,0h-3.8v2.1h3.3
	c0.2,0,0.3,0.1,0.3,0.3v0.2c0,0.1,0,0.1-0.1,0.2l-0.2,0.1h-3.3v2.4h3.8l0.2,0.1l0.1,0.2L23,49.7L23,49.7z M29.6,49.7
	c0,0.1,0,0.1-0.1,0.2l-0.2,0.1h-0.3c0,0-0.1,0-0.1,0c0,0-0.1-0.1-0.1-0.1v0l-4-5.3v5.2c0,0.1,0,0.1-0.1,0.2c0,0-0.1,0-0.1,0.1
	c0,0-0.1,0-0.1,0h-0.2c-0.1,0-0.1,0-0.2-0.1c-0.1-0.1-0.1-0.1-0.1-0.2l0-6.2c0-0.1,0-0.1,0.1-0.2c0.1-0.1,0.1-0.1,0.2-0.1h0.3
	c0.1,0,0.1,0,0.2,0.1v0c0.5,0.7,1.3,1.7,2.3,3l1,1.3c0.3,0.4,0.6,0.7,0.8,1v-5.1c0-0.2,0.1-0.3,0.3-0.3h0.2l0.2,0.1
	c0.1,0.1,0.1,0.1,0.1,0.2V49.7L29.6,49.7z M36.3,48.2c0,0.7-0.3,1.2-0.9,1.5c-0.5,0.3-1,0.4-1.6,0.4c-0.8,0-1.5-0.2-1.9-0.5
	c-0.6-0.4-0.9-1-0.9-1.8v-0.1c0-0.2,0.1-0.3,0.3-0.3h0.2c0.2,0,0.3,0.1,0.3,0.3v0.1c0,1.1,0.7,1.6,2.1,1.6c0.5,0,0.9-0.1,1.3-0.3
	c0.4-0.2,0.6-0.5,0.6-0.9c0-0.3-0.1-0.5-0.2-0.7c-0.1-0.1-0.3-0.2-0.6-0.3c-0.1,0-0.3-0.1-0.4-0.1l-0.8-0.2
	c-0.8-0.2-1.3-0.3-1.6-0.5c-0.6-0.3-0.9-0.8-0.9-1.4c0-1.2,0.8-1.8,2.5-1.8c1.7,0,2.6,0.7,2.6,2.1c0,0.2-0.1,0.3-0.3,0.3h-0.2
	c-0.2,0-0.3-0.1-0.3-0.2c0-0.8-0.4-1.2-1.1-1.3c-0.3,0-0.5-0.1-0.8,0c-1.2,0-1.8,0.4-1.8,1.1c0,0.3,0.1,0.6,0.4,0.8
	c0.2,0.1,0.6,0.2,1.2,0.3c1.1,0.2,1.8,0.4,2.2,0.7C36.1,47,36.3,47.5,36.3,48.2L36.3,48.2z M42.5,49.7c0,0.1,0,0.1-0.1,0.2
	c0,0-0.1,0-0.1,0.1c0,0-0.1,0-0.1,0h-4.3c-0.2,0-0.3-0.1-0.3-0.3v-6.2c0-0.2,0.1-0.3,0.3-0.3h4.2l0.2,0.1c0,0,0,0.1,0.1,0.1
	c0,0,0,0.1,0,0.1v0.2c0,0.1,0,0.1-0.1,0.2l-0.2,0.1h-3.8v2.1h3.3c0.2,0,0.3,0.1,0.3,0.3v0.2c0,0.1,0,0.1-0.1,0.2
	c0,0-0.1,0.1-0.1,0.1c0,0-0.1,0-0.1,0h-3.3v2.4h3.8l0.2,0.1l0.1,0.2V49.7z M52.2,43.7c0,0.2-0.1,0.3-0.3,0.3h-3.4v2.1h2.9
	c0.2,0,0.3,0.1,0.3,0.3v0.2c0,0.2-0.1,0.3-0.3,0.3h-2.9v2.9c0,0.2-0.1,0.3-0.3,0.3H48c-0.2,0-0.3-0.1-0.3-0.3v-6.2
	c0-0.2,0.1-0.3,0.3-0.3h3.9c0.2,0,0.3,0.1,0.3,0.3L52.2,43.7L52.2,43.7z M58.5,47.4c0,1.3-0.5,2.2-1.5,2.5C56.6,50,56.2,50,55.8,50
	c-0.9,0-1.5-0.2-2-0.6c-0.5-0.4-0.7-1.1-0.7-2v-3.9c0-0.2,0.1-0.3,0.3-0.3h0.2c0.2,0,0.3,0.1,0.3,0.3v3.9c0,1.3,0.7,1.9,2,1.9
	c1.3,0,2-0.6,2-1.9v-3.9c0-0.2,0.1-0.3,0.3-0.3h0.2c0.2,0,0.3,0.1,0.3,0.3V47.4L58.5,47.4z M65.5,49.7c0,0.1,0,0.1-0.1,0.2l-0.2,0.1
	h-0.3c0,0-0.1,0-0.1,0c0,0-0.1-0.1-0.1-0.1v0l-4-5.3v5.2c0,0,0,0.1,0,0.1c0,0,0,0.1-0.1,0.1c0,0-0.1,0-0.1,0.1c0,0-0.1,0-0.1,0h-0.2
	c0,0-0.1,0-0.1,0c0,0-0.1,0-0.1-0.1c0,0,0-0.1-0.1-0.1c0,0,0-0.1,0-0.1v-6.2c0-0.1,0-0.1,0.1-0.2c0,0,0.1,0,0.1-0.1c0,0,0.1,0,0.1,0
	h0.3c0.1,0,0.1,0,0.2,0.1v0c0.5,0.7,1.3,1.7,2.3,3l1,1.3c0.3,0.4,0.6,0.7,0.8,1v-5.1c0-0.2,0.1-0.3,0.3-0.3h0.2l0.2,0.1
	c0,0,0,0.1,0.1,0.1s0,0.1,0,0.1V49.7L65.5,49.7z M71.8,46.6c0-1.8-0.8-2.6-2.4-2.6h-1.8v5.3h1.5c1.3,0,2.2-0.5,2.5-1.5
	C71.8,47.4,71.9,47,71.8,46.6L71.8,46.6z M72.6,46.6c0,1.1-0.3,1.9-1,2.5c-0.6,0.6-1.4,0.8-2.5,0.8h-2L67,49.9c0,0,0-0.1-0.1-0.1
	c0,0,0-0.1,0-0.1v-6.2c0-0.1,0-0.1,0.1-0.2l0.2-0.1h2.3c1,0,1.8,0.3,2.3,0.9C72.3,44.7,72.6,45.5,72.6,46.6L72.6,46.6z M71.1,21.9
	c0.3,0.7,0.8,1.3,1.8,1.5v0l0,0c1.2,0.2,2.6,0,4.1-0.5c6.6-2.1,16.3-9.8,32.4-14.9h0l0,0l0.1,0C104.1,1.3,95-1.7,86.3,1
	C77.1,4,71.2,12.6,71.1,21.9"/>
</svg>
