<svg width="16" height="18" viewBox="0 0 16 18" fill="none" xmlns="http://www.w3.org/2000/svg">
<path fill-rule="evenodd" clip-rule="evenodd" d="M2 14C2.26522 14 2.51957 13.8946 2.70711 13.7071C2.89464 13.5196 3 13.2652 3 13C3 12.7348 2.89464 12.4804 2.70711 12.2929C2.51957 12.1054 2.26522 12 2 12C1.73478 12 1.48043 12.1054 1.29289 12.2929C1.10536 12.4804 1 12.7348 1 13C1 13.2652 1.10536 13.5196 1.29289 13.7071C1.48043 13.8946 1.73478 14 2 14ZM2 15C2.53043 15 3.03914 14.7893 3.41421 14.4142C3.78929 14.0391 4 13.5304 4 13C4 12.4696 3.78929 11.9609 3.41421 11.5858C3.03914 11.2107 2.53043 11 2 11C1.46957 11 0.960859 11.2107 0.585786 11.5858C0.210714 11.9609 0 12.4696 0 13C0 13.5304 0.210714 14.0391 0.585786 14.4142C0.960859 14.7893 1.46957 15 2 15Z" fill="#58595B"/>
<path fill-rule="evenodd" clip-rule="evenodd" d="M8 8C7.737 8 7.5 8.198 7.5 8.461V17.5C7.5 17.6326 7.55268 17.7598 7.64645 17.8536C7.74021 17.9473 7.86739 18 8 18C8.13261 18 8.25979 17.9473 8.35355 17.8536C8.44732 17.7598 8.5 17.6326 8.5 17.5V8.461C8.5 8.198 8.263 8 8 8ZM8.5 3.5C8.5 3.63261 8.44732 3.75979 8.35355 3.85355C8.25979 3.94732 8.13261 4 8 4C7.86739 4 7.74021 3.94732 7.64645 3.85355C7.55268 3.75979 7.5 3.63261 7.5 3.5V0.5C7.5 0.367392 7.55268 0.240215 7.64645 0.146447C7.74021 0.0526785 7.86739 0 8 0C8.13261 0 8.25979 0.0526785 8.35355 0.146447C8.44732 0.240215 8.5 0.367392 8.5 0.5V3.5Z" fill="#58595B"/>
<path fill-rule="evenodd" clip-rule="evenodd" d="M14 18C13.8674 18 13.7402 17.9473 13.6464 17.8536C13.5527 17.7598 13.5 17.6326 13.5 17.5V13.961C13.5 13.698 13.737 13.5 14 13.5C14.263 13.5 14.5 13.698 14.5 13.961V17.5C14.5 17.6326 14.4473 17.7598 14.3536 17.8536C14.2598 17.9473 14.1326 18 14 18ZM13.5 9C13.5 9.13261 13.5527 9.25979 13.6464 9.35355C13.7402 9.44732 13.8674 9.5 14 9.5C14.1326 9.5 14.2598 9.44732 14.3536 9.35355C14.4473 9.25979 14.5 9.13261 14.5 9V0.5C14.5 0.367392 14.4473 0.240215 14.3536 0.146447C14.2598 0.0526785 14.1326 0 14 0C13.8674 0 13.7402 0.0526785 13.6464 0.146447C13.5527 0.240215 13.5 0.367392 13.5 0.5V9Z" fill="#58595B"/>
<path fill-rule="evenodd" clip-rule="evenodd" d="M2 18C1.86739 18 1.74021 17.9473 1.64645 17.8536C1.55268 17.7598 1.5 17.6326 1.5 17.5V16.461C1.5 16.198 1.737 16 2 16C2.263 16 2.5 16.198 2.5 16.461V17.5C2.5 17.6326 2.44732 17.7598 2.35355 17.8536C2.25979 17.9473 2.13261 18 2 18ZM1.5 11C1.5 11.1326 1.55268 11.2598 1.64645 11.3536C1.74021 11.4473 1.86739 11.5 2 11.5C2.13261 11.5 2.25979 11.4473 2.35355 11.3536C2.44732 11.2598 2.5 11.1326 2.5 11V0.5C2.5 0.367392 2.44732 0.240215 2.35355 0.146447C2.25979 0.0526785 2.13261 0 2 0C1.86739 0 1.74021 0.0526785 1.64645 0.146447C1.55268 0.240215 1.5 0.367392 1.5 0.5V11Z" fill="#58595B"/>
<path fill-rule="evenodd" clip-rule="evenodd" d="M8 6C8.26522 6 8.51957 5.89464 8.70711 5.70711C8.89464 5.51957 9 5.26522 9 5C9 4.73478 8.89464 4.48043 8.70711 4.29289C8.51957 4.10536 8.26522 4 8 4C7.73478 4 7.48043 4.10536 7.29289 4.29289C7.10536 4.48043 7 4.73478 7 5C7 5.26522 7.10536 5.51957 7.29289 5.70711C7.48043 5.89464 7.73478 6 8 6ZM8 7C8.53043 7 9.03914 6.78929 9.41421 6.41421C9.78929 6.03914 10 5.53043 10 5C10 4.46957 9.78929 3.96086 9.41421 3.58579C9.03914 3.21071 8.53043 3 8 3C7.46957 3 6.96086 3.21071 6.58579 3.58579C6.21071 3.96086 6 4.46957 6 5C6 5.53043 6.21071 6.03914 6.58579 6.41421C6.96086 6.78929 7.46957 7 8 7Z" fill="#58595B"/>
<path fill-rule="evenodd" clip-rule="evenodd" d="M14 11.5C14.2652 11.5 14.5196 11.3946 14.7071 11.2071C14.8946 11.0196 15 10.7652 15 10.5C15 10.2348 14.8946 9.98043 14.7071 9.79289C14.5196 9.60536 14.2652 9.5 14 9.5C13.7348 9.5 13.4804 9.60536 13.2929 9.79289C13.1054 9.98043 13 10.2348 13 10.5C13 10.7652 13.1054 11.0196 13.2929 11.2071C13.4804 11.3946 13.7348 11.5 14 11.5ZM14 12.5C14.5304 12.5 15.0391 12.2893 15.4142 11.9142C15.7893 11.5391 16 11.0304 16 10.5C16 9.96957 15.7893 9.46086 15.4142 9.08579C15.0391 8.71071 14.5304 8.5 14 8.5C13.4696 8.5 12.9609 8.71071 12.5858 9.08579C12.2107 9.46086 12 9.96957 12 10.5C12 11.0304 12.2107 11.5391 12.5858 11.9142C12.9609 12.2893 13.4696 12.5 14 12.5Z" fill="#58595B"/>
</svg>
