<svg width="15" height="13" viewBox="0 0 15 13" fill="none" xmlns="http://www.w3.org/2000/svg">
<path d="M8.57087 4.82153L7.81551 5.57689L9.19766 6.96439H4.28516V8.03582H9.19766L7.81551 9.42332L8.57087 10.1787L11.2494 7.5001L8.57087 4.82153Z" fill="#90959F"/>
<path d="M4.91357 1.07143L6.7425 2.90036L7.05643 3.21429H13.9286V11.7857H1.07143V1.07143H4.91357ZM4.91357 0H1.07143C0.787268 0 0.514746 0.112882 0.313814 0.313814C0.112882 0.514746 0 0.787268 0 1.07143V11.7857C0 12.0699 0.112882 12.3424 0.313814 12.5433C0.514746 12.7443 0.787268 12.8571 1.07143 12.8571H13.9286C14.2127 12.8571 14.4853 12.7443 14.6862 12.5433C14.8871 12.3424 15 12.0699 15 11.7857V3.21429C15 2.93012 14.8871 2.6576 14.6862 2.45667C14.4853 2.25574 14.2127 2.14286 13.9286 2.14286H7.5L5.67107 0.313929C5.47019 0.112983 5.19771 6.06829e-05 4.91357 0Z" fill="#90959F"/>
</svg>
