<svg width="22" height="24" viewBox="0 0 22 24" fill="none" xmlns="http://www.w3.org/2000/svg">
<path d="M5.33333 17.3332C5.33333 18.0404 5.05238 18.7187 4.55229 19.2188C4.05219 19.7189 3.37391 19.9998 2.66667 19.9998C1.95942 19.9998 1.28115 19.7189 0.781048 19.2188C0.280951 18.7187 0 18.0404 0 17.3332C0 16.6259 0.280951 15.9477 0.781048 15.4476C1.28115 14.9475 1.95942 14.6665 2.66667 14.6665C3.37391 14.6665 4.05219 14.9475 4.55229 15.4476C5.05238 15.9477 5.33333 16.6259 5.33333 17.3332Z" fill="#323232"/>
<path fill-rule="evenodd" clip-rule="evenodd" d="M10.6667 10.6667C10.316 10.6667 10 10.9307 10 11.2813V23.3333C10 23.5101 10.0702 23.6797 10.1953 23.8047C10.3203 23.9298 10.4899 24 10.6667 24C10.8435 24 11.013 23.9298 11.1381 23.8047C11.2631 23.6797 11.3333 23.5101 11.3333 23.3333V11.2813C11.3333 10.9307 11.0173 10.6667 10.6667 10.6667ZM10 6C10 6.368 10.316 6.66667 10.684 6.66667C11.0527 6.66667 11.3333 6.368 11.3333 6V0.666667C11.3333 0.489856 11.2631 0.320287 11.1381 0.195262C11.013 0.070238 10.8435 0 10.6667 0C10.4899 0 10.3203 0.070238 10.1953 0.195262C10.0702 0.320287 10 0.489856 10 0.666667V6Z" fill="#323232"/>
<path fill-rule="evenodd" clip-rule="evenodd" d="M18.6667 18C18.316 18 18 18.264 18 18.6147V23.3333C18 23.5101 18.0702 23.6797 18.1953 23.8047C18.3203 23.9298 18.4899 24 18.6667 24C18.8435 24 19.013 23.9298 19.1381 23.8047C19.2631 23.6797 19.3333 23.5101 19.3333 23.3333V18.6147C19.3333 18.264 19.0173 18 18.6667 18ZM18 13.3333C18 13.7013 18.316 14 18.684 14C19.0527 14 19.3333 13.7013 19.3333 13.3333V0.666667C19.3333 0.489856 19.2631 0.320287 19.1381 0.195262C19.013 0.070238 18.8435 0 18.6667 0C18.4899 0 18.3203 0.070238 18.1953 0.195262C18.0702 0.320287 18 0.489856 18 0.666667V13.3333Z" fill="#323232"/>
<path fill-rule="evenodd" clip-rule="evenodd" d="M2.66667 21.3333C2.316 21.3333 2 21.5973 2 21.948V23.3333C2 23.5101 2.07024 23.6797 2.19526 23.8047C2.32029 23.9298 2.48986 24 2.66667 24C2.84348 24 3.01305 23.9298 3.13807 23.8047C3.2631 23.6797 3.33333 23.5101 3.33333 23.3333V21.948C3.33333 21.5973 3.01733 21.3333 2.66667 21.3333ZM2 16.6667C2 17.0347 2.316 17.3333 2.684 17.3333C3.05267 17.3333 3.33333 17.0347 3.33333 16.6667V0.666667C3.33333 0.489856 3.2631 0.320287 3.13807 0.195262C3.01305 0.070238 2.84348 0 2.66667 0C2.48986 0 2.32029 0.070238 2.19526 0.195262C2.07024 0.320287 2 0.489856 2 0.666667V16.6667Z" fill="#323232"/>
<path d="M13.3333 6.66667C13.3333 7.37391 13.0524 8.05219 12.5523 8.55228C12.0522 9.05238 11.3739 9.33333 10.6667 9.33333C9.95942 9.33333 9.28115 9.05238 8.78105 8.55228C8.28095 8.05219 8 7.37391 8 6.66667C8 5.95942 8.28095 5.28115 8.78105 4.78105C9.28115 4.28095 9.95942 4 10.6667 4C11.3739 4 12.0522 4.28095 12.5523 4.78105C13.0524 5.28115 13.3333 5.95942 13.3333 6.66667Z" fill="#323232"/>
<path d="M21.3333 14.0002C21.3333 14.7074 21.0524 15.3857 20.5523 15.8858C20.0522 16.3859 19.3739 16.6668 18.6667 16.6668C17.9594 16.6668 17.2811 16.3859 16.781 15.8858C16.281 15.3857 16 14.7074 16 14.0002C16 13.2929 16.281 12.6146 16.781 12.1145C17.2811 11.6144 17.9594 11.3335 18.6667 11.3335C19.3739 11.3335 20.0522 11.6144 20.5523 12.1145C21.0524 12.6146 21.3333 13.2929 21.3333 14.0002Z" fill="#323232"/>
</svg>
