<svg width="15" height="16" viewBox="0 0 15 16" fill="none" xmlns="http://www.w3.org/2000/svg">
<path d="M5.96154 0H9.03692C9.18309 4.4802e-05 9.3238 0.0555727 9.43061 0.155364C9.53742 0.255155 9.60236 0.391768 9.61233 0.5376C9.62229 0.683432 9.57653 0.827609 9.48428 0.940999C9.39204 1.05439 9.26019 1.12854 9.11539 1.14846L9.03692 1.15385H8.07692V14.2308H9.03462C9.17403 14.2308 9.30872 14.2813 9.41379 14.3729C9.51886 14.4645 9.58719 14.5911 9.60615 14.7292L9.61154 14.8077C9.61153 14.9471 9.56104 15.0818 9.46941 15.1869C9.37778 15.2919 9.25119 15.3603 9.11308 15.3792L9.03462 15.3846H5.96154C5.81537 15.3846 5.67466 15.329 5.56785 15.2293C5.46104 15.1295 5.3961 14.9928 5.38613 14.847C5.37617 14.7012 5.42193 14.557 5.51418 14.4436C5.60642 14.3302 5.73827 14.2561 5.88308 14.2362L5.96154 14.2308H6.92308V1.15385H5.96154C5.82212 1.15384 5.68743 1.10335 5.58236 1.01172C5.47729 0.920084 5.40896 0.793503 5.39 0.655385L5.38462 0.576923C5.38462 0.43751 5.43511 0.302814 5.52674 0.197746C5.61838 0.0926775 5.74496 0.0243448 5.88308 0.00538459L5.96154 0H9.03692H5.96154ZM12.4969 2.30538C13.1598 2.306 13.7953 2.56958 14.264 3.03829C14.7327 3.507 14.9963 4.14253 14.9969 4.80538L15 10.5777C15.0004 11.2162 14.7565 11.8307 14.3182 12.295C13.8799 12.7593 13.2805 13.0383 12.6431 13.0746L12.5 13.0785H8.85V11.9246H12.5446C12.894 11.9132 13.2253 11.7663 13.4683 11.5148C13.7112 11.2634 13.8467 10.9273 13.8462 10.5777L13.8438 4.80462C13.8432 4.44751 13.701 4.10524 13.4483 3.85287C13.1957 3.60051 12.8533 3.45866 12.4962 3.45846H8.85V2.30462H12.4962L12.4969 2.30538ZM6.15385 2.30538V3.45923H2.5C2.14298 3.45923 1.80058 3.60106 1.54813 3.85351C1.29567 4.10596 1.15385 4.44836 1.15385 4.80538V10.5777C1.15385 11.3215 1.75692 11.9238 2.5 11.9238H6.15V13.0777H2.5C1.83696 13.0777 1.20107 12.8143 0.732233 12.3455C0.263392 11.8766 0 11.2407 0 10.5777V4.80538C0 4.14234 0.263392 3.50646 0.732233 3.03762C1.20107 2.56878 1.83696 2.30538 2.5 2.30538H6.15385Z" fill="#90959F"/>
</svg>
