<svg width="15" height="18" viewBox="0 0 15 18" fill="none" xmlns="http://www.w3.org/2000/svg">
<path d="M9.47368 1.57895L7.89474 0H1.57895C1.16018 0 0.758573 0.166353 0.462463 0.462463C0.166353 0.758573 0 1.16018 0 1.57895V11.0526C0 11.4714 0.166353 11.873 0.462463 12.1691C0.758573 12.4652 1.16018 12.6316 1.57895 12.6316H7.10526V14.2105L10.2632 11.8421L7.10526 9.47368V11.0526H1.57895V1.57895H9.47368ZM15 7.10526V15.7895C15 16.2082 14.8336 16.6098 14.5375 16.906C14.2414 17.2021 13.8398 17.3684 13.4211 17.3684H4.73684C4.31808 17.3684 3.91647 17.2021 3.62036 16.906C3.32425 16.6098 3.15789 16.2082 3.15789 15.7895V14.2105H4.73684V15.7895H13.4211V8.68421H9.47368V4.73684H4.73684V9.47368H3.15789V4.73684C3.15789 4.31808 3.32425 3.91647 3.62036 3.62036C3.91647 3.32425 4.31808 3.15789 4.73684 3.15789H11.0526L15 7.10526Z" fill="#90959F"/>
</svg>
