<svg width="24" height="24" viewBox="0 0 24 24" fill="none" xmlns="http://www.w3.org/2000/svg">
<circle cx="12" cy="12" r="12" fill="#F04E23"/>
<path d="M9.54952 7.68575C9.49843 7.33385 9.52366 6.97508 9.62349 6.6338C9.72332 6.29251 9.89541 5.9767 10.1281 5.70781C10.3608 5.43892 10.6486 5.22324 10.972 5.07541C11.2954 4.92758 11.6468 4.85107 12.0024 4.85107C12.358 4.85107 12.7094 4.92758 13.0328 5.07541C13.3562 5.22324 13.644 5.43892 13.8767 5.70781C14.1093 5.9767 14.2814 6.29251 14.3813 6.6338C14.4811 6.97508 14.5063 7.33385 14.4552 7.68575L13.6324 13.4429C13.5754 13.8346 13.3793 14.1926 13.08 14.4516C12.7807 14.7105 12.3982 14.853 12.0024 14.853C11.6066 14.853 11.224 14.7105 10.9247 14.4516C10.6254 14.1926 10.4293 13.8346 10.3724 13.4429L9.54952 7.68575Z" fill="white"/>
<path d="M13.4268 17.7142C13.4268 18.0931 13.2763 18.4565 13.0084 18.7244C12.7405 18.9923 12.3772 19.1428 11.9983 19.1428C11.6194 19.1428 11.256 18.9923 10.9881 18.7244C10.7202 18.4565 10.5697 18.0931 10.5697 17.7142C10.5697 17.3353 10.7202 16.972 10.9881 16.7041C11.256 16.4362 11.6194 16.2856 11.9983 16.2856C12.3772 16.2856 12.7405 16.4362 13.0084 16.7041C13.2763 16.972 13.4268 17.3353 13.4268 17.7142Z" fill="white"/>
</svg>
