<svg width="20" height="21" viewBox="0 0 20 21" fill="none" xmlns="http://www.w3.org/2000/svg">
<path d="M0 13.4078C0 16.1455 2.36117 18.9547 6.41085 19.4163C5.97502 18.8782 5.60778 18.2881 5.31758 17.6594C2.8577 16.9503 1.51844 15.1206 1.51844 13.4078V12.6486C1.51844 12.4472 1.59843 12.2541 1.74081 12.1117C1.88319 11.9693 2.0763 11.8894 2.27766 11.8894H4.86964C5.01996 11.3594 5.21888 10.8523 5.46638 10.3709H2.27766C1.67359 10.3709 1.09426 10.6109 0.667111 11.038C0.239967 11.4652 0 12.0445 0 12.6486V13.4078ZM11.7679 4.67677C11.7679 5.10953 11.7026 5.5271 11.5796 5.92189C10.8538 6.0373 10.1466 6.2487 9.47658 6.55053C9.92792 6.09526 10.1995 5.49218 10.2411 4.85247C10.2828 4.21276 10.0918 3.57954 9.70338 3.06956C9.31493 2.55959 8.75521 2.20723 8.12741 2.07745C7.49962 1.94768 6.84607 2.04924 6.28726 2.3634C5.72845 2.67756 5.30205 3.18316 5.08667 3.78696C4.8713 4.39077 4.88147 5.05208 5.1153 5.64898C5.34914 6.24588 5.79088 6.73812 6.35909 7.03496C6.9273 7.33179 7.58366 7.41321 8.20717 7.26419C7.59991 7.67789 7.04959 8.16951 6.57029 8.72645C5.81162 8.53533 5.12187 8.135 4.5796 7.57104C4.03733 7.00708 3.66434 6.30216 3.50311 5.53658C3.34188 4.771 3.3989 3.97553 3.66767 3.24077C3.93644 2.50601 4.40615 1.86149 5.02331 1.38064C5.64047 0.899785 6.38027 0.601916 7.15845 0.52096C7.93662 0.440005 8.72189 0.579216 9.42481 0.92274C10.1277 1.26626 10.7201 1.80029 11.1343 2.46399C11.5486 3.12769 11.7681 3.8944 11.7679 4.67677ZM12.9067 10.1811C12.655 10.1811 12.4137 10.2811 12.2357 10.4591C12.0577 10.6371 11.9577 10.8784 11.9577 11.1301C11.9577 11.3818 12.0577 11.6232 12.2357 11.8012C12.4137 11.9792 12.655 12.0792 12.9067 12.0792C13.1584 12.0792 13.3998 11.9792 13.5778 11.8012C13.7558 11.6232 13.8558 11.3818 13.8558 11.1301C13.8558 10.8784 13.7558 10.6371 13.5778 10.4591C13.3998 10.2811 13.1584 10.1811 12.9067 10.1811ZM12.9067 17.9631C13.1081 17.9631 13.3012 17.8831 13.4436 17.7408C13.586 17.5984 13.666 17.4053 13.666 17.2039V14.167C13.666 13.9657 13.586 13.7726 13.4436 13.6302C13.3012 13.4878 13.1081 13.4078 12.9067 13.4078C12.7054 13.4078 12.5123 13.4878 12.3699 13.6302C12.2275 13.7726 12.1475 13.9657 12.1475 14.167V17.2039C12.1475 17.4053 12.2275 17.5984 12.3699 17.7408C12.5123 17.8831 12.7054 17.9631 12.9067 17.9631ZM12.9067 7.33404C12.0094 7.33404 11.1209 7.51078 10.2919 7.85417C9.46286 8.19756 8.70959 8.70087 8.07509 9.33537C7.44059 9.96987 6.93728 10.7231 6.59389 11.5522C6.2505 12.3812 6.07376 13.2697 6.07376 14.167C6.07376 15.0643 6.2505 15.9529 6.59389 16.7819C6.93728 17.6109 7.44059 18.3642 8.07509 18.9987C8.70959 19.6332 9.46286 20.1365 10.2919 20.4799C11.1209 20.8233 12.0094 21 12.9067 21C14.719 21 16.457 20.2801 17.7384 18.9987C19.0198 17.7172 19.7397 15.9792 19.7397 14.167C19.7397 12.3548 19.0198 10.6168 17.7384 9.33537C16.457 8.05394 14.719 7.33404 12.9067 7.33404ZM12.9067 8.85248C14.3162 8.85248 15.668 9.4124 16.6647 10.4091C17.6614 11.4057 18.2213 12.7575 18.2213 14.167C18.2213 15.5765 17.6614 16.9283 16.6647 17.925C15.668 18.9216 14.3162 19.4816 12.9067 19.4816C11.4972 19.4816 10.1455 18.9216 9.14879 17.925C8.15212 16.9283 7.5922 15.5765 7.5922 14.167C7.5922 12.7575 8.15212 11.4057 9.14879 10.4091C10.1455 9.4124 11.4972 8.85248 12.9067 8.85248Z" fill="#58595B"/>
</svg>
