<svg width="32" height="32" viewBox="0 0 32 32" fill="none" xmlns="http://www.w3.org/2000/svg">
<path d="M17.8855 13.8713C17.8855 13.6326 17.9803 13.4037 18.1491 13.2349C18.3179 13.0661 18.5468 12.9713 18.7855 12.9713H25.3855C25.6242 12.9713 25.8531 13.0661 26.0219 13.2349C26.1907 13.4037 26.2855 13.6326 26.2855 13.8713C26.2855 14.11 26.1907 14.3389 26.0219 14.5077C25.8531 14.6765 25.6242 14.7713 25.3855 14.7713H18.7855C18.5468 14.7713 18.3179 14.6765 18.1491 14.5077C17.9803 14.3389 17.8855 14.11 17.8855 13.8713ZM18.7855 17.7713C18.5468 17.7713 18.3179 17.8661 18.1491 18.0349C17.9803 18.2037 17.8855 18.4326 17.8855 18.6713C17.8855 18.91 17.9803 19.1389 18.1491 19.3077C18.3179 19.4765 18.5468 19.5713 18.7855 19.5713H25.3855C25.6242 19.5713 25.8531 19.4765 26.0219 19.3077C26.1907 19.1389 26.2855 18.91 26.2855 18.6713C26.2855 18.4326 26.1907 18.2037 26.0219 18.0349C25.8531 17.8661 25.6242 17.7713 25.3855 17.7713H18.7855ZM13.3855 13.8713C13.3855 14.4282 13.1642 14.9624 12.7704 15.3562C12.3766 15.75 11.8424 15.9713 11.2855 15.9713C10.7285 15.9713 10.1944 15.75 9.80056 15.3562C9.40673 14.9624 9.18548 14.4282 9.18548 13.8713C9.18548 13.3143 9.40673 12.7802 9.80056 12.3864C10.1944 11.9925 10.7285 11.7713 11.2855 11.7713C11.8424 11.7713 12.3766 11.9925 12.7704 12.3864C13.1642 12.7802 13.3855 13.3143 13.3855 13.8713ZM8.28548 17.1713H14.2855C14.6037 17.1713 14.909 17.2977 15.134 17.5228C15.3591 17.7478 15.4855 18.053 15.4855 18.3713V18.9713C15.4855 18.9713 14.8855 21.9713 11.2855 21.9713C7.68548 21.9713 7.08548 18.9713 7.08548 18.9713V18.3713C7.08548 18.053 7.21191 17.7478 7.43696 17.5228C7.662 17.2977 7.96722 17.1713 8.28548 17.1713ZM2.29028 7.87129C2.29028 6.99607 2.63796 6.15671 3.25683 5.53784C3.8757 4.91897 4.71507 4.57129 5.59028 4.57129H27.7855C28.6607 4.57129 29.5001 4.91897 30.1189 5.53784C30.7378 6.15671 31.0855 6.99607 31.0855 7.87129V25.2713C31.0855 26.1465 30.7378 26.9859 30.1189 27.6047C29.5001 28.2236 28.6607 28.5713 27.7855 28.5713H5.59148C4.71627 28.5713 3.8769 28.2236 3.25803 27.6047C2.63916 26.9859 2.29148 26.1465 2.29148 25.2713V7.87129H2.29028ZM5.59028 6.37129C4.76228 6.37129 4.09028 7.04329 4.09028 7.87129V25.2713C4.09028 26.0993 4.76228 26.7713 5.59028 26.7713H27.7855C28.6135 26.7713 29.2855 26.0993 29.2855 25.2713V7.87129C29.2855 7.04329 28.6135 6.37129 27.7855 6.37129H5.59148H5.59028Z" fill="#323232"/>
</svg>
