<svg width="21" height="22" viewBox="0 0 21 22" fill="none" xmlns="http://www.w3.org/2000/svg">
<path d="M0.5 5.09857H2.03286V3.56571C2.03286 2.75264 2.35585 1.97286 2.93078 1.39793C3.50572 0.822994 4.28549 0.5 5.09857 0.5H17.3614C18.1745 0.5 18.9543 0.822994 19.5292 1.39793C20.1041 1.97286 20.4271 2.75264 20.4271 3.56571V18.8943C20.4271 19.7074 20.1041 20.4871 19.5292 21.0621C18.9543 21.637 18.1745 21.96 17.3614 21.96H5.09857C4.28549 21.96 3.50572 21.637 2.93078 21.0621C2.35585 20.4871 2.03286 19.7074 2.03286 18.8943V17.3614H0.5M0.5 11.2308H2.03286M0.5 8.16533H2.03286M0.5 14.2962H2.03286M14.2831 8.1656C14.2831 9.85874 12.9106 11.2313 11.2174 11.2313C9.52428 11.2313 8.15171 9.85874 8.15171 8.1656C8.15171 6.47245 9.52428 5.09988 11.2174 5.09988C12.9106 5.09988 14.2831 6.47245 14.2831 8.1656ZM15.8349 15.8294V14.2965C15.8349 13.4834 15.5119 12.7036 14.9369 12.1287C14.362 11.5538 13.5822 11.2308 12.7691 11.2308H9.70343C8.89035 11.2308 8.11057 11.5538 7.53564 12.1287C6.96071 12.7036 6.63771 13.4834 6.63771 14.2965V15.8294C6.63771 16.2359 6.79921 16.6258 7.08668 16.9133C7.37414 17.2007 7.76403 17.3622 8.17057 17.3622H14.302C14.7085 17.3622 15.0984 17.2007 15.3859 16.9133C15.6734 16.6258 15.8349 16.2359 15.8349 15.8294Z" stroke="black" stroke-linecap="round" stroke-linejoin="round"/>
</svg>
