<svg width="10" height="14" viewBox="0 0 10 14" fill="none" xmlns="http://www.w3.org/2000/svg">
<path d="M9.55552 13.2175C9.10999 13.5176 8.38735 13.498 7.97806 13.1629C5.69928 11.346 3.42689 9.52402 1.15237 7.70372C0.667407 7.35074 0.67167 6.6806 1.15663 6.32848C3.37573 4.55081 5.60122 2.77655 7.81712 0.997175C8.058 0.786583 8.37349 0.610948 8.74441 0.606685C9.33382 0.57258 9.89872 0.940904 9.98399 1.40728C10.0511 1.72103 9.90298 2.04758 9.61627 2.26414C7.63486 3.84912 5.65238 5.43325 3.67097 7.01908C5.66837 8.6177 7.67216 10.2121 9.66423 11.815C10.1513 12.1918 10.0906 12.8901 9.55552 13.2175Z" fill="#313131"/>
</svg>
