<svg width="14" height="18" viewBox="0 0 14 18" fill="none" xmlns="http://www.w3.org/2000/svg">
<path d="M7.00099 1.89076e-09C7.73152 -2.67084e-05 8.43366 0.282946 8.96002 0.789521C9.48638 1.2961 9.79604 1.98688 9.82399 2.71688L9.82595 2.82496H13.3879C13.5449 2.82547 13.6959 2.88615 13.8096 2.99452C13.9233 3.10289 13.9911 3.25072 13.9992 3.40759C14.0072 3.56447 13.9549 3.71846 13.8529 3.83791C13.7509 3.95736 13.6069 4.03317 13.4507 4.04977L13.3879 4.05321H12.8519L12.0152 15.1418C11.9755 15.6669 11.739 16.1576 11.3529 16.5156C10.9668 16.8737 10.4596 17.0726 9.93306 17.0726H4.06893C3.54236 17.0726 3.03523 16.8737 2.64913 16.5156C2.26302 16.1576 2.02645 15.6669 1.98681 15.1418L1.14964 4.05321H0.614122C0.462086 4.05328 0.315429 3.99695 0.20253 3.89512C0.0896307 3.79329 0.018516 3.65321 0.00294757 3.50197L0 3.43908C0 3.12121 0.241718 2.85935 0.551236 2.8284L0.614122 2.82496H4.17603C4.17603 2.07574 4.47366 1.3572 5.00344 0.827412C5.53323 0.297629 6.25177 1.89076e-09 7.00099 1.89076e-09ZM11.6202 4.05321H2.38181L3.2121 15.0494C3.22845 15.2655 3.3258 15.4675 3.48467 15.6149C3.64354 15.7623 3.85221 15.8442 4.06893 15.8444H9.93306C10.1499 15.8443 10.3586 15.7624 10.5176 15.615C10.6766 15.4676 10.774 15.2656 10.7904 15.0494L11.6207 4.05321H11.6202ZM8.59771 6.63252C8.91558 6.63252 9.17744 6.87424 9.20888 7.18376L9.21183 7.24664V12.6509C9.21257 12.8088 9.15244 12.961 9.04394 13.0757C8.93544 13.1905 8.7869 13.259 8.62919 13.2671C8.47148 13.2752 8.31671 13.2222 8.19703 13.1192C8.07736 13.0161 8.00197 12.871 7.98654 12.7138L7.98359 12.6509V7.24664C7.98359 6.90765 8.25871 6.63252 8.59771 6.63252ZM5.40427 6.63252C5.72214 6.63252 5.98401 6.87424 6.01545 7.18376L6.0184 7.24664V12.6509C6.01913 12.8088 5.959 12.961 5.8505 13.0757C5.742 13.1905 5.59347 13.259 5.43576 13.2671C5.27805 13.2752 5.12328 13.2222 5.0036 13.1192C4.88392 13.0161 4.80854 12.871 4.7931 12.7138L4.79015 12.6509V7.24664C4.79015 6.90765 5.06528 6.63252 5.40427 6.63252ZM7.00099 1.22824C6.59315 1.22822 6.20075 1.38426 5.9043 1.66436C5.60785 1.94445 5.42982 2.32737 5.40673 2.73456L5.40427 2.82496H8.59771C8.59771 2.40149 8.42948 1.99535 8.13004 1.69591C7.8306 1.39647 7.42447 1.22824 7.00099 1.22824Z" fill="#90959F"/>
</svg>
