<svg width="740" height="129" viewBox="0 0 740 129" fill="none" xmlns="http://www.w3.org/2000/svg">
  <g clip-path="url(#a)" fill="#fff">
    <path d="M82.61 83.19c8.88-2.64 18.67-2.09 29.9 1.68v-.09a57.745 57.745 0 0 0 3.72-23.48l-.9-.34a55.86 55.86 0 0 0-18.82-3.66 44.11 44.11 0 0 0-32.57 12.88c-1.82 1.82-3.66 3.73-5.44 5.57-6.81 7.08-13.82 14.36-22.74 19.2a41.099 41.099 0 0 1-13.29 4.43 45.328 45.328 0 0 0 32.12-1.39 94.495 94.495 0 0 0 10.91-6.17c5.33-3.32 10.81-6.75 17.11-8.63Z"/>
    <path d="M103.83 28.3c-9.35-.93-17.35-.47-24.44 1.4a51.16 51.16 0 0 0-24.83 15.26c-4.86 5.47-8.63 12.14-12.27 18.59-1.53 2.71-3.11 5.51-4.78 8.23-6.11 10-12.37 16.76-19.41 20.86a31.38 31.38 0 0 0 14.21-4c7.93-4.3 14.54-11.17 20.93-17.81 1.83-1.9 3.71-3.85 5.6-5.73a51.26 51.26 0 0 1 37.8-15 62.445 62.445 0 0 1 18.61 3.2 58.269 58.269 0 0 0-11.42-25Z"/>
    <path d="M3.74 43.64a58.33 58.33 0 0 0 2.09 46c1.433-.29 2.84-.69 4.21-1.2 7.74-2.89 14.49-9.39 21.26-20.46 1.6-2.62 3.15-5.36 4.65-8 3.83-6.78 7.79-13.8 13.17-19.85a58.48 58.48 0 0 1 28.41-17.46 68.499 68.499 0 0 1 19-2.1A58.17 58.17 0 0 0 3.76 43.7l-.02-.06ZM69.4 97.98a97.85 97.85 0 0 1-11.79 6.65 51.89 51.89 0 0 1-39.37 1l-1.47-.58a58.163 58.163 0 0 0 49.78 16.663A58.175 58.175 0 0 0 109.48 91.5c-9.47-3.06-17.59-3.51-24.79-1.37-5.36 1.64-10.18 4.66-15.29 7.85ZM138.04 90.39h16.69v5.56h-10.37v7.52h10.11v5.57h-10.11v12.78h-6.32V90.39ZM179.66 121.82h-5.22v-3.1c-1 1.83-3.06 3.87-7.27 3.82-7.64 0-9.09-5.86-9.09-9.94V98.5h5.57v12.7c0 3.44 1.15 6.16 5.1 6.12 3.95-.04 5.35-2.63 5.35-5.95V98.5h5.56v23.32ZM184.34 98.5h5.22v3.1c1-1.82 3.1-3.86 7.26-3.82 7.6 0 9.05 5.86 9.05 10v14.06h-5.57v-12.68c0-3.48-1.14-6.16-5.05-6.16s-5.31 2.68-5.31 5.95v12.87h-5.6V98.5ZM234.29 121.82h-5.35v-3.35c-1 1.74-3.23 4.07-8 4.07-7.18 0-11.81-5.6-11.81-12.4 0-7.56 5.4-12.36 11.73-12.36 4.46 0 7 2.38 7.81 3.74V90.39h5.57l.05 31.43Zm-19.54-11.68a7 7 0 0 0 7.19 7.16 7.323 7.323 0 0 0 5.18-2.12 7.408 7.408 0 0 0-.09-10.2 7.099 7.099 0 0 0-5.05-2 6.989 6.989 0 0 0-6.672 4.376 7.011 7.011 0 0 0-.508 2.764l-.05.02ZM138.04 9.75h17.62v5.55h-11.3v7.13h11.09V28h-11.09v7.6h11.3v5.57h-17.62V9.75ZM159.61 17.87h5.23v3.1c1-1.83 3.1-3.87 7.26-3.83 7.6.05 9.05 5.87 9.05 10V41.2h-5.61V28.53c0-3.48-1.14-6.16-5.05-6.16s-5.31 2.68-5.31 5.95v12.87h-5.57V17.87ZM195.94 41.19h-5.4l-8.67-23.32h5.78l5.61 16.31 5.6-16.31h5.78l-8.7 23.32ZM207.15 9.75h5.56v5h-5.56v-5Zm0 8.12h5.56v23.32h-5.56V17.87ZM217.3 17.87h5.27v3.06c1-2.09 2.93-3.74 6.45-3.79v5.61h-.25c-3.91 0-5.91 1.83-5.91 5.86v12.58h-5.56V17.87ZM228.94 29.46a12.487 12.487 0 0 1 7.655-11.596 12.488 12.488 0 0 1 17.079 9.05 12.493 12.493 0 0 1-5.297 12.845 12.486 12.486 0 0 1-6.947 2.11 12.119 12.119 0 0 1-12.49-12.41Zm5.56.09a6.91 6.91 0 1 0 13.808-.54 6.91 6.91 0 0 0-13.808.54ZM257.4 17.87h5.22v3.1c1-1.83 3.1-3.87 7.26-3.83 7.61.05 9.05 5.87 9.05 10V41.2h-5.56V28.53c0-3.48-1.15-6.16-5.06-6.16-3.91 0-5.37 2.68-5.37 5.93v12.87h-5.56l.02-23.3ZM283.48 17.87h5.22v2.93a7.69 7.69 0 0 1 6.8-3.66 7.587 7.587 0 0 1 5.73 2.38c.551.65 1.021 1.366 1.4 2.13a9.924 9.924 0 0 1 1.7-2.21 9.108 9.108 0 0 1 12.15 0c2.13 2.21 2.55 4.12 2.55 8.92v12.79h-5.56V28.61a7.91 7.91 0 0 0-.94-4.33 3.703 3.703 0 0 0-3.65-1.91 4.403 4.403 0 0 0-4 2.12 7.422 7.422 0 0 0-.8 3.91v12.79h-5.57V28.4a8.494 8.494 0 0 0-.72-3.86 4.086 4.086 0 0 0-3.82-2.17 4.348 4.348 0 0 0-4 2.17 8.455 8.455 0 0 0-.89 4v12.62h-5.56l-.04-23.29ZM327.7 31.37c.25 3.74 3.57 5.82 6.75 5.78a5.998 5.998 0 0 0 5.61-3.14h5.73a13.168 13.168 0 0 1-4.71 5.86 11.57 11.57 0 0 1-6.67 2 12.39 12.39 0 0 1-.09-24.77 11.915 11.915 0 0 1 8.71 3.57 12.565 12.565 0 0 1 3.44 10.66l-18.77.04Zm13.29-4.24a6.419 6.419 0 0 0-6.62-5.27 6.308 6.308 0 0 0-6.59 5.27h13.21ZM349.87 17.87h5.23v3.1c1-1.83 3.1-3.87 7.27-3.83 7.6.05 9 5.87 9 10V41.2h-5.56V28.53c0-3.48-1.15-6.16-5.06-6.16-3.91 0-5.3 2.68-5.3 5.95v12.87h-5.57l-.01-23.32ZM377.48 22.16h-3.86v-4.29h3.86V9.75h5.57v8.12h4v4.29h-4v19h-5.57v-19ZM412.44 41.19h-5.57v-3.36c-1.48 2.72-4.58 4.08-7.85 4.08-7.48 0-11.85-5.82-11.85-12.4 0-7.35 5.31-12.37 11.85-12.37a8.708 8.708 0 0 1 7.85 4.12v-3.39h5.57v23.32Zm-19.71-11.56a7.009 7.009 0 0 0 4.36 6.584 7.002 7.002 0 0 0 2.73.516 6.629 6.629 0 0 0 6.21-3.74 8.138 8.138 0 0 0 .89-3.27 7.233 7.233 0 0 0-.64-3.27 6.836 6.836 0 0 0-6.5-4.12 7.003 7.003 0 0 0-7.05 7.26v.04ZM417.11 9.75h5.57v31.44h-5.57V9.75ZM138.04 50.07h10c3.91 0 9.6.38 13.33 5.44a15.911 15.911 0 0 1 3.23 10.24c0 8.87-4.67 15.75-16.1 15.75h-10.46V50.07Zm6.32 25.87h4.46c6.8 0 9.43-4.46 9.43-10.11.055-2.5-.688-4.95-2.12-7-1.32-1.7-3.44-3.14-7.26-3.14h-4.51v20.25ZM172.19 71.69c.25 3.74 3.57 5.82 6.75 5.78a5.999 5.999 0 0 0 5.61-3.14h5.73a13.168 13.168 0 0 1-4.71 5.86 11.57 11.57 0 0 1-6.67 2 12.39 12.39 0 0 1-.09-24.77 11.913 11.913 0 0 1 8.71 3.57 12.57 12.57 0 0 1 3.42 10.7h-18.75Zm13.29-4.25a6.417 6.417 0 0 0-6.62-5.26 6.312 6.312 0 0 0-6.59 5.26h13.21ZM194.7 62.47h-2.89v-4.29h2.89v-1.31c0-6.93 5.27-7.35 9.26-7.39v4.29c-1.4 0-3.69 0-3.69 3.27v1.14h3.67v4.29h-3.69v19h-5.57l.02-19ZM209.44 71.69c.26 3.74 3.57 5.82 6.75 5.78a5.999 5.999 0 0 0 5.61-3.14h5.74a13.247 13.247 0 0 1-4.72 5.86 11.55 11.55 0 0 1-6.67 2 12.39 12.39 0 0 1-.08-24.77 11.89 11.89 0 0 1 8.7 3.57 12.562 12.562 0 0 1 3.44 10.66l-18.77.04Zm13.3-4.25a6.437 6.437 0 0 0-6.63-5.26 6.297 6.297 0 0 0-6.58 5.26h13.21ZM231.61 58.18h5.23v3.11c1-1.83 3.1-3.87 7.26-3.83 7.6 0 9.05 5.86 9.05 10V81.5h-5.61V68.85c0-3.49-1.14-6.16-5.05-6.16s-5.31 2.67-5.31 5.94V81.5h-5.57V58.18ZM267.8 64.47c0-1.23-.68-2.5-2.84-2.5-1.87 0-2.76 1.18-2.76 2.33 0 1.49 1.74 2.3 3.95 2.93 3.74 1 7.77 2.13 7.81 7.14.09 4.8-3.95 7.86-8.83 7.86-3.61 0-8.5-1.87-8.92-7.52h5.56a3.249 3.249 0 0 0 3.44 3c1.74 0 3.23-1.14 3.19-2.71 0-2-1.74-2.55-6-4-3.15-1-5.69-2.72-5.74-6.07 0-4.59 3.87-7.44 8.37-7.44 3.14 0 7.82 1.4 8.28 7l-5.51-.02ZM281.4 71.69c.25 3.74 3.56 5.82 6.75 5.78a5.999 5.999 0 0 0 5.61-3.14h5.73a13.168 13.168 0 0 1-4.71 5.86 11.57 11.57 0 0 1-6.67 2 12.39 12.39 0 0 1-.09-24.77 11.913 11.913 0 0 1 8.71 3.57 12.562 12.562 0 0 1 3.44 10.66l-18.77.04Zm13.29-4.25a6.417 6.417 0 0 0-6.62-5.26 6.312 6.312 0 0 0-6.59 5.26h13.21ZM472.26 128.6a1.142 1.142 0 0 1-1.13-1.13V1.13a1.13 1.13 0 1 1 2.26 0v126.34a1.13 1.13 0 0 1-1.13 1.13ZM496.76 34h16.44c4.42 0 7.63 1.08 9.63 3.24 2 2.17 3 5.69 3 10.59v2.68c0 5.78-2.07 9.237-6.21 10.37a7.652 7.652 0 0 1 5.36 4.58 24.524 24.524 0 0 1 1.55 9.53c0 6.44-.963 11.32-2.89 14.64-1.927 3.32-5.407 4.987-10.44 5h-16.44V34Zm14.32 22.79a2.139 2.139 0 0 0 2.12-1.17c.421-1.04.612-2.16.56-3.28V46.3c0-2-.87-3-2.61-3h-2.54v13.48l2.47.01Zm3.46 22.64v-7.55a8.529 8.529 0 0 0-.81-4.16 3 3 0 0 0-2.86-1.41h-2.26v17.57l1.2.07c3.153 0 4.73-1.507 4.73-4.52ZM534.19 90.93c-2.427-2.82-3.64-7.003-3.64-12.55V34h11.79v43.88a14.24 14.24 0 0 0 .56 4.52 2.598 2.598 0 0 0 3.842 1.163c.427-.284.761-.69.958-1.163a14.37 14.37 0 0 0 .56-4.55V34h11.78v44.38c0 5.547-1.21 9.73-3.63 12.55-2.42 2.82-6.123 4.233-11.11 4.24-4.987 0-8.69-1.413-11.11-4.24ZM567.88 91.08c-2.453-2.727-3.677-7.127-3.67-13.2v-5.92h11.92v7.54c0 3.007.963 4.513 2.89 4.52a2.526 2.526 0 0 0 2.26-1 6.079 6.079 0 0 0 .64-3.21 14.554 14.554 0 0 0-.71-4.91 10.67 10.67 0 0 0-1.8-3.24c-.733-.873-2.04-2.227-3.92-4.06l-5.22-5.22c-4.04-3.947-6.06-8.32-6.06-13.12 0-5.18 1.18-9.11 3.56-11.82 2.38-2.71 5.84-4.06 10.41-4.06 5.453 0 9.38 1.447 11.78 4.34 2.4 2.893 3.6 7.42 3.6 13.58h-12.35l-.07-4.16a2.671 2.671 0 0 0-.67-1.9 2.46 2.46 0 0 0-1.87-.71 2.72 2.72 0 0 0-2.12.78 3.002 3.002 0 0 0-.7 2.11c0 2 1.12 4 3.38 6.14l7.06 6.77a40.312 40.312 0 0 1 4.09 4.56 17.735 17.735 0 0 1 2.61 5.08 21.711 21.711 0 0 1 1 6.94c0 6-1.093 10.53-3.28 13.59-2.187 3.06-5.797 4.6-10.83 4.62-5.507.033-9.483-1.313-11.93-4.04ZM598.07 94.6V34h11.71v60.6h-11.71ZM615.35 94.6V34h12.49l5.58 29V34h11.71v60.6h-11.86l-6.06-30.3v30.3h-11.86ZM651.19 94.6V34h24.28v11.71h-11.93v11.78h11.4v11.43h-11.4v13.9h12.7V94.6h-25.05ZM683.44 91.08c-2.453-2.727-3.677-7.127-3.67-13.2v-5.92h11.92v7.54c0 3.007.963 4.513 2.89 4.52a2.526 2.526 0 0 0 2.26-1 6.079 6.079 0 0 0 .64-3.21 14.554 14.554 0 0 0-.71-4.91 10.67 10.67 0 0 0-1.8-3.24c-.733-.873-2.037-2.227-3.91-4.06l-5.23-5.22c-4.04-3.947-6.06-8.32-6.06-13.12 0-5.18 1.19-9.11 3.56-11.82 2.37-2.71 5.84-4.06 10.41-4.06 5.453 0 9.38 1.447 11.78 4.34 2.4 2.893 3.6 7.42 3.6 13.58h-12.35l-.07-4.16a2.624 2.624 0 0 0-.67-1.9 2.46 2.46 0 0 0-1.87-.71 2.72 2.72 0 0 0-2.12.78 3.002 3.002 0 0 0-.7 2.11c0 2 1.127 4.047 3.38 6.14l7.06 6.77a40.312 40.312 0 0 1 4.09 4.56 17.735 17.735 0 0 1 2.61 5.08 21.711 21.711 0 0 1 1 6.94c0 6-1.093 10.53-3.28 13.59-2.187 3.06-5.797 4.6-10.83 4.62-5.507.033-9.483-1.313-11.93-4.04ZM713.84 91.08c-2.44-2.727-3.663-7.127-3.67-13.2v-5.92h11.93v7.54c0 3.007.963 4.513 2.89 4.52a2.526 2.526 0 0 0 2.26-1 6.105 6.105 0 0 0 .63-3.21 14.576 14.576 0 0 0-.7-4.91 10.67 10.67 0 0 0-1.8-3.24c-.733-.873-2.04-2.227-3.92-4.06l-5.22-5.22c-4.047-3.947-6.07-8.32-6.07-13.12 0-5.18 1.19-9.11 3.57-11.82 2.38-2.71 5.84-4.06 10.4-4.06 5.46 0 9.39 1.447 11.79 4.34 2.4 2.893 3.597 7.42 3.59 13.58h-12.34l-.07-4.16a2.671 2.671 0 0 0-.67-1.9 2.46 2.46 0 0 0-1.87-.71 2.72 2.72 0 0 0-2.12.78 3.002 3.002 0 0 0-.7 2.11c0 2 1.12 4 3.38 6.14l7.06 6.77a40.216 40.216 0 0 1 4.09 4.56 17.735 17.735 0 0 1 2.61 5.08 21.711 21.711 0 0 1 1 6.94c0 6-1.093 10.53-3.28 13.59-2.187 3.06-5.797 4.6-10.83 4.62-5.513.033-9.493-1.313-11.94-4.04Z"/>
  </g>
  <defs>
    <clipPath id="a">
      <path fill="#fff" d="M0 0h739.87v128.59H0z"/>
    </clipPath>
  </defs>
</svg>
