<svg width="16" height="16" viewBox="0 0 16 16" fill="none" xmlns="http://www.w3.org/2000/svg">
<path fill-rule="evenodd" clip-rule="evenodd" d="M4 0.888889C4 0.397778 4.35822 0 4.8 0H15.2C15.6418 0 16 0.397778 16 0.888889V15.1111C16 15.6022 15.6418 16 15.2 16H4.8C4.35822 16 4 15.6022 4 15.1111V12.4444H0.8C0.358222 12.4444 0 12.0467 0 11.5556V4.44444C0 3.95333 0.358222 3.55556 0.8 3.55556H4V0.888889ZM9.77778 3.55556V0.888889H4.88889V3.55556H9.77778ZM10.6667 0.888889V3.55556H15.1111V0.888889H10.6667ZM9.77778 4.44444H8V7.55556H9.77778V4.44444ZM10.6667 7.55556V4.44444H15.1111V7.55556H10.6667ZM9.77778 8.44444H8V11.5556H9.77778V8.44444ZM10.6667 11.5556V8.44444H15.1111V11.5556H10.6667ZM9.77778 12.4444H4.88889V15.1111H9.77778V12.4444ZM10.6667 15.1111V12.4444H15.1111V15.1111H10.6667ZM7.11111 4.44444V11.5556H0.8V4.44444H7.11111ZM2.32267 5.77778H3.27689L4.05156 7.44622L4.86978 5.77778H5.76133L4.53333 8L5.78978 10.2222H4.84889L4.00489 8.47556L3.16489 10.2222H2.21022L3.48756 7.992L2.32267 5.77778Z" fill="#2D637F"/>
</svg>
