<?xml version="1.0" encoding="UTF-8"?> <svg xmlns="http://www.w3.org/2000/svg" xmlns:xlink="http://www.w3.org/1999/xlink" width="49" height="49"><defs><path id="a" d="M0 .046h48.217v48.206H0z"></path></defs><g fill="none" fill-rule="evenodd"><g><mask id="b" fill="#fff"><use xlink:href="#a"></use></mask><path d="M24.108 48.263c13.317 0 24.109-10.794 24.109-24.109C48.217 10.84 37.425.046 24.108.046 10.793.046 0 10.84 0 24.154c0 13.315 10.793 24.11 24.108 24.11" fill="#0077B5" mask="url(#b)"></path></g><path d="M36.163 34.238h-5.33v-7.782c0-2.038-.832-3.427-2.665-3.427-1.403 0-2.181.938-2.545 1.842-.135.324-.114.776-.114 1.23v8.137h-5.28s.07-13.786 0-15.039h5.28v2.36c.312-1.032 1.998-2.505 4.69-2.505 3.34 0 5.964 2.164 5.964 6.822v8.362zM14.89 17.318h-.034c-1.7 0-2.803-1.15-2.803-2.606 0-1.485 1.136-2.611 2.87-2.611 1.734 0 2.8 1.123 2.834 2.607 0 1.457-1.1 2.61-2.867 2.61zm-2.23 16.92h4.7V19.199h-4.7v15.039z" fill="#FFF"></path></g></svg> 