<svg width="740" height="106" viewBox="0 0 740 106" fill="none" xmlns="http://www.w3.org/2000/svg">
  <g clip-path="url(#a)">
    <path d="M67.81 68.15c7.29-2.17 15.33-1.72 24.55 1.37v-.07a47.37 47.37 0 0 0 3-19.24l-.74-.28a45.75 45.75 0 0 0-15.44-3.07 36.19 36.19 0 0 0-26.71 10.61c-1.5 1.49-3 3.06-4.48 4.57-5.59 5.81-11.34 11.79-18.66 15.76a34 34 0 0 1-10.91 3.64 37.23 37.23 0 0 0 26.36-1.14 78.057 78.057 0 0 0 9-5.07c4.37-2.73 8.86-5.54 14.03-7.08Z" fill="#093"/>
    <path d="M85.24 23.05a56.001 56.001 0 0 0-20.07 1.15 41.93 41.93 0 0 0-20.38 12.53c-4 4.48-7.08 10-10.07 15.25-1.26 2.23-2.56 4.53-3.93 6.76-5 8.21-10.16 13.75-15.93 17.12a25.68 25.68 0 0 0 11.67-3.31c6.5-3.54 11.93-9.17 17.18-14.62 1.5-1.56 3-3.16 4.59-4.7a42 42 0 0 1 31-12.34c5.2.112 10.354 1.02 15.28 2.69a48 48 0 0 0-9.34-20.53Z" fill="#A1E214"/>
    <path d="M3.07 35.64a47.9 47.9 0 0 0 1.72 37.72 23.87 23.87 0 0 0 3.45-1c6.35-2.37 11.9-7.71 17.45-16.8 1.32-2.15 2.59-4.4 3.82-6.57 3.14-5.57 6.4-11.33 10.81-16.3a48.06 48.06 0 0 1 23.32-14.33 56.65 56.65 0 0 1 15.58-1.73 47.299 47.299 0 0 0-14.61-8.77A47.79 47.79 0 0 0 3.07 35.64Z" fill="#3CF"/>
    <path d="M56.94 80.29a82.587 82.587 0 0 1-9.68 5.46 42.61 42.61 0 0 1-32.32.89l-1.2-.48a47.74 47.74 0 0 0 76.1-11.12c-7.77-2.51-14.44-2.88-20.35-1.12-4.37 1.27-8.33 3.72-12.55 6.37ZM113.31 74.06h13.7v4.58h-8.51v6.18h8.3v4.56h-8.3v10.5h-5.19V74.06ZM147.48 99.86h-4.29v-2.55c-.8 1.5-2.51 3.18-6 3.14-6.28 0-7.46-4.81-7.46-8.16V80.72h4.56v10.42c0 2.83.95 5.06 4.19 5 3.24-.06 4.39-2.16 4.39-4.88V80.72h4.57l.04 19.14ZM151.32 80.72h4.28v2.54c.84-1.5 2.54-3.17 6-3.14 6.24 0 7.43 4.81 7.43 8.2v11.54h-4.57V89.47c0-2.86-.94-5.06-4.15-5.06-3.21 0-4.36 2.2-4.36 4.88v10.57h-4.56l-.07-19.14ZM192.32 99.86h-4.38V97.1c-.83 1.43-2.65 3.35-6.55 3.35-5.9 0-9.7-4.6-9.7-10.18 0-6.21 4.43-10.15 9.63-10.15a7.451 7.451 0 0 1 6.41 3.07v-9.13h4.57l.02 25.8Zm-16-9.59a5.713 5.713 0 0 0 5.86 5.89 5.999 5.999 0 0 0 4.25-1.74 6.06 6.06 0 0 0-.07-8.37 5.79 5.79 0 0 0-4.15-1.67 5.722 5.722 0 0 0-5.89 5.85v.04ZM113.31 7.86h14.47v4.57h-9.28v5.86h9.1v4.57h-9.1v6.24h9.28v4.54h-14.47V7.86ZM131.02 14.52h4.29v2.55c.83-1.5 2.54-3.17 6-3.14 6.24 0 7.43 4.81 7.43 8.2v11.51h-4.57V23.28c0-2.86-.94-5.06-4.15-5.06-3.21 0-4.36 2.2-4.36 4.88v10.54h-4.57l-.07-19.12ZM160.87 33.64h-4.46l-7.12-19.15h4.75l4.6 13.39 4.6-13.39h4.7l-7.07 19.15ZM170.04 7.86h4.57v4.08h-4.57V7.86Zm0 6.66h4.57v19.12h-4.57V14.52ZM178.37 14.52h4.33v2.52a5.468 5.468 0 0 1 5.3-3.11v4.6h-.21c-3.21 0-4.85 1.5-4.85 4.82v10.29h-4.57V14.52ZM187.94 24.04a10.247 10.247 0 0 1 12.206-10.131 10.254 10.254 0 0 1 8.092 8.035A10.25 10.25 0 0 1 198.19 34.22a9.947 9.947 0 0 1-9.533-6.23 9.944 9.944 0 0 1-.717-3.95Zm4.57.07a5.671 5.671 0 1 0 5.68-5.89 5.676 5.676 0 0 0-5.309 3.652 5.68 5.68 0 0 0-.371 2.238ZM211.29 14.52h4.29v2.55c.84-1.5 2.55-3.17 6-3.14 6.24 0 7.42 4.81 7.42 8.2v11.51h-4.56V23.28c0-2.86-.95-5.06-4.15-5.06s-4.36 2.2-4.36 4.88v10.54h-4.57l-.07-19.12ZM232.7 14.52h4.29v2.41a6.297 6.297 0 0 1 5.58-3 6.22 6.22 0 0 1 4.7 1.95 8.762 8.762 0 0 1 1.15 1.75c.379-.67.85-1.282 1.4-1.82a7.491 7.491 0 0 1 10 0c1.74 1.81 2.09 3.38 2.09 7.32v10.51h-4.56V23.35a6.533 6.533 0 0 0-.77-3.56 3.05 3.05 0 0 0-3-1.57 3.587 3.587 0 0 0-3.31 1.74 6.001 6.001 0 0 0-.67 3.21v10.47h-4.56v-10.5a6.927 6.927 0 0 0-.6-3.17 3.37 3.37 0 0 0-3.13-1.78 3.56 3.56 0 0 0-3.28 1.78 6.845 6.845 0 0 0-.73 3.31v10.36h-4.57l-.03-19.12ZM269 25.64a5.253 5.253 0 0 0 5.54 4.74 4.93 4.93 0 0 0 4.6-2.58h4.71a10.907 10.907 0 0 1-3.91 4.84 9.52 9.52 0 0 1-5.47 1.67 10.17 10.17 0 0 1-.07-20.33 9.73 9.73 0 0 1 7.14 2.93 10.353 10.353 0 0 1 2.83 8.75L269 25.64Zm10.94-3.51a5.272 5.272 0 0 0-5.44-4.33 5.169 5.169 0 0 0-5.4 4.33h10.84ZM287.2 14.52h4.29v2.55a6.262 6.262 0 0 1 6-3.14c6.25 0 7.43 4.81 7.43 8.2v11.51h-4.57V23.28c0-2.86-.94-5.06-4.15-5.06-3.21 0-4.35 2.2-4.35 4.88v10.54h-4.57l-.08-19.12ZM309.86 18.05h-3.17v-3.53h3.17V7.86h4.57v6.66h3.28v3.53h-3.28v15.59h-4.57V18.05ZM338.56 33.64h-4.57v-2.76a7.118 7.118 0 0 1-6.45 3.35c-6.14 0-9.73-4.78-9.73-10.18 0-6 4.36-10.15 9.73-10.15a7.153 7.153 0 0 1 6.45 3.38v-2.79h4.57v19.15Zm-16.18-9.49a5.738 5.738 0 0 0 1.68 4.143 5.755 5.755 0 0 0 4.14 1.687 5.418 5.418 0 0 0 5.09-3.07c.438-.833.69-1.75.74-2.69a5.932 5.932 0 0 0-.53-2.68 5.606 5.606 0 0 0-5.33-3.38 5.747 5.747 0 0 0-5.423 3.713 5.753 5.753 0 0 0-.367 2.287v-.01ZM342.4 7.86h4.54v25.78h-4.56l.02-25.78ZM113.31 40.96h8.19c3.21 0 7.88.31 10.95 4.46a13.097 13.097 0 0 1 2.65 8.41c0 7.28-3.83 12.93-13.21 12.93h-8.58v-25.8Zm5.19 21.23h3.67c5.57 0 7.74-3.66 7.74-8.29a9.68 9.68 0 0 0-1.75-5.79c-1.08-1.4-2.82-2.58-6-2.58h-3.7l.04 16.66ZM141.34 58.71a5.26 5.26 0 0 0 5.55 4.74 4.93 4.93 0 0 0 4.6-2.58h4.71a10.832 10.832 0 0 1-3.87 4.81 9.482 9.482 0 0 1-5.48 1.68 10.17 10.17 0 0 1-.07-20.33 9.77 9.77 0 0 1 7.15 2.93 10.334 10.334 0 0 1 2.83 8.75h-15.42Zm10.92-3.49a5.273 5.273 0 0 0-5.44-4.32 5.193 5.193 0 0 0-5.41 4.32h10.85ZM159.82 51.14h-2.37v-3.5h2.37v-1.1c0-5.68 4.33-6 7.61-6.07v3.52c-1.16 0-3 0-3 2.69v.96h3v3.52h-3v15.62h-4.57l-.04-15.64ZM171.94 58.71a5.259 5.259 0 0 0 5.55 4.74 4.93 4.93 0 0 0 4.6-2.58h4.71a10.828 10.828 0 0 1-3.86 4.77 9.48 9.48 0 0 1-5.48 1.68 10.17 10.17 0 0 1-.07-20.33 9.77 9.77 0 0 1 7.15 2.93 10.287 10.287 0 0 1 2.82 8.75l-15.42.04Zm10.92-3.49a5.273 5.273 0 0 0-5.44-4.32 5.193 5.193 0 0 0-5.41 4.32h10.85ZM190.12 47.64h4.29v2.55a6.234 6.234 0 0 1 6-3.14c6.24 0 7.43 4.81 7.43 8.19v11.54h-4.57V56.37c0-2.86-.94-5.05-4.15-5.05-3.21 0-4.36 2.19-4.36 4.88v10.56h-4.57l-.07-19.12ZM219.83 52.78a2.33 2.33 0 0 0-4.6-.14c0 1.22 1.43 1.88 3.24 2.41 3.07.83 6.38 1.74 6.42 5.85.07 3.94-3.24 6.46-7.25 6.46-3 0-7-1.54-7.33-6.18h4.57a2.677 2.677 0 0 0 2.83 2.48 2.393 2.393 0 0 0 2.61-2.23c0-1.64-1.43-2.09-4.95-3.31-2.58-.81-4.67-2.24-4.71-5 0-3.77 3.18-6.1 6.87-6.1 2.58 0 6.42 1.15 6.8 5.75l-4.5.01ZM230.99 58.71a5.26 5.26 0 0 0 5.54 4.74 4.94 4.94 0 0 0 4.61-2.58h4.7a10.691 10.691 0 0 1-3.9 4.77 9.43 9.43 0 0 1-5.47 1.68 10.169 10.169 0 0 1-.07-20.33 9.77 9.77 0 0 1 7.15 2.93 10.32 10.32 0 0 1 2.82 8.75l-15.38.04Zm10.95-3.49a5.26 5.26 0 0 0-5.44-4.32 5.17 5.17 0 0 0-5.4 4.32h10.84Z" fill="#03C"/>
    <path d="M387.56.79v103.69" stroke="#03C" stroke-width="1.581" stroke-miterlimit="10" stroke-linecap="round"/>
    <path d="M411.24 74.48c-2.18-2.267-3.267-5.383-3.26-9.35V42.28c0-4.92.98-8.63 2.94-11.13s5.037-3.75 9.23-3.75a12.74 12.74 0 0 1 8.83 3c2.233 2 3.347 4.883 3.34 8.65v8.59h-9.86v-7.33a5.823 5.823 0 0 0-.52-2.94 1.995 1.995 0 0 0-1.79-.81 1.868 1.868 0 0 0-1.82.93 6.003 6.003 0 0 0-.49 2.71v24.87a5.324 5.324 0 0 0 .58 2.85 1.908 1.908 0 0 0 1.73.9c1.54 0 2.31-1.25 2.31-3.75v-8.95h10v9.35c0 8.313-4.173 12.467-12.52 12.46a11.44 11.44 0 0 1-8.7-3.45ZM436.05 77.42V27.86h9.89V69h10.21v8.42h-20.1ZM459.35 77.42V27.86h9.59v49.56h-9.59ZM473.03 77.42V27.86h15.12l4.15 30.23 4.16-30.23h15.23v49.56h-9.06V41.71l-5.69 35.71h-8.89l-6.11-35.71v35.71h-8.91ZM515.18 77.42l4.76-49.56h16.79l4.73 49.56h-9.4l-.69-8h-6l-.58 8h-9.61Zm11-15.92h4.5l-2.2-25.22h-.46l-1.84 25.22ZM548.15 77.42v-40h-5.88V27.9h21.67v9.52h-5.88v40h-9.91ZM567.32 77.42V27.86h19.85v9.58h-9.75v9.63h9.34v9.35h-9.34v11.37h10.38v9.63h-20.48ZM608.6 74.48c-2.167-2.267-3.253-5.383-3.26-9.35V42.28c0-4.92 1-8.63 3-11.13s5.077-3.75 9.23-3.75c3.214-.152 6.366.92 8.82 3 2.24 2 3.357 4.883 3.35 8.65v8.59h-9.87v-7.33a6.002 6.002 0 0 0-.51-2.94 1.995 1.995 0 0 0-1.79-.81 1.868 1.868 0 0 0-1.82.93 5.88 5.88 0 0 0-.49 2.71v24.87a5.325 5.325 0 0 0 .58 2.85 1.911 1.911 0 0 0 1.73.9c1.54 0 2.3-1.25 2.3-3.75v-8.95h10v9.35c0 8.313-4.173 12.467-12.52 12.46a11.484 11.484 0 0 1-8.75-3.45ZM636.34 74.22c-2.08-2.44-3.12-5.873-3.12-10.3v-23.6c0-4.267 1.04-7.487 3.12-9.66 2.08-2.174 5.117-3.26 9.11-3.26 4 0 7.04 1.087 9.12 3.26 2.08 2.173 3.12 5.393 3.12 9.66v23.6c0 4.46-1.04 7.903-3.12 10.33-2.08 2.427-5.12 3.636-9.12 3.63-4 0-7.037-1.22-9.11-3.66Zm10.9-6.58a8.902 8.902 0 0 0 .46-3.23V40.15a6.742 6.742 0 0 0-.43-2.63 1.72 1.72 0 0 0-1.76-1c-1.653 0-2.48 1.25-2.48 3.75v24.17a7.762 7.762 0 0 0 .52 3.23 1.921 1.921 0 0 0 1.9 1.1 1.748 1.748 0 0 0 1.79-1.13ZM661.7 27.86h15.24a8.62 8.62 0 0 1 5.62 1.64 8.18 8.18 0 0 1 2.69 4.62c.51 2.497.741 5.042.69 7.59a15.998 15.998 0 0 1-1.1 6.57 6.129 6.129 0 0 1-3.81 3.29 4.614 4.614 0 0 1 3.27 2.25 9.991 9.991 0 0 1 1 4.85l-.11 18.75h-9.69V58.04c0-1.39-.27-2.27-.81-2.66a5.41 5.41 0 0 0-2.94-.58v22.62h-10l-.05-49.56Zm12.46 18.35c1.38 0 2.08-1.5 2.08-4.5a17.752 17.752 0 0 0-.18-2.95 2.142 2.142 0 0 0-.63-1.35 2.07 2.07 0 0 0-1.33-.38h-2.31v9.18h2.37ZM689.56 27.86h13.1c3.96 0 6.787 1.28 8.48 3.84 1.693 2.56 2.54 6.3 2.54 11.22 0 4.92-.75 8.63-2.25 11.13s-4.193 3.75-8.08 3.75h-4v19.62h-9.75l-.04-49.56Zm10.33 21a4.26 4.26 0 0 0 2.63-.66 3.17 3.17 0 0 0 1.09-1.91c.205-1.172.292-2.36.26-3.55a10.808 10.808 0 0 0-.69-4.5 2.789 2.789 0 0 0-2.77-1.38h-1.1v12h.58ZM718.59 74.54c-2-2.23-3-5.83-3-10.79V58.9h9.75v6.17c0 2.47.78 3.7 2.36 3.7a2.059 2.059 0 0 0 1.85-.78 5.008 5.008 0 0 0 .52-2.63 12.008 12.008 0 0 0-.58-4 8.619 8.619 0 0 0-1.47-2.65c-.6-.71-1.66-1.82-3.2-3.32l-4.27-4.27c-3.333-3.233-5-6.81-5-10.73 0-4.233.97-7.457 2.91-9.67 1.94-2.213 4.777-3.317 8.51-3.31 4.46 0 7.67 1.183 9.63 3.55 1.96 2.367 2.943 6.067 2.95 11.1h-10.1l-.06-3.4a2.154 2.154 0 0 0-.55-1.56 2.002 2.002 0 0 0-1.52-.58 2.26 2.26 0 0 0-1.74.64 2.49 2.49 0 0 0-.57 1.73c0 1.61.92 3.29 2.77 5l5.77 5.54a33.385 33.385 0 0 1 3.34 3.72 14.511 14.511 0 0 1 2.14 4.15c.576 1.84.85 3.762.81 5.69 0 4.88-.897 8.58-2.69 11.1-1.793 2.52-4.743 3.78-8.85 3.78-4.473.007-7.71-1.103-9.71-3.33Z" fill="#03C"/>
  </g>
  <defs>
    <clipPath id="a">
      <path fill="#fff" d="M0 0h739.87v105.27H0z"/>
    </clipPath>
  </defs>
</svg>
