<svg width="16" height="16" viewBox="0 0 16 16" fill="none" xmlns="http://www.w3.org/2000/svg">
<path fill-rule="evenodd" clip-rule="evenodd" d="M13.5236 2.78143L11.5314 0.753007C11.0613 0.274385 10.4002 0 9.71687 0H3.33173C2.48184 0 1.79057 0.667274 1.79057 1.48765V4.47531H1.54117C0.691277 4.47531 0 5.14258 0 5.96296V11.5185C0 12.3389 0.691277 13.0062 1.54117 13.0062H1.79057V14.5123C1.79057 15.3327 2.48184 16 3.33173 16H12.6683C13.5182 16 14.2094 15.3327 14.2094 14.5123V13.0062H14.4588C15.3087 13.0062 16 12.3389 16 11.5185V5.96296C16 5.14258 15.3087 4.47531 14.4588 4.47531H14.2094V4.44201C14.2094 3.8216 13.9658 3.23169 13.5236 2.78143ZM2.95444 1.48765C2.95444 1.28692 3.12378 1.12346 3.33173 1.12346H9.71687C10.0819 1.12346 10.4356 1.27025 10.6868 1.52597L12.679 3.5544C12.9155 3.79519 13.0456 4.11022 13.0456 4.44201V4.47531H2.95444V1.48765ZM14.8361 11.5185C14.8361 11.7192 14.6668 11.8827 14.4588 11.8827H1.54117C1.33322 11.8827 1.16387 11.7192 1.16387 11.5185V5.96296C1.16387 5.76223 1.33322 5.59876 1.54117 5.59876H14.4588C14.6668 5.59876 14.8361 5.76223 14.8361 5.96296V11.5185ZM13.0456 14.5123C13.0456 14.7131 12.8762 14.8765 12.6683 14.8765H3.33173C3.12378 14.8765 2.95444 14.7131 2.95444 14.5123V13.0062H13.0456V14.5123Z" fill="#325B6F"/>
<path d="M4.34366 6.83203H3.43121C3.31662 6.83203 3.20672 6.87577 3.1258 6.95356C3.04488 7.03135 2.99963 7.13684 3 7.24672L3.00636 10.3868C3.00636 10.615 3.19942 10.8001 3.43756 10.8001C3.6757 10.8001 3.86876 10.615 3.86876 10.3868V9.43335C4.04507 9.4325 4.23342 9.43175 4.34366 9.43175C5.10131 9.43175 5.71773 8.84863 5.71773 8.13189C5.71773 7.41515 5.10131 6.83203 4.34366 6.83203ZM4.34366 8.60503C4.23244 8.60503 4.0434 8.60577 3.86641 8.60665C3.86549 8.43067 3.86468 8.24116 3.86468 8.13189C3.86468 8.03839 3.86419 7.8427 3.86367 7.65876H4.34363C4.62098 7.65876 4.8553 7.87541 4.8553 8.13189C4.8553 8.38837 4.62101 8.60503 4.34366 8.60503Z" fill="#2D637F"/>
<path d="M8.01153 6.83203H7.11089C6.99639 6.83203 6.88658 6.87568 6.80569 6.95337C6.72479 7.03105 6.67946 7.1364 6.67969 7.24617C6.67969 7.24619 6.6861 10.2843 6.68613 10.2953C6.68656 10.4049 6.73238 10.5099 6.81356 10.5872C6.89437 10.6641 7.00355 10.7072 7.11733 10.7072H7.11897C7.14619 10.7071 7.7886 10.7047 8.04543 10.7004C9.01977 10.6841 9.72695 9.87207 9.72695 8.7696C9.72692 7.6107 9.03757 6.83203 8.01153 6.83203ZM8.03036 9.87383C7.91868 9.8757 7.72654 9.87722 7.5471 9.87832C7.54589 9.51927 7.54353 8.03189 7.54287 7.65876H8.01153C8.80302 7.65876 8.86451 8.50902 8.86451 8.76963C8.86451 9.31229 8.60659 9.86418 8.03036 9.87383Z" fill="#2D637F"/>
<path d="M12.5699 7.62677C12.8081 7.62677 13.0011 7.4417 13.0011 7.21341C13.0011 6.98513 12.8081 6.80005 12.5699 6.80005H11.2515C11.0134 6.80005 10.8203 6.98513 10.8203 7.21341V10.3318C10.8203 10.5601 11.0134 10.7451 11.2515 10.7451C11.4897 10.7451 11.6827 10.5601 11.6827 10.3318V9.15644H12.4652C12.7033 9.15644 12.8964 8.97136 12.8964 8.74307C12.8964 8.51479 12.7033 8.32971 12.4652 8.32971H11.6827V7.62677H12.5699Z" fill="#2D637F"/>
</svg>
