<svg width="18" height="18" viewBox="0 0 18 18" fill="none" xmlns="http://www.w3.org/2000/svg">
<path d="M17.4182 6.08478L12.96 4.32L9.60999 0.380306C9.54411 0.245706 9.43572 0.136744 9.30183 0.0705126C8.96604 -0.0961349 8.55799 0.0427381 8.39009 0.380306L5.04 4.32L0.581865 6.08478C0.433096 6.10615 0.297079 6.17665 0.192941 6.28347C0.0670438 6.41356 -0.00233122 6.58857 5.98176e-05 6.77005C0.00245086 6.95153 0.0764123 7.12463 0.205692 7.25131L2.52 11.16L3.18744 16.481C3.16581 16.6067 3.17965 16.736 3.22738 16.8542C3.27511 16.9724 3.35483 17.0747 3.45749 17.1497C3.56016 17.2247 3.68166 17.2692 3.80823 17.2783C3.9348 17.2873 4.06136 17.2606 4.17356 17.201L9 15.48L13.8265 17.201C13.9583 17.2715 14.1113 17.295 14.258 17.2694C14.6277 17.2053 14.8764 16.8528 14.8126 16.481L15.12 11.52L17.7944 7.25131C17.9007 7.14662 17.9708 7.00989 17.992 6.86033C18.0494 6.48644 17.7901 6.14033 17.4182 6.08478Z" fill="#00A34B"/>
</svg>
