<svg width="22" height="22" viewBox="0 0 22 22" fill="none" xmlns="http://www.w3.org/2000/svg">
<path d="M11 0C8.82441 0 6.69767 0.645138 4.88873 1.85383C3.07979 3.06253 1.66989 4.78049 0.83733 6.79048C0.00476609 8.80047 -0.213071 11.0122 0.211367 13.146C0.635804 15.2798 1.68345 17.2398 3.22183 18.7782C4.76021 20.3165 6.72022 21.3642 8.85401 21.7886C10.9878 22.2131 13.1995 21.9952 15.2095 21.1627C17.2195 20.3301 18.9375 18.9202 20.1462 17.1113C21.3549 15.3023 22 13.1756 22 11C22 8.08262 20.8411 5.28472 18.7782 3.22182C16.7153 1.15893 13.9174 0 11 0ZM16.5 15.1937C16.6823 15.3761 16.7848 15.6234 16.7848 15.8812C16.7848 16.1391 16.6823 16.3864 16.5 16.5687C16.3177 16.7511 16.0704 16.8535 15.8125 16.8535C15.5546 16.8535 15.3073 16.7511 15.125 16.5687L11 12.4437L6.875 16.5825C6.78472 16.6728 6.67754 16.7444 6.55958 16.7933C6.44161 16.8421 6.31518 16.8673 6.1875 16.8673C6.05982 16.8673 5.93339 16.8421 5.81543 16.7933C5.69747 16.7444 5.59029 16.6728 5.5 16.5825C5.40972 16.4922 5.3381 16.385 5.28924 16.2671C5.24038 16.1491 5.21523 16.0227 5.21523 15.895C5.21523 15.7673 5.24038 15.6409 5.28924 15.5229C5.3381 15.405 5.40972 15.2978 5.5 15.2075L9.625 11.055L5.38313 6.77875C5.20079 6.59641 5.09836 6.34911 5.09836 6.09125C5.09836 5.83339 5.20079 5.58608 5.38313 5.40375C5.56546 5.22141 5.81277 5.11898 6.07063 5.11898C6.32849 5.11898 6.57579 5.22141 6.75813 5.40375L11 9.69375L15.2419 5.45187C15.3322 5.36159 15.4393 5.28997 15.5573 5.24111C15.6753 5.19225 15.8017 5.1671 15.9294 5.1671C16.0571 5.1671 16.1835 5.19225 16.3014 5.24111C16.4194 5.28997 16.5266 5.36159 16.6169 5.45187C16.7072 5.54216 16.7788 5.64934 16.8276 5.7673C16.8765 5.88526 16.9016 6.01169 16.9016 6.13937C16.9016 6.26705 16.8765 6.39348 16.8276 6.51145C16.7788 6.62941 16.7072 6.73659 16.6169 6.82687L12.375 11.055L16.5 15.1937Z" fill="#1BBF9B"/>
</svg>
