<svg width="22" height="28" viewBox="0 0 22 28" fill="none" xmlns="http://www.w3.org/2000/svg">
<mask id="path-1-inside-1_87_50764" fill="white">
<path fill-rule="evenodd" clip-rule="evenodd" d="M0.5 27.125V3.5C0.5 2.57174 0.868749 1.6815 1.52513 1.02513C2.1815 0.368749 3.07174 0 4 0L18 0C18.9283 0 19.8185 0.368749 20.4749 1.02513C21.1313 1.6815 21.5 2.57174 21.5 3.5V27.125C21.5001 27.2769 21.4607 27.4263 21.3855 27.5584C21.3104 27.6904 21.2021 27.8007 21.0714 27.8782C20.9408 27.9557 20.7921 27.9979 20.6402 28.0005C20.4883 28.0031 20.3383 27.9662 20.205 27.8932L11 22.8708L1.795 27.8932C1.6617 27.9662 1.51171 28.0031 1.35978 28.0005C1.20786 27.9979 1.05924 27.9557 0.928561 27.8782C0.797879 27.8007 0.689638 27.6904 0.614493 27.5584C0.539348 27.4263 0.499889 27.2769 0.5 27.125ZM11.28 7.175C11.2544 7.12252 11.2146 7.07829 11.1651 7.04735C11.1156 7.01641 11.0584 7 11 7C10.9416 7 10.8844 7.01641 10.8349 7.04735C10.7854 7.07829 10.7456 7.12252 10.72 7.175L9.6105 9.42375C9.58829 9.46924 9.55533 9.50863 9.51447 9.53851C9.47361 9.56839 9.42608 9.58787 9.376 9.59525L6.891 9.95575C6.83379 9.96443 6.78014 9.98887 6.73604 10.0263C6.69195 10.0638 6.65916 10.1128 6.64135 10.1679C6.62354 10.2229 6.62142 10.2818 6.63523 10.338C6.64903 10.3942 6.67821 10.4455 6.7195 10.486L8.515 12.2378C8.5885 12.3095 8.62175 12.4128 8.60425 12.5142L8.1825 14.9887C8.17299 15.0459 8.1796 15.1045 8.20158 15.1581C8.22357 15.2117 8.26006 15.2581 8.30696 15.2921C8.35386 15.3261 8.40931 15.3464 8.46708 15.3506C8.52486 15.3548 8.58266 15.3428 8.634 15.316L10.8565 14.147C10.9011 14.1237 10.9506 14.1115 11.0009 14.1115C11.0512 14.1115 11.1007 14.1237 11.1453 14.147L13.3677 15.316C13.419 15.3423 13.4766 15.3539 13.5341 15.3495C13.5916 15.345 13.6467 15.3247 13.6933 15.2908C13.74 15.2569 13.7762 15.2107 13.7982 15.1573C13.8201 15.104 13.8268 15.0457 13.8175 14.9887L13.394 12.5125C13.3851 12.4628 13.3884 12.4116 13.4036 12.3634C13.4189 12.3153 13.4456 12.2715 13.4815 12.236L15.2805 10.4843C15.3218 10.4437 15.351 10.3925 15.3648 10.3363C15.3786 10.2801 15.3765 10.2212 15.3586 10.1661C15.3408 10.1111 15.3081 10.0621 15.264 10.0246C15.2199 9.98712 15.1662 9.96268 15.109 9.954L12.624 9.5935C12.5739 9.58612 12.5264 9.56664 12.4855 9.53676C12.4447 9.50688 12.4117 9.46749 12.3895 9.422L11.28 7.175Z"/>
</mask>
<path fill-rule="evenodd" clip-rule="evenodd" d="M0.5 27.125V3.5C0.5 2.57174 0.868749 1.6815 1.52513 1.02513C2.1815 0.368749 3.07174 0 4 0L18 0C18.9283 0 19.8185 0.368749 20.4749 1.02513C21.1313 1.6815 21.5 2.57174 21.5 3.5V27.125C21.5001 27.2769 21.4607 27.4263 21.3855 27.5584C21.3104 27.6904 21.2021 27.8007 21.0714 27.8782C20.9408 27.9557 20.7921 27.9979 20.6402 28.0005C20.4883 28.0031 20.3383 27.9662 20.205 27.8932L11 22.8708L1.795 27.8932C1.6617 27.9662 1.51171 28.0031 1.35978 28.0005C1.20786 27.9979 1.05924 27.9557 0.928561 27.8782C0.797879 27.8007 0.689638 27.6904 0.614493 27.5584C0.539348 27.4263 0.499889 27.2769 0.5 27.125ZM11.28 7.175C11.2544 7.12252 11.2146 7.07829 11.1651 7.04735C11.1156 7.01641 11.0584 7 11 7C10.9416 7 10.8844 7.01641 10.8349 7.04735C10.7854 7.07829 10.7456 7.12252 10.72 7.175L9.6105 9.42375C9.58829 9.46924 9.55533 9.50863 9.51447 9.53851C9.47361 9.56839 9.42608 9.58787 9.376 9.59525L6.891 9.95575C6.83379 9.96443 6.78014 9.98887 6.73604 10.0263C6.69195 10.0638 6.65916 10.1128 6.64135 10.1679C6.62354 10.2229 6.62142 10.2818 6.63523 10.338C6.64903 10.3942 6.67821 10.4455 6.7195 10.486L8.515 12.2378C8.5885 12.3095 8.62175 12.4128 8.60425 12.5142L8.1825 14.9887C8.17299 15.0459 8.1796 15.1045 8.20158 15.1581C8.22357 15.2117 8.26006 15.2581 8.30696 15.2921C8.35386 15.3261 8.40931 15.3464 8.46708 15.3506C8.52486 15.3548 8.58266 15.3428 8.634 15.316L10.8565 14.147C10.9011 14.1237 10.9506 14.1115 11.0009 14.1115C11.0512 14.1115 11.1007 14.1237 11.1453 14.147L13.3677 15.316C13.419 15.3423 13.4766 15.3539 13.5341 15.3495C13.5916 15.345 13.6467 15.3247 13.6933 15.2908C13.74 15.2569 13.7762 15.2107 13.7982 15.1573C13.8201 15.104 13.8268 15.0457 13.8175 14.9887L13.394 12.5125C13.3851 12.4628 13.3884 12.4116 13.4036 12.3634C13.4189 12.3153 13.4456 12.2715 13.4815 12.236L15.2805 10.4843C15.3218 10.4437 15.351 10.3925 15.3648 10.3363C15.3786 10.2801 15.3765 10.2212 15.3586 10.1661C15.3408 10.1111 15.3081 10.0621 15.264 10.0246C15.2199 9.98712 15.1662 9.96268 15.109 9.954L12.624 9.5935C12.5739 9.58612 12.5264 9.56664 12.4855 9.53676C12.4447 9.50688 12.4117 9.46749 12.3895 9.422L11.28 7.175Z" fill="#1BBF9B"/>
<path d="M0.5 27.125L1.5 27.1257V27.125H0.5ZM4 0V-1V0ZM21.5 27.125H20.5V27.1257L21.5 27.125ZM20.205 27.8932L20.685 27.016L20.684 27.0154L20.205 27.8932ZM11 22.8708L11.479 21.9929L11 21.7316L10.521 21.9929L11 22.8708ZM1.795 27.8932L1.31603 27.0154L1.315 27.016L1.795 27.8932ZM11.28 7.175L10.3811 7.61321L10.3833 7.61774L11.28 7.175ZM10.72 7.175L11.6168 7.61747L11.6189 7.6132L10.72 7.175ZM9.6105 9.42375L8.71371 8.98129L8.71189 8.985L9.6105 9.42375ZM9.376 9.59525L9.51957 10.5849L9.5218 10.5846L9.376 9.59525ZM6.891 9.95575L6.74743 8.96609L6.74097 8.96707L6.891 9.95575ZM6.7195 10.486L6.01891 11.1996L6.02117 11.2018L6.7195 10.486ZM8.515 12.2378L9.21354 11.5222L9.21333 11.522L8.515 12.2378ZM8.60425 12.5142L7.61879 12.3443L7.61847 12.3462L8.60425 12.5142ZM8.1825 14.9887L7.19671 14.8207L7.19607 14.8245L8.1825 14.9887ZM8.634 15.316L9.09701 16.2024L9.09952 16.201L8.634 15.316ZM10.8565 14.147L10.393 13.2609L10.391 13.262L10.8565 14.147ZM11.1453 14.147L11.6108 13.262L11.6087 13.2609L11.1453 14.147ZM13.3677 15.316L12.9022 16.2011L12.9109 16.2055L13.3677 15.316ZM13.8175 14.9887L14.8045 14.8277L14.8032 14.8202L13.8175 14.9887ZM13.394 12.5125L14.3797 12.3439L14.3782 12.3357L13.394 12.5125ZM13.4815 12.236L12.7838 11.5195L12.7782 11.5252L13.4815 12.236ZM15.2805 10.4843L15.9781 11.2007L15.9811 11.1978L15.2805 10.4843ZM15.109 9.954L15.259 8.9653L15.2526 8.96436L15.109 9.954ZM12.624 9.5935L12.4782 10.5828L12.4804 10.5831L12.624 9.5935ZM12.3895 9.422L13.2881 8.98324L13.2861 8.97926L12.3895 9.422ZM1.5 27.125V3.5H-0.5V27.125H1.5ZM1.5 3.5C1.5 2.83696 1.76339 2.20107 2.23223 1.73223L0.81802 0.31802C-0.0258942 1.16193 -0.5 2.30653 -0.5 3.5H1.5ZM2.23223 1.73223C2.70107 1.26339 3.33696 1 4 1V-1C2.80653 -1 1.66193 -0.525894 0.81802 0.31802L2.23223 1.73223ZM4 1H18V-1H4V1ZM18 1C18.663 1 19.2989 1.26339 19.7678 1.73223L21.182 0.31802C20.3381 -0.525894 19.1935 -1 18 -1V1ZM19.7678 1.73223C20.2366 2.20107 20.5 2.83696 20.5 3.5H22.5C22.5 2.30653 22.0259 1.16193 21.182 0.31802L19.7678 1.73223ZM20.5 3.5V27.125H22.5V3.5H20.5ZM20.5 27.1257C20.5 27.104 20.5056 27.0827 20.5164 27.0638L22.2547 28.0529C22.4157 27.7699 22.5002 27.4499 22.5 27.1243L20.5 27.1257ZM20.5164 27.0638C20.5271 27.045 20.5426 27.0292 20.5612 27.0181L21.5817 28.7382C21.8617 28.5721 22.0936 28.3359 22.2547 28.0529L20.5164 27.0638ZM20.5612 27.0181C20.5799 27.0071 20.6011 27.001 20.6228 27.0007L20.6576 29.0004C20.9832 28.9947 21.3016 28.9044 21.5817 28.7382L20.5612 27.0181ZM20.6228 27.0007C20.6445 27.0003 20.666 27.0056 20.685 27.016L19.725 28.7705C20.0106 28.9268 20.3321 29.006 20.6576 29.0004L20.6228 27.0007ZM20.684 27.0154L11.479 21.9929L10.521 23.7486L19.726 28.7711L20.684 27.0154ZM10.521 21.9929L1.31603 27.0154L2.27397 28.7711L11.479 23.7486L10.521 21.9929ZM1.315 27.016C1.33405 27.0056 1.35547 27.0003 1.37717 27.0007L1.34239 29.0004C1.66794 29.006 1.98936 28.9268 2.275 28.7705L1.315 27.016ZM1.37717 27.0007C1.39888 27.001 1.42011 27.0071 1.43878 27.0181L0.418344 28.7382C0.698375 28.9044 1.01684 28.9947 1.34239 29.0004L1.37717 27.0007ZM1.43878 27.0181C1.45744 27.0292 1.47291 27.045 1.48364 27.0638L-0.254658 28.0529C-0.0936307 28.3359 0.138315 28.5721 0.418344 28.7382L1.43878 27.0181ZM1.48364 27.0638C1.49438 27.0827 1.50002 27.104 1.5 27.1257L-0.5 27.1243C-0.500238 27.4499 -0.415683 27.7699 -0.254658 28.0529L1.48364 27.0638ZM12.1789 6.7368C12.0712 6.51585 11.9035 6.32962 11.6951 6.19935L10.6351 7.89535C10.5257 7.82696 10.4377 7.7292 10.3811 7.6132L12.1789 6.7368ZM11.6951 6.19935C11.4867 6.06908 11.2458 6 11 6V8C10.871 8 10.7445 7.96374 10.6351 7.89535L11.6951 6.19935ZM11 6C10.7542 6 10.5133 6.06907 10.3049 6.19935L11.3649 7.89535C11.2555 7.96374 11.129 8 11 8V6ZM10.3049 6.19935C10.0965 6.32963 9.92883 6.51586 9.82112 6.7368L11.6189 7.6132C11.5623 7.72919 11.4743 7.82695 11.3649 7.89535L10.3049 6.19935ZM9.82321 6.73254L8.71371 8.98129L10.5073 9.86621L11.6168 7.61746L9.82321 6.73254ZM8.71189 8.985C8.76098 8.88445 8.83384 8.79739 8.92415 8.73134L10.1048 10.3457C10.2768 10.2199 10.4156 10.054 10.5091 9.8625L8.71189 8.985ZM8.92415 8.73134C9.01446 8.66529 9.11951 8.62225 9.2302 8.60594L9.5218 10.5846C9.73265 10.5535 9.93275 10.4715 10.1048 10.3457L8.92415 8.73134ZM9.23243 8.60561L6.74743 8.96611L7.03457 10.9454L9.51957 10.5849L9.23243 8.60561ZM6.74097 8.96707C6.50011 9.00362 6.2742 9.10653 6.08855 9.26427L7.38353 10.7884C7.28607 10.8712 7.16747 10.9252 7.04103 10.9444L6.74097 8.96707ZM6.08855 9.26427C5.9029 9.422 5.76485 9.62833 5.68988 9.86013L7.59282 10.4756C7.55346 10.5973 7.48099 10.7056 7.38353 10.7884L6.08855 9.26427ZM5.68988 9.86013C5.61491 10.0919 5.60599 10.34 5.6641 10.5766L7.60636 10.0995C7.63686 10.2237 7.63218 10.3539 7.59282 10.4756L5.68988 9.86013ZM5.6641 10.5766C5.72221 10.8132 5.84507 11.0289 6.01891 11.1996L7.42009 9.77244C7.51135 9.86204 7.57585 9.97528 7.60636 10.0995L5.6641 10.5766ZM6.02117 11.2018L7.81667 12.9535L9.21333 11.522L7.41783 9.77023L6.02117 11.2018ZM7.81646 12.9533C7.653 12.7938 7.5807 12.5653 7.61879 12.3443L9.58971 12.6842C9.6628 12.2602 9.524 11.8252 9.21354 11.5222L7.81646 12.9533ZM7.61847 12.3462L7.19672 14.8207L9.16828 15.1568L9.59003 12.6823L7.61847 12.3462ZM7.19607 14.8245C7.15603 15.0651 7.18385 15.3121 7.27642 15.5377L9.12675 14.7786C9.17534 14.897 9.18995 15.0267 9.16893 15.153L7.19607 14.8245ZM7.27642 15.5377C7.36898 15.7633 7.52263 15.9587 7.7201 16.1018L8.89383 14.4824C8.9975 14.5576 9.07815 14.6601 9.12675 14.7786L7.27642 15.5377ZM7.7201 16.1018C7.91756 16.2449 8.15102 16.3302 8.39425 16.3479L8.53992 14.3532C8.6676 14.3626 8.79016 14.4073 8.89383 14.4824L7.7201 16.1018ZM8.39425 16.3479C8.6375 16.3657 8.88086 16.3153 9.09701 16.2024L8.17099 14.4296C8.28445 14.3704 8.41221 14.3439 8.53992 14.3532L8.39425 16.3479ZM9.09952 16.201L11.322 15.032L10.391 13.262L8.16848 14.431L9.09952 16.201ZM11.32 15.0331C11.2215 15.0846 11.112 15.1115 11.0009 15.1115V13.1115C10.7892 13.1115 10.5806 13.1628 10.393 13.2609L11.32 15.0331ZM11.0009 15.1115C10.8897 15.1115 10.7803 15.0846 10.6818 15.0331L11.6087 13.2609C11.4211 13.1628 11.2126 13.1115 11.0009 13.1115V15.1115ZM10.6797 15.032L12.9022 16.201L13.8333 14.431L11.6108 13.262L10.6797 15.032ZM12.9109 16.2055C13.1268 16.3164 13.3693 16.3652 13.6113 16.3465L13.4569 14.3525C13.584 14.3426 13.7113 14.3682 13.8246 14.4265L12.9109 16.2055ZM13.6113 16.3465C13.8533 16.3278 14.0854 16.2422 14.2817 16.0994L13.105 14.4822C13.208 14.4072 13.3299 14.3623 13.4569 14.3525L13.6113 16.3465ZM14.2817 16.0994C14.478 15.9566 14.6308 15.7621 14.7231 15.5375L12.8733 14.7771C12.9217 14.6593 13.0019 14.5572 13.105 14.4822L14.2817 16.0994ZM14.7231 15.5375C14.8154 15.313 14.8435 15.0673 14.8044 14.8277L12.8305 15.1498C12.81 15.024 12.8248 14.895 12.8733 14.7771L14.7231 15.5375ZM14.8032 14.8202L14.3797 12.3439L12.4083 12.6811L12.8318 15.1573L14.8032 14.8202ZM14.3782 12.3357C14.398 12.4456 14.3907 12.5587 14.357 12.6652L12.4502 12.0617C12.386 12.2645 12.3721 12.4799 12.4098 12.6893L14.3782 12.3357ZM14.357 12.6652C14.3233 12.7716 14.2642 12.8683 14.1848 12.9468L12.7782 11.5252C12.6269 11.6748 12.5144 11.8589 12.4502 12.0617L14.357 12.6652ZM14.1791 12.9525L15.9781 11.2007L14.5829 9.7678L12.7839 11.5195L14.1791 12.9525ZM15.9811 11.1978C16.1549 11.0271 16.2778 10.8114 16.3359 10.5748L14.3936 10.0977C14.4242 9.97353 14.4887 9.86029 14.5799 9.77069L15.9811 11.1978ZM16.3359 10.5748C16.394 10.3383 16.3851 10.0902 16.3101 9.85838L14.4072 10.4739C14.3678 10.3522 14.3631 10.2219 14.3936 10.0977L16.3359 10.5748ZM16.3101 9.85838C16.2352 9.6266 16.0971 9.42027 15.9115 9.26252L14.6165 10.7867C14.519 10.7038 14.4465 10.5955 14.4072 10.4739L16.3101 9.85838ZM15.9115 9.26252C15.7258 9.10477 15.4999 9.00186 15.259 8.96532L14.959 10.9427C14.8325 10.9235 14.7139 10.8695 14.6165 10.7867L15.9115 9.26252ZM15.2526 8.96436L12.7676 8.60386L12.4804 10.5831L14.9654 10.9436L15.2526 8.96436ZM12.7698 8.60419C12.8805 8.6205 12.9855 8.66354 13.0758 8.72959L11.8952 10.3439C12.0673 10.4698 12.2674 10.5517 12.4782 10.5828L12.7698 8.60419ZM13.0758 8.72959C13.1662 8.79564 13.239 8.88271 13.2881 8.98325L11.4909 9.86075C11.5844 10.0523 11.7232 10.2181 11.8952 10.3439L13.0758 8.72959ZM13.2861 8.97926L12.1767 6.73226L10.3833 7.61774L11.4928 9.86474L13.2861 8.97926Z" fill="#41CAAC" mask="url(#path-1-inside-1_87_50764)"/>
</svg>
