<?xml version="1.0" encoding="UTF-8"?> <svg xmlns="http://www.w3.org/2000/svg" xmlns:xlink="http://www.w3.org/1999/xlink" width="49" height="49"><defs><path id="a" d="M0 .047h48.217v48.205H0z"></path></defs><g fill="none" fill-rule="evenodd"><g transform="translate(.737)"><mask id="b" fill="#fff"><use xlink:href="#a"></use></mask><path d="M24.109 48.263c13.314 0 24.108-10.793 24.108-24.108C48.217 10.841 37.423.047 24.109.047 10.794.047 0 10.841 0 24.155 0 37.47 10.794 48.263 24.109 48.263" fill="#1DA1F2" mask="url(#b)"></path></g><path d="M36.94 17.84a9.903 9.903 0 01-2.845.78 4.96 4.96 0 002.178-2.74 9.896 9.896 0 01-3.147 1.2 4.955 4.955 0 00-8.57 3.39c0 .39.043.767.128 1.129a14.064 14.064 0 01-10.212-5.177 4.947 4.947 0 00-.67 2.492c0 1.718.874 3.235 2.204 4.124a4.959 4.959 0 01-2.246-.619v.061a4.955 4.955 0 003.976 4.858 4.833 4.833 0 01-1.306.175c-.32 0-.63-.03-.932-.088a4.955 4.955 0 004.628 3.439 9.936 9.936 0 01-6.153 2.121c-.4 0-.795-.022-1.182-.068a14.039 14.039 0 007.594 2.225c9.115 0 14.097-7.548 14.097-14.096 0-.216-.004-.43-.013-.641a10.04 10.04 0 002.471-2.565" fill="#FFF"></path></g></svg> 