<svg width="23" height="23" viewBox="0 0 23 23" fill="none" xmlns="http://www.w3.org/2000/svg">
<path d="M10.6786 4.10714C10.6786 3.01786 10.2459 1.97319 9.47562 1.20295C8.70538 0.432716 7.66071 0 6.57143 0C5.48215 0 4.43748 0.432716 3.66724 1.20295C2.897 1.97319 2.46429 3.01786 2.46429 4.10714C2.46429 5.19642 2.897 6.24109 3.66724 7.01133C4.43748 7.78157 5.48215 8.21428 6.57143 8.21428C7.66071 8.21428 8.70538 7.78157 9.47562 7.01133C10.2459 6.24109 10.6786 5.19642 10.6786 4.10714ZM4.10714 4.10714C4.10714 3.45357 4.36677 2.82677 4.82892 2.36463C5.29106 1.90249 5.91786 1.64286 6.57143 1.64286C7.225 1.64286 7.8518 1.90249 8.31394 2.36463C8.77608 2.82677 9.03571 3.45357 9.03571 4.10714C9.03571 4.76071 8.77608 5.38751 8.31394 5.84966C7.8518 6.3118 7.225 6.57143 6.57143 6.57143C5.91786 6.57143 5.29106 6.3118 4.82892 5.84966C4.36677 5.38751 4.10714 4.76071 4.10714 4.10714ZM6.67 18.0714H6.9115C6.75948 17.5344 6.65773 16.9844 6.60757 16.4286C3.14936 16.4204 1.64286 15.4675 1.64286 13.5963V12.3214C1.64286 12.1036 1.7294 11.8946 1.88345 11.7406C2.0375 11.5865 2.24643 11.5 2.46429 11.5H7.55714C7.85778 10.9119 8.22086 10.3615 8.6365 9.85714H2.46429C1.81072 9.85714 1.18392 10.1168 0.721773 10.5789C0.259629 11.0411 0 11.6679 0 12.3214V13.5946C0 16.5879 2.37557 18.0714 6.67 18.0714ZM15.6071 23C13.6464 23 11.766 22.2211 10.3796 20.8347C8.99317 19.4482 8.21428 17.5678 8.21428 15.6071C8.21428 13.6464 8.99317 11.766 10.3796 10.3796C11.766 8.99317 13.6464 8.21428 15.6071 8.21428C17.5678 8.21428 19.4482 8.99317 20.8347 10.3796C22.2211 11.766 23 13.6464 23 15.6071C23 17.5678 22.2211 19.4482 20.8347 20.8347C19.4482 22.2211 17.5678 23 15.6071 23ZM19.4744 13.7244C19.6287 13.5702 19.7153 13.361 19.7153 13.1429C19.7153 12.9247 19.6287 12.7155 19.4744 12.5613C19.3202 12.407 19.111 12.3204 18.8929 12.3204C18.6747 12.3204 18.4655 12.407 18.3113 12.5613L13.9643 16.9099L12.903 15.847C12.7488 15.6928 12.5396 15.6061 12.3214 15.6061C12.1033 15.6061 11.8941 15.6928 11.7399 15.847C11.5856 16.0012 11.499 16.2104 11.499 16.4286C11.499 16.6467 11.5856 16.8559 11.7399 17.0101L13.3827 18.653C13.459 18.7295 13.5497 18.7902 13.6495 18.8316C13.7493 18.873 13.8562 18.8943 13.9643 18.8943C14.0723 18.8943 14.1793 18.873 14.2791 18.8316C14.3789 18.7902 14.4696 18.7295 14.5459 18.653L19.4744 13.7244Z" fill="#323232"/>
</svg>
